<?xml version="1.0" encoding="UTF-8" standalone="no"?>
<svg
   xmlns:dc="http://purl.org/dc/elements/1.1/"
   xmlns:cc="http://creativecommons.org/ns#"
   xmlns:rdf="http://www.w3.org/1999/02/22-rdf-syntax-ns#"
   xmlns:svg="http://www.w3.org/2000/svg"
   xmlns="http://www.w3.org/2000/svg"
   xmlns:sodipodi="http://sodipodi.sourceforge.net/DTD/sodipodi-0.dtd"
   xmlns:inkscape="http://www.inkscape.org/namespaces/inkscape"
   width="210mm"
   height="297mm"
   viewBox="0 0 210 297"
   version="1.1"
   id="svg8"
   inkscape:version="1.0.1 (0767f8302a, 2020-10-17)"
   sodipodi:docname="dibujo Marc.svg">
  <defs
     id="defs2">
    <inkscape:perspective
       sodipodi:type="inkscape:persp3d"
       inkscape:vp_x="0 : 148.5 : 1"
       inkscape:vp_y="0 : 1000 : 0"
       inkscape:vp_z="210 : 148.5 : 1"
       inkscape:persp3d-origin="105 : 99 : 1"
       id="perspective32" />
  </defs>
  <sodipodi:namedview
     id="base"
     pagecolor="#ffffff"
     bordercolor="#666666"
     borderopacity="1.0"
     inkscape:pageopacity="0.0"
     inkscape:pageshadow="2"
     inkscape:zoom="0.35"
     inkscape:cx="-563.80934"
     inkscape:cy="790.97866"
     inkscape:document-units="mm"
     inkscape:current-layer="layer1"
     inkscape:document-rotation="0"
     showgrid="false"
     inkscape:window-width="1853"
     inkscape:window-height="1025"
     inkscape:window-x="67"
     inkscape:window-y="27"
     inkscape:window-maximized="1" />
  <metadata
     id="metadata5">
    <rdf:RDF>
      <cc:Work
         rdf:about="">
        <dc:format>image/svg+xml</dc:format>
        <dc:type
           rdf:resource="http://purl.org/dc/dcmitype/StillImage" />
        <dc:title></dc:title>
      </cc:Work>
    </rdf:RDF>
  </metadata>
  <g
     inkscape:label="Capa 1"
     inkscape:groupmode="layer"
     id="layer1">
    <text
       xml:space="preserve"
       style="font-style:normal;font-weight:normal;font-size:10.5833px;line-height:1.25;font-family:sans-serif;fill:#000000;fill-opacity:1;stroke:none;stroke-width:0.264583"
       x="95.32756"
       y="115.20969"
       id="text78"><tspan
         sodipodi:role="line"
         id="tspan76"
         x="95.32756"
         y="115.20969"
         style="stroke-width:0.264583" /></text>
    <text
       xml:space="preserve"
       style="font-style:normal;font-weight:normal;font-size:10.5833px;line-height:1.25;font-family:sans-serif;fill:#000000;fill-opacity:1;stroke:none;stroke-width:0.264583"
       x="65.309921"
       y="428.54919"
       id="text116"><tspan
         sodipodi:role="line"
         id="tspan114"
         x="65.309921"
         y="428.54919"
         style="stroke-width:0.264583" /></text>
    <circle
       id="path142"
       style="fill:#000000;stroke:#000000;stroke-width:0.264583"
       cx="484.61087"
       cy="5.4903445"
       r="0.099906191" />
    <circle
       id="path144"
       style="fill:#000000;stroke:#000000;stroke-width:0.264583"
       cx="473.31622"
       cy="34.786221"
       r="0.099906191" />
    <rect
       style="fill:#00ff00;fill-rule:evenodd;stroke-width:0.264583"
       id="rect196"
       width="1556.5092"
       height="670.75555"
       x="-798.97357"
       y="-122.50323" />
    <path
       style="fill:#550000;stroke-width:0.264583"
       id="path198"
       d="m -558.57129,8.3202049 c -6.39797,-0.4136925 -12.76037,0.5402857 -19.02843,1.7170601 -4.95568,0.906793 -9.72312,2.498729 -14.08798,5.038439 -12.97586,7.550079 -9.35945,4.974233 -16.61488,10.621663 -5.83713,5.327658 -10.97494,11.659997 -13.19604,19.385465 -0.4358,1.515748 -0.63603,3.089503 -0.95406,4.634254 -0.0451,1.657363 -0.25173,3.318201 -0.13539,4.97209 0.7453,10.594202 6.5496,19.970747 12.15178,28.637518 6.63379,8.928788 14.60421,16.847606 23.36983,23.687906 1.59051,1.24119 3.25247,2.38808 4.87868,3.58212 10.13904,6.77728 21.33745,11.71195 32.27575,17.0236 6.02861,2.86339 11.90509,6.11929 18.17965,8.43838 3.40334,1.25789 4.87947,1.56676 8.37195,2.50133 8.1512,1.82076 16.52024,2.339 24.84646,2.58605 4.79872,0.0444 9.59768,0.037 14.39656,0.0464 0,0 8.61986,-6.26155 8.61986,-6.26155 v 0 c -4.75104,0.001 -9.50253,0.004 -14.25254,-0.11528 -8.29437,-0.21246 -16.63774,-0.55278 -24.77035,-2.33811 -3.31586,-0.85192 -5.08222,-1.22722 -8.31874,-2.37495 -6.31269,-2.23861 -12.2493,-5.40907 -18.27768,-8.2892 -10.94105,-5.1989 -22.07736,-10.14149 -32.21281,-16.83739 -1.62491,-1.17138 -3.28411,-2.29663 -4.87476,-3.51414 -8.75453,-6.700881 -16.68965,-14.510465 -23.23605,-23.39103 -1.18266,-1.81845 -2.43459,-3.593685 -3.54796,-5.455349 -4.10183,-6.858547 -7.72099,-14.601607 -8.09148,-22.724289 -0.0733,-1.606473 0.16478,-3.212066 0.24717,-4.818097 0.34605,-1.497446 0.58108,-3.024971 1.03814,-4.492345 2.35509,-7.56077 7.53724,-13.724133 13.41345,-18.83896 6.16747,-4.619781 4.10888,-2.776758 -1.69264,0.0801 -1.21351,0.597573 2.33841,-1.365371 3.55396,-1.958754 2.20086,-1.07435 4.39865,-1.836973 6.75685,-2.479065 1.16845,-0.318145 2.35866,-0.550277 3.53798,-0.825416 6.07711,-1.204928 12.29352,-2.282515 18.50919,-1.724335 0,0 9.14453,-6.5141421 9.14453,-6.5141421 z" />
    <path
       style="fill:#550000;stroke-width:0.264583"
       id="path200"
       d="m -392.45995,29.593902 c -6.59135,1.443069 -13.35902,2.981915 -19.47127,5.944656 -1.66497,0.80704 -3.23802,1.791324 -4.85703,2.686986 -9.85909,5.86336 -16.54366,9.295411 -22.45148,18.663169 -2.21658,3.51468 -4.36939,8.380118 -5.4868,12.376144 -0.62569,2.237531 -0.90244,4.558255 -1.35366,6.837381 -0.13351,2.283278 -0.42699,4.562806 -0.40053,6.84983 0.11004,9.510537 3.04387,19.081792 8.49273,26.914192 1.60398,2.30561 3.56381,4.3421 5.34569,6.51316 8.02201,8.36071 16.99798,15.91029 27.10585,21.64481 5.80544,3.29361 7.22035,3.59142 13.31048,5.94464 2.12984,0.50887 4.22907,1.16944 6.38955,1.52662 6.68512,1.10522 16.20689,0.85539 22.24098,-2.65409 4.75218,-2.76392 9.23256,-5.9708 13.84882,-8.95619 1.48156,-1.73258 3.08727,-3.36629 4.44471,-5.19774 6.08661,-8.21183 9.98204,-18.25321 11.40023,-28.35814 0.35976,-2.563284 0.36793,-5.163715 0.55193,-7.745572 -0.15881,-9.982239 -2.35263,-19.821403 -7.69078,-28.365251 -3.40225,-5.445382 -4.58224,-6.063369 -9.12455,-10.475746 -6.13013,-4.946819 -13.19255,-8.493064 -20.90304,-10.178412 -4.20314,-0.91871 -6.01721,-0.888746 -10.27504,-1.182007 -1.5771,0.0024 -3.15418,0.0047 -4.73125,0.007 0,0 -8.62825,6.283661 -8.62825,6.283661 v 0 c 1.57612,-0.03318 3.15227,-0.06636 4.7284,-0.09954 4.22804,0.222398 5.98953,0.163862 10.17145,0.995926 7.62934,1.517989 14.68165,4.816493 20.79882,9.612876 4.4554,4.25078 5.66163,4.883351 8.99665,10.167927 5.27373,8.35656 7.37791,18.03958 7.4848,27.821807 -0.19675,2.536058 -0.21601,5.092171 -0.59026,7.608171 -1.48661,9.99389 -5.50114,19.96548 -11.75136,27.93729 -1.40804,1.7959 -3.07772,3.37033 -4.61656,5.05549 1.40174,-0.49938 5.21846,-2.58792 4.20524,-1.49814 -1.19034,1.28024 -3.13037,1.58805 -4.79245,2.1297 -5.39973,1.75972 -11.62543,1.94714 -17.2044,1.15648 -2.1489,-0.30455 -4.24339,-0.91415 -6.36508,-1.37122 -6.04229,-2.21787 -7.56338,-2.52845 -13.33207,-5.69176 -10.10888,-5.54331 -19.06153,-12.97792 -26.94905,-21.34032 -1.71606,-2.14405 -3.60175,-4.16272 -5.14821,-6.43215 -5.27908,-7.746999 -8.11242,-17.076239 -8.13284,-26.429461 -0.005,-2.242227 0.30024,-4.4744 0.4504,-6.711598 0.47945,-2.232808 0.78771,-4.509378 1.4384,-6.698421 1.18891,-3.999617 3.33635,-8.625319 5.64095,-12.109842 1.20057,-1.815229 2.55899,-3.532579 4.02756,-5.138729 1.45489,-1.591188 4.23466,-2.324063 4.71729,-4.4254 0.32869,-1.431028 -2.72093,1.10454 -4.08139,1.656813 1.56366,-0.906092 3.07795,-1.903354 4.69101,-2.718279 5.90682,-2.984137 12.49966,-4.534119 18.92782,-5.89475 0,0 8.92759,-6.662015 8.92759,-6.662015 z" />
    <path
       style="fill:#550000;stroke-width:0.264583"
       id="path202"
       d="m -283.36748,154.87951 c 3.0724,-8.68035 6.32524,-17.29917 9.54085,-25.92819 4.35679,-11.49713 8.30003,-23.14549 12.20908,-34.800768 1.26607,-2.720914 1.86619,-6.291728 3.24651,-8.9662 0.26169,-0.507053 0.58512,-1.003165 1.01491,-1.37849 0.31177,-0.272267 1.4711,-0.743997 1.13652,-0.500306 -2.70667,1.971387 -5.51536,3.798758 -8.27303,5.698136 0.77992,0.716288 1.632,1.361196 2.33976,2.148858 2.43402,2.708791 5.60218,7.295883 7.4996,10.12773 6.33858,9.46018 11.94574,19.34563 17.63422,29.20227 10.45793,18.75015 20.40752,37.78237 29.86136,57.0574 0.60402,1.15958 2.59123,5.485 3.99885,6.70706 3.30847,2.87233 11.41567,-5.52195 12.66265,-6.69349 0.95433,-0.89659 0.67772,-2.53364 0.89618,-3.82472 0.30463,-1.80035 0.44727,-3.62439 0.6709,-5.43658 0.15861,-2.26669 0.35727,-4.53093 0.47582,-6.80007 1.3575,-25.98412 -0.88272,11.34858 0.719,-17.24039 0.57881,-10.33099 1.50232,-20.63366 2.42939,-30.93753 1.77646,-16.25942 3.33995,-32.538568 4.88099,-48.821177 0.65727,-7.387315 1.82991,-14.70293 3.38753,-21.9481 0.17664,-0.668539 0.35328,-1.337077 0.52992,-2.005613 0,0 -9.96185,4.775631 -9.96185,4.775631 v 0 c -0.15501,0.674307 -0.31002,1.348613 -0.46503,2.022919 -1.40938,7.211076 -2.32396,14.497939 -2.8594,21.828133 -1.24865,16.198771 -2.70474,32.377267 -4.33238,48.542937 -0.93362,10.34576 -1.88388,20.69189 -2.58458,31.05686 -0.39098,5.78344 -0.58229,11.58006 -1.02937,17.35944 -0.17633,2.27948 -0.45071,4.55031 -0.67607,6.82546 -0.31319,1.80233 -0.50714,3.6295 -0.93956,5.40699 -0.29848,1.22693 -2.50877,3.56757 -1.2461,3.57731 2.98693,0.023 5.54929,-2.2249 8.23931,-3.52337 0.43237,-0.2087 -1.00648,0.47385 -1.42144,0.23238 -1.46657,-0.85339 -3.87634,-5.46693 -4.34882,-6.25994 -10.27738,-18.85047 -20.29954,-37.83933 -30.62921,-56.66137 -3.01635,-5.40172 -8.77032,-15.77021 -11.9828,-21.28573 -3.74071,-6.422421 -7.54844,-13.070331 -12.1409,-18.949267 -0.74136,-0.949034 -1.59951,-1.800741 -2.39927,-2.70111 -3.77624,1.533575 -7.61108,2.930115 -11.32872,4.600731 -0.74813,0.336193 -1.47942,1.864379 -1.72288,2.441091 -1.21026,2.86652 -1.80655,5.976977 -2.94728,8.86783 -3.71165,11.639385 -7.54192,23.248615 -11.97168,34.638195 -3.35253,8.79185 -6.80447,17.54417 -10.20905,26.31523 0,0 10.09607,-4.77018 10.09607,-4.77018 z" />
    <path
       style="fill:#550000;stroke-width:0.264583"
       id="path204"
       d="m -103.81332,58.900414 c -11.78477,4.930433 -23.41676,10.245669 -34.45949,16.695372 -5.77544,3.373252 -11.47569,6.873613 -17.21354,10.310418 -10.92427,7.362169 -19.71013,15.676546 -25.46013,27.717796 -3.09033,6.47157 -3.20836,8.72892 -4.74681,15.56588 -0.0785,2.56127 -0.53641,5.13906 -0.23557,7.68382 1.60549,13.58058 11.29584,25.67671 22.46278,32.90056 3.4771,2.24932 7.34151,3.83417 11.01226,5.75126 11.7667,4.87446 24.184,7.54263 36.83459,8.68374 5.18164,0.4674 12.41363,0.77569 17.73414,-0.0771 2.015548,-0.32306 3.9292,-1.10841 5.893803,-1.66262 0,0 8.280556,-6.40268 8.280556,-6.40268 v 0 c -1.985084,0.66228 -3.903311,1.57612 -5.955255,1.98687 -5.406877,1.08232 -12.744034,0.9429 -18.059684,0.56285 -12.6184,-0.90216 -24.98431,-3.47614 -36.69285,-8.35715 -3.60316,-1.88644 -7.39795,-3.44508 -10.80949,-5.65932 -11.07477,-7.18802 -20.17015,-18.88009 -21.53325,-32.35749 -0.25162,-2.48777 0.1947,-4.99714 0.29205,-7.49571 1.54352,-6.71362 1.65347,-8.88852 4.74757,-15.22853 5.73473,-11.750881 14.70368,-20.058091 25.46273,-27.186394 1.69824,-3.395621 0.26003,-0.74803 8.8198,-5.275681 8.06825,-4.26766 16.43036,-7.97302 24.94478,-11.251329 0,0 8.68101,-6.904572 8.68101,-6.904572 z" />
    <path
       style="fill:#550000;stroke-width:0.264583"
       id="path206"
       d="m -67.16007,72.254416 c 1.457512,14.856722 4.773908,29.452834 8.049233,43.990684 4.287906,17.83783 9.987791,35.78506 21.02562,50.72535 1.872527,2.53456 4.07748,4.80579 6.116219,7.20869 2.133449,1.90026 4.141049,3.95202 6.400348,5.70078 4.978846,3.85377 12.01578,8.22902 18.6489797,7.80656 7.16505163,-0.45634 14.4549435,-7.61246 19.1135983,-10.78796 1.186855,-2.33291 2.636006,-4.55 3.560566,-6.99872 2.305801,-6.10699 3.707902,-14.38195 4.588199,-20.71294 1.711507,-12.30896 2.209934,-24.76107 2.944892,-37.15297 0.276698,-3.62565 0.553397,-7.25131 0.830095,-10.87696 0,0 -8.771765,4.39408 -8.771765,4.39408 v 0 c -0.218657,3.60071 -0.437314,7.20142 -0.655971,10.80213 -0.676638,12.38353 -1.189735,24.82098 -3.098482,37.09566 -1.004733,6.46119 -2.5554269,14.51033 -5.1791376,20.63946 -1.024242,2.39269 -2.6083816,4.50472 -3.9125723,6.75707 1.4591723,-0.36327 5.5109268,-2.07802 4.3775172,-1.08983 -1.3950482,1.21632 -3.4027764,1.60508 -5.2385673,1.84056 -6.5606279,0.84158 -13.606702,-3.36792 -18.596814,-7.07251 -2.267138,-1.68309 -4.287036,-3.67589 -6.430555,-5.51383 -2.044913,-2.34837 -4.256955,-4.56108 -6.13474,-7.04511 -11.132581,-14.72679 -16.784462,-32.59615 -21.050823,-50.30476 -3.149248,-14.647671 -6.387897,-29.450671 -6.588861,-44.49915 0,0 -9.996979,5.093716 -9.996979,5.093716 z" />
    <path
       style="fill:#550000;stroke-width:0.264583"
       id="path208"
       d="m 68.904627,161.39558 c 4.763873,-11.87547 9.805286,-23.63655 14.735659,-35.44325 0.895048,-2.21191 4.194111,-10.3897 5.248013,-12.90583 0.63319,-1.5117 1.189461,-3.06178 1.94918,-4.51402 0.441259,-0.84349 2.489092,-2.76392 1.636578,-2.34035 -9.966836,4.95189 -9.661978,3.10194 -6.944728,8.65524 0.831255,2.14129 1.638856,4.29192 2.493764,6.42389 3.456829,8.6206 5.000524,12.55248 9.585267,21.14631 6.0094,11.26426 13.05033,21.90952 20.20519,32.46121 1.8686,2.35081 5.54475,7.87967 8.88801,9.49396 0.94349,0.45556 2.2203,0.70729 3.13681,0.19961 4.22612,-2.34097 8.43201,-4.9648 11.77031,-8.45708 1.49343,-1.56232 3.16237,-13.28533 3.29483,-14.0418 0.35685,-3.4621 0.75501,-6.92018 1.07055,-10.38628 0.44262,-4.86198 1.50257,-19.3082 1.87817,-23.92119 0.90611,-11.12835 1.92668,-22.24749 2.8475,-33.374741 0.22433,-2.786443 0.44865,-5.572887 0.67298,-8.35933 0,0 -9.09139,4.553775 -9.09139,4.553775 v 0 c -0.15724,2.750545 -0.31448,5.50109 -0.47172,8.251635 -0.74745,11.078711 -1.59149,22.144171 -2.52926,33.208621 -0.29886,3.52615 -1.71921,20.15983 -2.14678,24.01672 -0.38688,3.48982 -0.91158,6.96299 -1.36737,10.44449 -0.60352,2.75042 -1.01677,5.54959 -1.81054,8.25124 -0.56801,1.93327 -3.89894,4.43275 -2.26092,5.60622 1.97552,1.41523 4.69145,-1.31738 6.93107,-2.26059 0.91892,-0.387 -1.98215,0.87148 -2.93496,0.57765 -3.5615,-1.09831 -7.53389,-6.62 -9.43736,-8.77274 -2.13402,-2.97055 -4.35177,-5.88272 -6.40207,-8.91166 -4.82536,-7.12856 -10.08757,-15.6079 -13.97098,-23.2624 -4.58025,-9.02801 -8.014472,-18.52446 -10.939118,-28.19409 -0.553514,-1.32482 -0.230005,-4.09727 -1.660541,-3.97445 -3.965868,0.34049 -7.428918,2.96634 -10.82277,5.0462 -0.771255,0.47265 -0.929672,1.55684 -1.299147,2.3825 -2.515931,5.62235 -4.250817,11.58691 -6.758609,17.21362 -5.025231,12.02476 -10.160376,24.00734 -15.623034,35.84075 0,0 10.127416,-4.65384 10.127416,-4.65384 z" />
    <path
       style="fill:#550000;stroke-width:0.264583"
       id="path210"
       d="m -563.42957,299.01623 c 2.95262,-16.19901 9.32059,-31.55826 15.23881,-46.84341 8.47606,-20.79449 17.97365,-41.37467 30.46445,-60.10923 1.86745,-2.80093 3.9126,-5.47922 5.8689,-8.21884 4.30374,-5.18071 8.33152,-10.82815 13.81374,-14.88079 0.94086,-0.69551 3.93912,-2.51016 3.02633,-1.77819 -7.79317,6.24939 -9.02692,2.54833 -6.15193,7.41655 0.35853,1.75687 0.8111,3.49715 1.07561,5.27062 1.42179,9.53309 1.63819,19.25921 2.1331,28.86736 0.8255,16.02547 0.29924,7.17488 1.36887,23.33326 0.91197,10.03051 2.03856,20.04938 3.67173,29.99072 0.67043,4.08107 1.05841,7.96201 3.20805,11.59497 0.71699,1.21174 1.87348,2.1023 2.81024,3.15347 1.30601,0.41433 2.54823,1.21142 3.91803,1.24306 4.12726,0.0953 8.17007,-2.28428 11.4313,-4.38108 5.19763,-3.34176 10.44569,-6.64448 15.29471,-10.47463 3.38429,-2.67318 10.5187,-11.4719 13.14694,-14.58329 10.1737,-12.40519 18.24267,-26.35905 28.14288,-38.9578 0.78367,-0.73069 3.2893,-2.70933 2.35098,-2.19206 -2.81816,1.55356 -5.7313,3.09866 -8.0477,5.33247 -0.4794,0.46231 0.44352,1.26807 0.51665,1.93004 0.17648,1.59754 0.2068,3.20924 0.2286,4.81635 0.0566,4.17403 -0.1983,12.89293 -0.28829,16.66517 -0.59031,21.3525 -1.05455,42.70833 -1.65041,64.06076 -0.004,2.1764 -0.008,4.35281 -0.0116,6.52922 0,0 9.28688,-4.74845 9.28688,-4.74845 v 0 c -0.0648,-2.13018 -0.12949,-4.26037 -0.19421,-6.39058 0.0447,-21.32833 0.43318,-42.65766 1.50376,-63.96154 0.0537,-1.06706 0.77132,-14.95535 0.81196,-17.0105 0.0345,-1.74522 0.16698,-3.50821 -0.0811,-5.23605 -0.16163,-1.12565 -0.0135,-3.41933 -1.13271,-3.21805 -7.79224,1.4014 -9.2556,3.51162 -13.0852,7.63511 -9.35723,12.72173 -17.40165,26.39691 -27.4673,38.60646 -2.23424,2.58856 -4.37838,5.25774 -6.70277,7.76568 -2.16151,2.33216 -4.9961,4.08979 -6.74584,6.74485 -0.40259,0.61087 2.70865,-0.343 2.1881,0.17103 -1.91431,1.89034 -7.58279,4.55295 -10.60542,4.77898 -1.22423,0.0916 -2.40707,-0.48416 -3.61061,-0.72625 -0.92038,-0.91271 -2.0542,-1.65172 -2.76119,-2.73815 -2.14464,-3.29562 -2.76707,-7.4291 -3.49409,-11.15849 -1.91241,-9.81018 -3.15299,-19.74048 -4.03527,-29.69229 -0.72906,-11.46791 -1.22555,-22.92759 -1.7123,-34.40766 -0.22175,-5.22972 -0.47591,-12.93499 -1.07434,-18.3003 -0.21587,-1.93518 -0.62275,-3.84426 -0.93411,-5.76638 -0.58248,-1.03879 -0.56907,-3.28907 -1.74742,-3.11636 -4.20036,0.61565 -7.85177,3.24286 -11.67701,5.08398 -0.99939,0.48101 -1.89812,1.16111 -2.75677,1.86315 -5.12826,4.19291 -8.99012,9.67812 -13.06643,14.82289 -1.8888,2.73103 -3.86143,5.40593 -5.66637,8.19309 -12.21139,18.85653 -21.45945,39.47402 -30.11233,60.13947 -6.22139,15.67305 -12.72992,31.33165 -16.81554,47.73319 0,0 10.12759,-4.85153 10.12759,-4.85153 z" />
    <path
       style="fill:#550000;stroke-width:0.264583"
       id="path212"
       d="m -341.67749,257.20257 c 4.65185,-6.99652 10.73605,-12.88573 16.64772,-18.7994 6.33169,-6.18313 12.76977,-12.32008 20.21943,-17.16157 1.19756,-0.7783 2.45192,-1.46553 3.67787,-2.19829 -1.94175,1.21304 -4.13864,2.09087 -5.82528,3.63914 -0.84048,0.77149 2.11471,-0.86065 3.19571,-1.22532 2.4959,-0.84197 5.57716,-1.71469 8.1606,-0.57184 0.8441,0.37341 1.50778,1.0651 2.26166,1.59765 0.70702,0.99002 1.52244,1.911 2.12108,2.97007 1.69614,3.00053 2.93331,6.67551 3.85292,9.94808 2.18638,7.78068 3.08671,15.68384 4.00402,23.68782 0.27466,3.67605 0.60484,7.34838 0.82404,11.02818 0.47363,7.95052 0.70059,15.91395 1.10665,23.86819 0.914,17.90462 0.31017,3.30177 0.90281,18.9097 0,0 9.02986,-4.66278 9.02986,-4.66278 v 0 c -0.44072,-6.22795 -0.95396,-12.45111 -1.32937,-18.68334 -0.86813,-14.41146 -0.37627,-9.29503 -1.03058,-23.92463 -0.1669,-3.73148 -0.40386,-7.45949 -0.60579,-11.18923 -0.81222,-8.13254 -1.61878,-16.15592 -3.69454,-24.08618 -0.87566,-3.3453 -2.10841,-7.26279 -3.7475,-10.36927 -0.62082,-1.17662 -1.46704,-2.21973 -2.20057,-3.32959 -0.82484,-0.66459 -1.53927,-1.4964 -2.47449,-1.99377 -6.92862,-3.68475 -20.50894,6.09643 -24.56923,8.26153 -1.19261,0.74567 -2.41152,1.45087 -3.57786,2.23702 -7.34459,4.95055 -13.74248,11.09554 -20.03877,17.2829 -6.07579,6.09809 -12.32847,12.169 -17.15328,19.34352 0,0 10.24289,-4.57859 10.24289,-4.57859 z" />
    <path
       style="fill:#550000;stroke-width:0.264583"
       id="path214"
       d="m -344.90347,252.93306 c -2.64123,5.08318 -5.96099,9.81029 -8.27688,15.06239 -0.56103,1.27235 -1.0236,2.58588 -1.53538,3.87884 -2.68875,7.19135 -4.13041,14.69298 -4.83344,22.31057 -0.38481,3.95859 -0.34729,7.92419 0.1546,11.86458 0,0 9.76553,-5.15226 9.76553,-5.15226 v 0 c -0.61402,-3.82542 -0.59044,-7.68723 -0.21098,-11.54343 0.74261,-7.50988 2.15048,-14.92419 4.88884,-21.99065 0.52462,-1.26807 0.99986,-2.55771 1.57385,-3.80421 2.43991,-5.29845 5.77988,-10.13577 8.69296,-15.17254 0,0 -10.2191,4.54671 -10.2191,4.54671 z" />
    <path
       style="fill:#550000;stroke-width:0.264583"
       id="path216"
       d="m -368.39646,258.82039 c 22.35504,3.16104 44.72106,6.23932 67.05761,9.53219 0,0 7.55412,-5.32537 7.55412,-5.32537 v 0 c -21.87948,-3.06212 -43.76507,-6.22255 -65.43484,-10.55975 0,0 -9.17689,6.35293 -9.17689,6.35293 z" />
    <path
       style="fill:#550000;stroke-width:0.264583"
       id="path218"
       d="m -224.93043,313.58718 c 0.99454,-9.00409 0.81095,-18.08673 1.09744,-27.12776 0.0878,-2.76944 0.239,-5.53651 0.35851,-8.30479 0.74314,-10.69597 2.30514,-21.39981 5.62544,-31.62587 1.97397,-6.07951 2.80599,-7.44799 5.45001,-13.18382 3.73972,-6.93883 7.9394,-13.75716 13.38802,-19.50554 2.4441,-2.57858 3.6287,-3.44176 6.28018,-5.64816 0.97138,-0.62515 3.90752,-2.46504 2.91415,-1.87546 -2.18343,1.29589 -4.5118,2.39761 -6.48537,3.99502 -0.69968,0.56633 1.67933,-0.7023 2.57087,-0.8266 3.66481,-0.51093 5.46657,1.29935 8.06004,3.44744 0.8477,1.11164 1.79696,2.1527 2.54308,3.33491 3.32832,5.27368 5.89765,13.32645 6.23463,19.54749 0.0871,1.60726 -0.11882,3.21704 -0.17823,4.82556 -0.93061,4.73283 -2.97832,8.64763 -6.83843,11.64538 -1.30264,1.01163 -5.02663,4.03178 -4.21084,2.59834 0.89735,-1.57674 4.16566,-1.29615 4.48601,-3.08184 0.27165,-1.51423 -2.83611,1.19299 -4.25416,1.78949 -6.17181,2.77712 -8.53136,3.67904 -15.70799,8.78467 -0.88404,0.62893 -1.41325,1.70259 -1.78442,2.72207 -1.84954,5.07997 1.33626,10.8798 3.06556,15.41235 3.90582,8.47836 8.59735,16.56254 13.37392,24.57114 1.47189,2.46784 5.37711,9.16103 7.61984,11.70511 0.81516,0.92469 1.91367,1.55435 2.8705,2.33151 0,0 9.14452,-5.80613 9.14452,-5.80613 v 0 c -0.99095,-0.6314 -2.13205,-1.07341 -2.97285,-1.89417 -2.63413,-2.57144 -6.29555,-8.58407 -7.99573,-11.3497 -4.85415,-7.89617 -9.39054,-16.01364 -12.9834,-24.57135 -1.17054,-3.50843 -2.9563,-7.58029 -2.91722,-11.45454 0.0113,-1.12241 0.31109,-2.26006 0.79771,-3.27156 0.43588,-0.90602 2.87743,-2.58573 1.90232,-2.34072 -2.36668,0.59468 -4.38001,2.17315 -6.44022,3.48096 -1.13043,0.71759 2.42553,-1.13488 3.6383,-1.70232 8.16697,-3.3849 6.17551,-2.38916 18.06789,-9.18909 2.95687,-1.69071 5.39818,-3.52593 7.36336,-6.35024 2.35922,-3.39062 2.33624,-4.91796 3.27645,-8.84213 0.0178,-1.65449 0.17444,-3.31331 0.0535,-4.96348 -0.46782,-6.38214 -3.07255,-14.58447 -6.37728,-20.06904 -0.76037,-1.26191 -1.72212,-2.39095 -2.58318,-3.58642 -2.14823,-1.9452 -2.90161,-3.07628 -5.6703,-3.97723 -1.89591,-0.61694 -3.82512,-0.63169 -5.63942,0.28048 -9.51785,4.78527 -9.23604,4.73098 -14.94419,8.73055 -2.58373,2.26378 -3.69319,3.11265 -6.06879,5.74434 -5.28602,5.85586 -9.38388,12.6969 -13.01489,19.66211 -2.57084,5.76306 -3.4103,7.19981 -5.31215,13.29688 -3.2124,10.29848 -4.66083,21.05593 -5.42684,31.7842 -1.37666,28.96939 0.51334,-11.60968 -0.66582,16.32633 -0.23755,5.62792 -0.47462,11.32022 -1.3114,16.90042 -0.12407,0.8274 -0.32209,1.642 -0.48313,2.463 0,0 10.08402,-4.83179 10.08402,-4.83179 z" />
    <path
       style="fill:#550000;stroke-width:0.264583"
       id="path220"
       d="m -67.012536,235.34741 c -7.535415,-1.63466 -15.546692,-1.43157 -23.055649,0.32144 -1.82463,0.42597 -3.593787,1.06189 -5.390679,1.59283 -9.172136,4.00662 -6.538156,2.63104 -19.384826,10.40363 -3.1662,1.91564 -6.96773,4.84328 -9.53904,7.50792 -3.70085,3.83518 -4.17008,5.22299 -6.84438,9.74281 -0.63975,1.88548 -1.46831,3.71711 -1.91926,5.6564 -1.87674,8.07085 -0.0865,17.92316 5.42546,24.31351 1.72759,2.0029 3.9938,3.46901 5.9907,5.20348 2.85102,1.39052 5.59328,3.0307 8.55306,4.17156 6.85283,2.64146 14.244339,4.07895 21.444173,5.31542 8.379195,1.43905 16.744849,2.18345 25.221773,2.60951 6.154756,-0.0748 3.337399,0.13028 8.461844,-0.46188 0,0 8.675549,-6.49706 8.675549,-6.49706 v 0 c -5.261223,0.92139 -2.363774,0.5646 -8.713276,0.884 -2.286746,-0.0482 -4.576003,-0.0272 -6.860239,-0.14467 -6.227738,-0.32039 -12.627805,-0.97298 -18.773269,-1.97816 -7.187872,-1.17568 -14.270947,-2.5781 -21.086035,-5.24312 -2.84834,-1.11384 -5.4822,-2.71298 -8.2233,-4.06945 -1.90454,-1.66592 -4.07089,-3.07319 -5.71362,-4.99776 -5.3078,-6.21845 -6.87945,-15.7856 -4.88191,-23.55551 0.48331,-1.87995 1.34312,-3.6424 2.01467,-5.46359 2.75146,-4.43733 3.17463,-5.69139 6.93889,-9.42902 1.43939,-1.4292 3.01501,-2.72145 4.62945,-3.9495 1.60248,-1.21896 3.63352,-1.90683 5.00605,-3.37992 1.01633,-1.0908 -5.37322,2.41368 -3.89893,2.19168 1.86331,-0.28057 3.4193,-1.5846 5.12895,-2.3769 1.77331,-0.56553 3.51526,-1.24097 5.319942,-1.69659 7.164229,-1.80871 15.036618,-2.13867 22.238978,-0.41932 0,0 9.234924,-6.25174 9.234924,-6.25174 z" />
    <path
       style="fill:#550000;stroke-width:0.264583"
       id="path222"
       d="m 297.9512,127.52177 c -12.32905,0.14217 -24.61572,1.66848 -36.71894,3.9734 -3.6358,0.69239 -7.2377,1.55224 -10.85656,2.32836 -3.48074,0.97424 -7.01378,1.77796 -10.44222,2.92272 -3.29863,1.10143 -6.61915,2.22007 -9.71346,3.80732 -11.30321,5.79806 -17.81053,8.70522 -25.15032,18.01674 -6.62601,8.40599 -6.6246,10.95066 -10.17321,20.88093 -0.38726,3.91388 -1.28913,7.81072 -1.16177,11.74165 0.1362,4.20373 0.88313,8.39744 1.94612,12.46684 3.86029,14.77825 12.56397,27.64148 22.48476,39.01366 3.78867,4.34294 8.02347,8.27554 12.0352,12.41331 13.07199,11.46764 13.5593,12.46081 27.7166,22.61465 4.65884,3.34139 9.34555,6.66194 14.24804,9.63435 4.88903,2.96423 9.94929,5.65203 15.09038,8.15371 13.06012,6.35511 15.42902,6.62059 28.76949,10.90158 8.04511,1.56456 13.88386,3.47086 22.05014,2.39757 8.49022,-1.11588 17.2842,-7.42354 23.03902,-12.65052 3.72573,-3.38402 6.25977,-12.16705 7.82222,-16.46245 2.51171,-9.65671 4.44767,-19.81253 2.80855,-29.82814 -1.1703,-7.15104 -4.11668,-14.04059 -7.34907,-20.45104 -1.50495,-2.98464 -3.30451,-5.81138 -4.95678,-8.71707 -7.12097,-10.96912 -14.83106,-21.533 -22.01841,-32.46014 -3.42826,-5.41483 -6.56974,-10.98301 -10.47208,-16.07757 -2.51703,-3.16425 -5.43626,-5.97396 -7.89342,-9.18616 -2.56434,-3.53991 -5.36612,-6.89728 -7.92554,-10.44019 -1.98734,-2.77684 -3.14841,-6.01166 -4.70247,-9.02686 -1.33395,-2.58814 -1.55194,-2.82812 -3.0979,-5.32116 -2.47324,-3.82422 -5.49928,-7.2364 -9.59212,-9.31413 -0.45913,-0.16019 -0.91826,-0.32039 -1.37742,-0.48058 0,0 -9.20594,6.27644 -9.20594,6.27644 v 0 c 0.43445,0.11549 0.86889,0.23097 1.30336,0.34646 4.08358,1.72778 7.03498,4.99461 9.44499,8.65227 1.49064,2.42046 1.74199,2.71183 3.01348,5.23471 1.55665,3.08865 2.69023,6.4124 4.73477,9.23623 2.56693,3.54347 5.35154,6.92533 7.86344,10.51067 2.45896,3.22171 5.45222,5.97823 7.98796,9.13937 3.94993,5.02633 7.21288,10.50762 10.71718,15.84551 3.03088,4.43796 6.0765,8.86022 9.22245,13.218 2.7927,3.8685 5.70553,7.65028 8.45452,11.54997 1.68693,2.39306 3.29208,4.84272 4.93813,7.26408 1.66757,2.85837 3.49666,5.62845 5.00275,8.57511 3.29628,6.44917 6.00852,12.93269 7.10797,20.15765 1.51244,9.93884 -0.46299,19.97802 -3.08173,29.51514 -1.14329,2.93213 -1.99808,5.99381 -3.42993,8.79639 -1.31868,2.58111 -3.93432,4.49259 -4.77636,7.26604 -0.24429,0.80465 3.25702,-0.22098 2.5165,0.1774 -9.61271,5.17162 -20.37408,3.08049 -30.46761,1.02333 -13.54924,-4.08977 -15.75229,-4.21558 -28.97421,-10.55449 -11.52712,-5.52638 -18.94665,-10.20639 -29.35496,-17.61453 -4.84781,-3.45044 -9.62896,-7.00442 -14.23491,-10.77164 -4.58925,-3.75357 -8.88728,-7.84972 -13.33093,-11.77458 -3.962,-4.12928 -8.15651,-8.04743 -11.886,-12.38786 -12.0947,-14.07598 -23.1363,-31.9963 -23.50793,-51.17188 -0.0749,-3.86578 0.84718,-7.68646 1.27077,-11.52969 3.63703,-9.76272 3.672,-12.33445 10.41502,-20.52149 2.3551,-2.85944 5.32292,-5.1535 7.97071,-7.74427 0.13852,-0.13553 0.20932,-0.35681 0.38722,-0.43366 10.57841,-4.56948 8.90803,-3.69587 20.12653,-6.91391 3.60199,-0.78362 7.18485,-1.66101 10.80597,-2.35085 11.67952,-2.22501 23.60302,-3.70498 35.50903,-3.29226 0,0 9.04893,-6.57444 9.04893,-6.57444 z" />
    <circle
       id="path224"
       style="fill:#550000;stroke:#000000;stroke-width:0.264583"
       cx="235.51276"
       cy="187.43517"
       r="0.099906191" />
    <path
       style="fill:#550000;stroke-width:0.264583"
       id="path226"
       d="m 273.80816,183.31205 c -9.44357,0.002 -18.7098,2.05524 -27.82871,4.31189 -7.07982,1.79795 -12.24585,5.23103 -18.53339,9.5254 -0.99762,0.68138 -2.26021,2.77842 -2.34647,4.03481 -0.0483,0.70308 0.3145,1.37394 0.47175,2.0609 0.5797,0.58258 1.02828,1.33521 1.73911,1.74772 4.68972,2.72157 11.75819,-0.0288 16.37496,-1.47052 0,0 8.40883,-6.51963 8.40883,-6.51963 v 0 c -4.08637,1.36054 -11.07151,4.11767 -15.38727,2.19521 -0.54677,-0.24356 -0.90423,-0.78453 -1.35635,-1.1768 -0.25037,-1.6663 -0.52183,-1.59361 0.64235,-3.21302 0.45679,-0.6354 2.35581,-1.96874 1.62179,-1.69745 -2.49637,0.92266 -4.74309,2.41824 -7.06949,3.71092 -2.18586,1.21459 9.85827,-5.14448 6.98695,-2.73157 8.86874,-2.33372 17.96629,-4.55498 27.20518,-4.18757 0,0 9.07076,-6.59029 9.07076,-6.59029 z" />
    <path
       style="fill:#550000;stroke-width:0.264583"
       id="path228"
       d="m 304.8763,199.74235 c -3.61381,3.5902 -4.30678,7.3333 -4.20177,12.24889 0.22913,1.18373 0.36616,2.64401 1.09162,3.68849 1.35419,1.94964 3.97404,2.67476 6.20678,2.78748 1.06093,0.0536 2.12148,-0.11458 3.18223,-0.17187 1.16123,-0.2802 2.35251,-0.45667 3.48371,-0.8406 4.86415,-1.65093 13.63123,-7.68331 15.5642,-9.13113 1.04259,-0.7809 1.58249,-2.07411 2.27449,-3.17771 1.72214,-2.74643 1.83112,-3.44406 2.94621,-6.37434 0.3805,-1.7754 0.95007,-3.13968 0.38296,-4.94753 -0.20958,-0.66811 -0.71588,-1.20363 -1.07381,-1.80545 0,0 -9.58088,5.56637 -9.58088,5.56637 v 0 c 0.28392,0.44313 0.70019,0.82543 0.85177,1.32941 0.46352,1.54087 -0.11208,2.94929 -0.45183,4.43058 -1.0632,2.62521 -1.32223,3.66053 -2.99519,6.06446 -0.72162,1.03692 -3.66472,2.99166 -2.40289,2.93081 2.35754,-0.11369 4.22807,-2.09966 6.35571,-3.12142 2.12704,-1.02146 -8.17163,4.30383 -6.58574,2.5955 -2.54934,0.28483 -6.61818,0.92267 -8.47601,-1.57208 -0.6645,-0.89233 -0.7725,-2.24507 -0.96181,-3.26408 0,-0.73634 -0.0592,-1.47499 0,-2.20902 0.28559,-3.59889 1.89317,-6.95854 4.85032,-9.08811 0,0 -10.45912,4.06135 -10.45912,4.06135 z" />
    <path
       style="fill:#550000;stroke-width:0.264583"
       id="path230"
       d="m 263.19544,120.9758 c 0.0777,-0.66572 0.085,-1.34348 0.23297,-1.99718 1.37235,-6.06224 4.81593,-11.71264 8.90732,-16.31694 1.26201,-1.42023 2.68967,-2.684127 4.03452,-4.026189 0.42667,-0.325583 8.33319,-6.670075 9.36713,-6.239955 1.58977,0.661347 -4.53719,1.357067 -4.17584,3.040571 0.33268,1.549976 2.98161,-1.081426 4.49513,-1.552954 1.27411,-0.396933 2.57541,-0.700651 3.86311,-1.050975 0,0 8.54173,-6.555671 8.54173,-6.555671 v 0 c -2.08984,0.556088 -6.75826,1.712997 -8.59854,2.589324 -1.46071,0.695579 -14.47191,7.227456 -18.72684,10.212977 -1.57027,1.101802 -2.99548,2.397072 -4.49323,3.595602 -1.33538,1.38428 -2.75529,2.69173 -4.00614,4.15285 -4.56106,5.3278 -8.48876,12.19703 -9.42002,19.23294 0,0 9.9787,-5.0844 9.9787,-5.0844 z" />
    <path
       style="fill:#550000;stroke-width:0.264583"
       id="path232"
       d="m 287.72106,120.48531 c 6.14794,-5.11557 12.98133,-9.26489 19.81153,-13.38537 -1.94191,1.20699 -3.88382,2.41399 -5.82571,3.62098 0,0 8.44061,-6.74754 8.44061,-6.74754 v 0 c -4.20494,2.33006 -8.40989,4.66011 -12.61483,6.99017 -6.9555,4.24485 -13.98857,8.48596 -20.13402,13.87818 0,0 10.32242,-4.35642 10.32242,-4.35642 z" />
    <path
       style="fill:#550000;stroke-width:0.264583"
       id="path234"
       d="m 308.2077,131.76548 c 3.25633,-3.92128 6.93256,-7.54136 11.13247,-10.45567 1.64055,-1.13838 3.24125,-2.39998 5.0849,-3.16702 0.88606,-0.36865 -1.41976,1.29166 -2.12963,1.93749 7.45532,-3.19629 15.31842,-5.15439 23.15816,-7.11559 0,0 8.16866,-6.24758 8.16866,-6.24758 v 0 c -7.85527,1.97989 -15.7413,3.92483 -23.27664,6.95971 -6.49835,3.42149 -14.52298,7.06743 -20.84898,11.57741 -4.33054,3.08737 -8.10006,6.89501 -11.57023,10.90127 0,0 10.28129,-4.39002 10.28129,-4.39002 z" />
    <path
       style="fill:#550000;stroke-width:0.264583"
       id="path236"
       d="m 270.19019,248.76418 c 4.01035,7.2521 8.68389,14.10826 13.4955,20.84552 3.00882,3.84876 5.62226,8.1652 9.57667,11.15184 2.16803,1.63746 2.84547,1.78824 5.27421,2.89454 0.96938,0.20926 1.92106,0.53232 2.90817,0.62778 5.53167,0.53494 11.44264,-1.67346 16.4747,-3.68824 1.13787,-0.52469 2.27891,-1.04256 3.4136,-1.57411 3.80048,-1.78035 4.06181,-1.997 8.04802,-3.69086 4.09479,-1.73998 8.24542,-3.31597 12.31643,-5.11326 3.45519,-2.18432 14.63207,-5.80484 15.72332,-12.3903 0.25794,-1.55658 -0.10105,-2.07747 -0.55582,-3.56771 -1.5613,-3.56237 -4.76699,-5.44209 -8.43412,-6.22484 -4.98806,-0.6666 -9.97923,-1.30853 -14.96769,-1.97302 -2.4444,-0.43189 -5.0157,-0.62239 -7.34015,-1.57883 -0.78814,-0.3243 -1.47979,-0.89784 -2.26076,-1.25446 -0.3288,-0.10241 -0.44135,-0.17219 0.2607,0.47921 0.12263,0.11378 0.28445,0.17613 0.42669,0.26419 -3.57187,1.47918 -7.1687,2.89949 -10.71562,4.43753 -0.20104,0.0872 -1.51006,1.20768 -1.53678,1.23001 -0.14828,0.14146 -1.2446,0.92611 -1.01182,1.46538 0.17875,0.41404 0.547,0.7402 0.92302,0.98916 0.029,0.0192 1.04114,0.0522 0.92046,0.17233 -0.37555,1.81194 -1.09649,3.42472 0.32901,4.98375 0.33343,0.36467 0.77647,0.61136 1.16472,0.91704 0.36211,0.21204 0.72991,0.41472 1.08638,0.63614 0.52398,0.32547 0.92266,0.54726 1.27924,1.04328 0.59655,0.82979 0.3497,0.92148 -0.41696,0.43333 2.9292,-1.8236 6.25443,-3.12798 8.78758,-5.47081 0.58245,-0.5387 -1.54885,-0.34508 -2.32585,-0.50547 -3.04863,-0.62934 -6.18548,-1.0663 -9.13154,-2.11267 -0.72308,-0.25682 -1.40462,-0.61827 -2.10695,-0.9274 -0.17016,-0.11995 -1.80131,-0.98017 -1.75146,-1.68767 0.0106,-0.1492 1.22187,-1.31964 1.35495,-1.4639 1.06783,-1.15753 0.75142,-0.68967 1.24304,-2.09616 0.14481,-2.53407 -1.00412,-3.79304 -3.2512,-4.67964 -1.90674,-0.73708 -3.92631,-0.95736 -5.9287,-1.26046 -0.1641,-0.0454 -0.33282,-0.0765 -0.49229,-0.13613 -0.27567,-0.10307 0.30978,-0.15544 0.12195,-0.53015 -0.38362,-0.76528 -0.71001,-0.83924 -1.37983,-1.23496 -1.17356,-0.35439 -2.63247,-0.53865 -3.75965,0.11441 -10.34378,5.99288 -8.17718,2.79044 -10.75756,6.90745 -2.57511,2.4198 -9.34815,5.99121 7.37053,-4.09855 0.31615,-0.19081 -0.6594,0.3344 -1.001,0.47469 -0.6513,0.26746 -1.92762,0.64813 -2.54659,0.84195 -6.52513,1.76882 -11.9733,5.7198 -17.77849,9.11597 0,0 10.38484,-4.03428 10.38484,-4.03428 v 0 c -2.77643,1.5868 -5.54942,3.1796 -8.32927,4.76039 -0.43257,0.24598 0.85146,-0.51576 1.28731,-0.75591 0.52284,-0.28808 2.1777,-1.128 2.73788,-1.35737 0.90342,-0.36991 1.96061,-0.64796 2.89449,-0.91809 0.46646,-0.14405 0.93292,-0.2881 1.39938,-0.43215 0.38999,-0.0988 0.78512,-0.17916 1.16998,-0.29639 4.74589,-1.44565 9.50011,-3.91688 12.73395,-7.70567 3.05972,-2.86866 0.51038,-0.39632 -8.31943,4.51033 -0.25082,0.13939 0.45416,-0.3551 0.70602,-0.49267 0.6106,-0.33357 0.98234,-0.40145 1.67325,-0.4424 0.25416,-0.0151 0.50909,0.0111 0.76361,0.0166 0.17608,0.0489 0.34666,0.12625 0.52825,0.14686 0.0503,0.006 0.11795,-0.11977 0.13382,-0.0717 0.0481,0.14565 -0.0295,0.30865 -0.006,0.46015 0.13274,0.83688 0.46111,1.32776 1.27865,1.59843 1.94947,0.36377 3.97131,0.36809 5.84578,1.10582 1.74993,0.46964 2.82906,0.98065 2.34326,3.04923 -0.59219,1.01536 -1.68572,1.95797 -2.01862,3.09795 -0.54472,1.86538 0.80413,2.71036 2.18414,3.58483 0.75065,0.33524 1.47873,0.72639 2.25189,1.00572 2.94143,1.06268 6.06216,1.46524 9.08807,2.199 0.73599,0.17847 1.46995,0.84626 2.18893,0.60839 3.80132,-1.25767 7.29541,-3.30209 10.94311,-4.95313 0.15293,-2.05499 -1.27127,-3.26443 -3.06263,-4.0313 -0.42601,-0.26847 -1.24423,-0.62162 -1.4011,-1.2305 -0.31801,-1.23444 0.76837,-2.86415 0.35409,-4.14395 -0.22799,-0.48687 -0.33179,-1.06216 -0.94999,-1.22086 -0.57446,-0.14747 -0.85931,0.35643 -0.49519,0.87498 0.28723,0.40903 0.90223,-2.77796 1.11315,-1.00458 0.30554,-0.25249 0.61741,-0.49756 0.91668,-0.75748 0.23386,-0.20312 0.97472,-0.73281 0.68212,-0.63109 -3.56783,1.24036 -12.07151,2.20573 -9.98649,5.35544 0.0617,0.0932 0.19717,0.10518 0.29576,0.15777 0.98859,0.0945 1.49479,0.74164 2.40006,1.128 2.40387,1.02597 5.10902,1.14157 7.63974,1.60845 4.90725,0.64346 9.79278,1.42415 14.6853,2.13431 3.38465,0.35913 6.43599,1.81106 7.82873,5.10614 0.12546,0.51754 0.33308,1.02184 0.37642,1.5526 0.13356,1.63564 -0.82513,3.35843 -1.9295,4.48281 -0.59092,0.60163 -2.72659,1.95019 -1.95906,1.6008 2.27846,-1.03711 4.36179,-2.45813 6.5427,-3.6872 -7.83622,3.61828 -16.04473,6.38254 -23.7164,10.37465 -4.7574,2.02428 -10.771,4.32697 -16.03058,4.13729 -0.93302,-0.0336 -1.84597,-0.28128 -2.76897,-0.42193 -2.3346,-0.96538 -3.04501,-1.10725 -5.14104,-2.5999 -3.97346,-2.82961 -6.57783,-7.09943 -9.59969,-10.82869 -4.79359,-6.64403 -9.51865,-13.43151 -13.0008,-20.87373 0,0 -9.70518,5.46816 -9.70518,5.46816 z" />
  </g>
</svg>
