<?xml version="1.0" encoding="UTF-8" standalone="no"?>
<svg
   xmlns:dc="http://purl.org/dc/elements/1.1/"
   xmlns:cc="http://creativecommons.org/ns#"
   xmlns:rdf="http://www.w3.org/1999/02/22-rdf-syntax-ns#"
   xmlns:svg="http://www.w3.org/2000/svg"
   xmlns="http://www.w3.org/2000/svg"
   xmlns:sodipodi="http://sodipodi.sourceforge.net/DTD/sodipodi-0.dtd"
   xmlns:inkscape="http://www.inkscape.org/namespaces/inkscape"
   version="1.1"
   id="svg985"
   width="195.84"
   height="195.84"
   viewBox="0 0 195.84 195.84"
   sodipodi:docname="logo vectorizado cuadrado rojo.svg"
   inkscape:version="1.0.2 (394de47547, 2021-03-26)">
  <metadata
     id="metadata991">
    <rdf:RDF>
      <cc:Work
         rdf:about="">
        <dc:format>image/svg+xml</dc:format>
        <dc:type
           rdf:resource="http://purl.org/dc/dcmitype/StillImage" />
        <dc:title></dc:title>
      </cc:Work>
    </rdf:RDF>
  </metadata>
  <defs
     id="defs989" />
  <sodipodi:namedview
     pagecolor="#ffffff"
     bordercolor="#666666"
     borderopacity="1"
     objecttolerance="10"
     gridtolerance="10"
     guidetolerance="10"
     inkscape:pageopacity="0"
     inkscape:pageshadow="2"
     inkscape:window-width="1853"
     inkscape:window-height="1025"
     id="namedview987"
     showgrid="false"
     inkscape:zoom="1.2875855"
     inkscape:cx="132.78253"
     inkscape:cy="96.01426"
     inkscape:window-x="67"
     inkscape:window-y="27"
     inkscape:window-maximized="1"
     inkscape:current-layer="g993" />
  <g
     inkscape:groupmode="layer"
     inkscape:label="Image"
     id="g993">
    <path
       style="fill:#000000;stroke-width:0.0483025"
       d="m 53.316858,157.64843 c -2.34957,-1.60119 -3.26316,-4.25408 -2.34781,-6.81759 0.16283,-0.45603 0.52171,-1.18964 0.77377,-1.58175 l 0.15617,-0.24293 -0.13534,-0.29552 c -0.20459,-0.44678 -0.48743,-1.54543 -0.54645,-2.12266 -0.17044,-1.66672 0.14723,-3.34584 0.98496,-5.20635 0.35617,-0.79101 1.60252,-2.63855 2.16994,-3.21665 0.0874,-0.0891 0.0824,-0.0986 -0.12713,-0.23927 -0.12001,-0.0806 -0.36827,-0.24953 -0.5517,-0.37546 l -0.3335,-0.22897 -0.59773,0.053 c -1.42042,0.12598 -2.95442,-0.0704 -4.46452,-0.57155 -0.67192,-0.22298 -1.93788,-0.87999 -2.44944,-1.27119 -2.78209,-2.12763 -3.30313,-5.4851 -1.31477,-8.47217 l 0.3474,-0.52189 -0.14752,-0.3569 c -0.63518,-1.53672 -0.75303,-3.38446 -0.33161,-5.19938 0.71223,-3.06729 2.76531,-5.95463 5.8817,-8.27169 0.71914,-0.53469 1.99004,-1.30321 2.78356,-1.68325 l 0.60186,-0.28824 -0.17063,-1.97214 c -0.0938,-1.08469 -0.94438,-10.839691 -1.89007,-21.677791 -0.94569,-10.838103 -1.69903,-19.709562 -1.67409,-19.714355 0.0249,-0.0048 4.37469,1.826607 9.66612,4.069779 5.29143,2.243169 9.66795,4.092596 9.72561,4.109841 0.0597,0.01784 0.16416,-0.0095 0.24252,-0.06351 0.59392,-0.409172 1.70985,-0.279827 3.20532,0.371515 l 0.41673,0.181504 0.2078,-0.224571 c 0.63315,-0.684238 1.24892,-0.807731 2.24847,-0.450937 0.63339,0.226093 1.6595,0.885759 2.51273,1.615387 0.2676,0.228834 0.29789,0.245895 0.30981,0.174513 0.0301,-0.180514 0.31832,-1.173824 0.46151,-1.590766 l 0.15407,-0.448629 -0.29697,-1.158072 c -0.73377,-2.861546 -1.19475,-5.244462 -1.23148,-6.365916 -0.006,-0.181102 -0.0289,-0.338658 -0.051,-0.350125 -0.0453,-0.02345 -0.87199,0.05369 -1.26709,0.118242 -0.14217,0.02322 -0.27574,0.03329 -0.29683,0.02235 -0.0211,-0.01093 -0.0154,-0.256941 0.0127,-0.546686 l 0.051,-0.526811 -0.92164,-0.06002 c -1.10102,-0.07171 -2.52687,-0.225124 -3.70582,-0.398734 -4.96125,-0.730589 -8.67205,-2.029661 -10.57639,-3.702571 -1.07486,-0.944245 -0.90986,-3.199206 0.45176,-6.173813 0.30581,-0.668068 0.56689,-1.169801 1.22803,-2.359925 l 0.0684,-0.123099 1.16381,0.570125 c 2.12679,1.041866 4.85432,2.002513 8.9267,3.144027 0.74062,0.207599 2.02387,0.580545 2.85167,0.828769 1.08357,0.324919 1.5106,0.435175 1.52477,0.393681 0.0108,-0.0317 0.0831,-0.262153 0.16056,-0.512118 0.20253,-0.653291 0.31392,-0.775192 0.80004,-0.875534 0.48088,-0.09926 1.32986,-0.146232 2.48015,-0.137225 0.49929,0.0039 0.91729,0.0063 0.92889,0.0053 0.0116,-0.001 -0.0345,-0.181126 -0.10235,-0.400265 -0.26095,-0.842266 -0.1767,-2.047333 0.23528,-3.365278 0.10705,-0.342457 0.10521,-0.397271 -0.0416,-1.242956 -0.26197,-1.508611 -0.75974,-5.356105 -1.25862,-9.728406 -0.27793,-2.435791 -0.29115,-2.626927 -0.19731,-2.853334 0.10393,-0.250776 0.38145,-0.491608 0.73882,-0.641152 l 0.31052,-0.129937 -0.048,-0.436123 c -0.11523,-1.046643 -0.65977,-4.343278 -0.81657,-4.943548 -0.08,-0.30625 -0.14116,-0.36438 -0.45456,-0.432057 -0.17483,-0.03775 -0.18284,-0.04819 -0.25249,-0.32907 -0.13754,-0.554604 -0.35629,-2.934561 -0.28051,-3.051843 0.0806,-0.124675 0.39582,-0.247803 0.99716,-0.389434 l 0.58612,-0.138046 -0.061,-0.276774 c -0.31232,-1.417774 -0.77132,-4.821543 -1.15961,-8.599381 -0.10963,-1.066697 -0.11766,-1.102325 -0.2662,-1.182057 -0.18524,-0.09943 -0.3916,-0.279233 -0.63388,-0.552288 -0.1692,-0.190691 -0.17868,-0.22483 -0.14583,-0.525141 0.0634,-0.579893 -0.0632,-1.897186 -0.32651,-3.397831 -0.099,-0.564164 -0.098,-0.6089 0.0177,-0.788827 0.13734,-0.21358 0.24547,-0.270822 1.06623,-0.56446 0.65048,-0.232723 1.43038,-0.386028 1.84868,-0.363397 0.36082,0.01952 0.67676,0.145961 0.85483,0.34211 0.26603,0.293044 1.25853,4.305678 1.20693,4.879627 -0.0123,0.136733 -0.0705,0.256421 -0.24127,0.496447 l -0.22509,0.316278 0.63716,4.769619 c 0.35043,2.62329 0.65108,4.822363 0.66811,4.886828 0.0303,0.114874 0.0404,0.11673 0.50602,0.09316 0.60336,-0.03054 1.07846,0.01011 1.28419,0.109881 0.13112,0.06359 0.16887,0.116075 0.20307,0.282346 0.0394,0.191437 0.24629,2.056479 0.30602,2.758317 0.0182,0.214294 0.0568,0.332888 0.11873,0.365432 0.15182,0.07973 0.54089,0.491084 0.71535,0.756308 0.24131,0.366843 0.38663,0.931923 0.39889,1.551074 0.0283,1.431802 0.39656,3.63004 0.67049,4.002854 0.0632,0.08598 0.23612,0.271766 0.38433,0.412865 0.20701,0.197074 0.28888,0.317832 0.35318,0.520926 0.046,0.145409 0.17619,1.097132 0.28923,2.114939 0.55365,4.98533 1.26823,10.426627 1.44107,10.973343 0.0275,0.08691 0.15066,0.577601 0.27374,1.090422 0.34518,1.438269 0.35045,1.451983 0.71572,1.862432 l 0.32027,0.359872 1.06647,-0.24062 c 2.75644,-0.621915 5.86889,-0.922001 9.268202,-0.893591 1.1399,0.0095 3.39755,0.131244 4.39576,0.23699 l 0.62491,0.0662 0.41549,-0.244077 c 0.65184,-0.382917 1.59337,-1.031227 2.13711,-1.471566 0.63418,-0.513574 1.03044,-0.880855 2.06608,-1.914993 1.26958,-1.267742 1.96045,-1.810022 2.74211,-2.152344 0.83513,-0.365743 1.96529,-0.506642 3.06628,-0.382276 2.70873,0.305968 5.10855,1.495578 6.85786,3.399504 l 0.31557,0.343463 0.61204,0.136292 c 1.09481,0.243799 1.64012,0.292481 2.66393,0.237815 1.17709,-0.06285 1.5719,0.04757 3.03014,0.847488 0.74977,0.411283 1.04473,0.594815 1.29844,0.807902 1.2973,1.089572 2.3187,2.704352 3.19357,5.048864 0.321,0.860235 0.85724,2.744902 1.04746,3.681418 0.0854,0.420384 0.17296,0.839768 0.19461,0.931965 l 0.0394,0.167632 1.14289,0.648431 c 2.9635,1.68137 5.33755,3.344751 7.52752,5.274148 0.64427,0.56762 1.79191,1.643079 2.01172,1.885212 l 0.0863,0.09507 0.17218,-0.58102 c 0.30787,-1.038902 0.27935,-0.978857 0.53972,-1.136251 0.36526,-0.220802 1.20773,-0.402677 1.70539,-0.368162 0.80645,0.05593 1.72528,0.446202 2.33204,0.99052 0.12318,0.110508 0.45392,0.337631 0.73497,0.504717 0.60643,0.360525 0.78138,0.549189 0.89998,0.970531 0.19202,0.682167 -0.29314,1.589465 -2.51264,4.698966 l -0.5094,0.713656 -1.23541,4.176925 -1.23542,4.17692 0.18985,0.13106 c 0.21153,0.14603 0.32034,0.34281 0.30916,0.55912 -0.006,0.12227 -0.19606,0.62031 -0.51568,1.35356 -0.0654,0.15013 -0.061,0.19164 0.0279,0.26182 0.62632,0.49419 1.15614,1.61881 1.22664,2.60371 0.0852,1.19076 -0.25759,2.57211 -0.99693,4.01688 -0.62318,1.21776 -2.52165,3.82212 -2.896,3.97278 -0.1232,0.0496 -0.68051,0.0593 -0.91633,0.016 -0.0815,-0.015 -0.23405,0.63388 -0.41869,1.780361 -0.18369,1.14061 -0.5112,2.77105 -0.71173,3.54321 -0.23487,0.90441 -0.4249,1.41895 -0.7067,1.91353 l -0.24788,0.43505 0.23848,0.0971 c 1.6261,0.66223 26.58127,11.25805 26.55809,11.27641 -0.0174,0.0138 -10.03422,2.8724 -22.25953,6.3524 l -22.22783,6.32728 -0.14509,0.24256 c -0.0798,0.1334 -0.41817,0.73122 -0.75195,1.32848 -1.32871,2.3776 -3.14056,5.42619 -3.87473,6.51957 l -0.44401,0.66124 -0.2324,-1.21085 -0.2324,-1.21086 -0.177,0.21294 c -0.44062,0.53006 -0.95621,0.96786 -1.56037,1.32493 -0.84054,0.49678 -2.20472,0.97583 -3.4337,1.20579 -0.76851,0.1438 -1.86788,0.26818 -1.9579,0.22152 -0.0527,-0.0273 0.0271,-0.17294 0.48602,-0.88659 l 0.5491,-0.85391 -0.43631,0.0606 c -1.43184,0.19896 -2.95832,0.0124 -4.55024,-0.55615 -0.49382,-0.17636 -1.28471,-0.55344 -1.25564,-0.59865 0.008,-0.0123 0.62035,-0.24664 1.36098,-0.52076 l 1.34659,-0.4984 -0.28216,-0.26441 c -0.1552,-0.14542 -0.34881,-0.33484 -0.43027,-0.42092 l -0.14809,-0.15653 -3.42354,0.97372 c -1.88294,0.53554 -3.43941,0.9984 -3.45882,1.02858 -0.0194,0.0302 -0.0228,0.0756 -0.008,0.10096 0.0569,0.095 -0.1313,0.67491 -0.30859,0.95075 -0.16821,0.26158 -1.62237,2.07502 -2.140482,2.66917 -0.85188,0.97689 -1.90526,1.82374 -2.96418,2.383 -0.22617,0.11945 -0.40773,0.22886 -0.40348,0.24312 0.004,0.0143 1.55299,0.3971 3.44164,0.85075 2.675852,0.64273 3.493012,0.85552 3.701662,0.96391 0.82702,0.42967 1.25214,1.28473 1.06505,2.14226 -0.0614,0.28126 -0.10994,0.37102 -0.63207,1.16778 l -0.5656,0.8631 0.11797,0.0269 c 0.65988,0.1502 1.139,0.28478 1.50213,0.42192 0.3116,0.1177 0.54543,0.17209 0.8279,0.19262 0.2673,0.0194 1.62174,0.32235 4.21982,0.94381 3.58389,0.85726 3.84989,0.92762 4.20059,1.11103 0.44204,0.2312 0.68396,0.47458 0.90331,0.90886 0.27694,0.54829 0.256,1.09652 -0.066,1.72766 -0.10377,0.20339 -0.1859,0.37864 -0.18252,0.38944 0.003,0.0108 0.32525,0.22362 0.71529,0.47296 0.39004,0.24932 0.81836,0.55657 0.95184,0.68276 0.47216,0.44638 0.68698,1.1789 0.52738,1.79831 -0.11405,0.44264 -0.36935,0.77658 -1.1031,1.44291 -1.42711,1.29599 -2.64549,2.17299 -3.57545,2.57364 -0.67353,0.29017 -2.16226,0.5469 -3.05551,0.52691 l -0.40413,-0.009 -0.1285,0.19765 c -0.64675,0.99474 -2.89936,4.22192 -3.02634,4.33563 -0.41846,0.37479 -1.08502,0.61388 -1.66156,0.59597 -0.48112,-0.0149 -7.257482,-1.64262 -7.837922,-1.88267 -0.23016,-0.0952 -0.50024,-0.19007 -0.60019,-0.21084 -0.69404,-0.14429 -2.12889,-0.79346 -2.61785,-1.18439 l -0.19097,-0.15269 -0.38407,0.0594 c -0.83023,0.12832 -1.60088,0.12244 -2.38498,-0.0182 -0.74068,-0.13284 -1.17422,-0.28414 -1.975,-0.68924 l -0.73284,-0.37074 -0.28793,0.0199 c -0.80426,0.0555 -1.80464,-0.0598 -2.56608,-0.29578 -0.22947,-0.0711 -0.57205,-0.13812 -0.7613,-0.14895 -0.22506,-0.0129 -1.58701,-0.31744 -3.93687,-0.88039 -3.7386,-0.89563 -3.95562,-0.95988 -4.28874,-1.26962 -0.1058,-0.0984 -0.17353,-0.11364 -0.54732,-0.12336 -0.93613,-0.0243 -1.94873,-0.27525 -2.71618,-0.67307 l -0.44676,-0.23158 -0.52738,0.009 c -0.65658,0.0112 -1.42164,-0.0634 -2.02486,-0.19724 -1.68362,-0.37362 -3.17341,-1.29484 -3.97305,-2.45674 l -0.22231,-0.32303 -0.1629,0.11315 c -0.76166,0.52907 -1.7055,1.02865 -2.60991,1.38145 -0.74849,0.29199 -2.09881,0.61071 -2.85285,0.67339 -2.12786,0.17688 -4.63291,-0.45707 -6.30272,-1.59503 z m 3.95971,-2.88115 c 2.55226,0.83893 5.15544,-0.26111 7.8562,-3.31984 0.5796,-0.65643 1.37384,-1.63251 1.54517,-1.89895 0.0811,-0.12603 0.15948,-0.18972 0.27713,-0.22501 0.55423,-0.16626 5.09386,-1.12001 5.07549,-1.06634 -0.012,0.0352 -0.49756,0.76232 -1.07892,1.61585 -1.10242,1.61853 -1.49418,2.27709 -1.72214,2.89496 -0.33369,0.90444 -0.31502,1.7185 0.0511,2.22527 0.19878,0.27521 0.83671,0.64437 1.2837,0.74288 0.70007,0.15427 1.45503,0.11054 2.08042,-0.12054 0.37754,-0.13949 1.23984,-0.61786 1.31771,-0.73101 0.0231,-0.0335 0.0242,0.0435 0.003,0.1712 -0.1358,0.80101 0.15564,1.29967 0.9111,1.55891 0.73732,0.25302 1.50323,0.0368 2.35582,-0.66487 0.25517,-0.21002 0.39911,-0.27689 0.31736,-0.14743 -0.0617,0.0977 -0.0805,0.5631 -0.0317,0.78287 0.17133,0.771 1.15288,1.16781 2.3334,0.94332 0.36891,-0.0701 0.90949,-0.27516 1.3297,-0.50428 l 0.26098,-0.1423 -0.4161,0.59026 c -0.32042,0.45453 -0.4036,0.59674 -0.36176,0.61843 0.0795,0.0412 2.40667,0.60083 2.46267,0.5922 0.0261,-0.004 0.827,-1.13656 1.77973,-2.51675 1.81222,-2.6253 2.0491,-2.93237 2.84797,-3.69191 0.56343,-0.53569 1.09497,-0.79376 1.31521,-0.63857 0.22095,0.1557 0.002,0.51013 -1.57611,2.54945 -1.36163,1.75978 -2.00371,2.83894 -2.11385,3.55288 -0.11188,0.72515 0.0503,1.06892 0.62453,1.32405 0.93951,0.41742 2.32883,0.13639 3.52588,-0.7132 l 0.29231,-0.20747 -0.0254,0.36828 c -0.03,0.43448 0.0964,0.925 0.31115,1.20738 0.31428,0.41328 1.00664,0.70304 1.61823,0.67726 0.75595,-0.0319 1.81681,-0.5444 3.01011,-1.45426 l 0.35785,-0.27286 -0.0201,0.37427 c -0.0369,0.68783 0.25814,1.49552 0.71868,1.9671 0.25658,0.26273 0.94788,0.62034 1.41334,0.73109 1.54148,0.36688 3.275722,-0.0254 5.007902,-1.13279 l 0.43471,-0.27791 -0.3284,0.46396 c -0.80545,1.13794 -1.3582,1.96481 -1.32484,1.98186 0.0593,0.0302 2.46798,0.60092 2.50201,0.59274 0.0172,-0.004 1.05113,-1.49702 2.29763,-3.31752 1.2465,-1.8205 2.27344,-3.31682 2.28208,-3.32517 0.009,-0.008 0.0184,0.12753 0.0217,0.30195 0.007,0.39082 0.0629,0.60895 0.21721,0.85408 0.25265,0.40143 0.76495,0.65006 1.38423,0.67179 0.43994,0.0154 1.60286,-0.25433 2.1339,-0.49501 0.39119,-0.1773 1.19771,-0.61165 1.23328,-0.66419 0.0108,-0.0159 -0.12278,-0.0238 -0.29672,-0.0176 -1.40343,0.0499 -1.92504,-0.75259 -1.37216,-2.11109 0.0963,-0.2365 0.16288,-0.43487 0.14807,-0.44083 -0.0148,-0.006 -0.58807,0.16153 -1.2739,0.37219 -0.68583,0.21066 -1.29275,0.39244 -1.34871,0.40394 -0.0901,0.0185 -0.0639,-0.0344 0.22974,-0.46423 0.25523,-0.37355 0.31858,-0.49184 0.2753,-0.51428 -0.0832,-0.0431 -2.39856,-0.59853 -2.44813,-0.58723 -0.0233,0.005 -0.79295,1.10555 -1.71024,2.44497 l -1.66779,2.4353 -0.35053,0.27076 c -1.00631,0.77728 -2.44211,1.44901 -3.343642,1.5643 -0.72663,0.0929 -1.39642,-0.0205 -1.73377,-0.29359 -0.24271,-0.19648 -0.35134,-0.56634 -0.30964,-1.05424 0.0299,-0.35008 0.18307,-0.9858 0.27008,-1.1211 0.0279,-0.0433 0.15079,-0.0293 0.43063,0.0491 0.4729,0.13251 1.19041,0.18668 1.682782,0.12703 0.4297,-0.0521 1.10296,-0.22596 1.51549,-0.39149 0.43684,-0.17527 1.21554,-0.67172 1.57021,-1.00104 0.39323,-0.36515 0.948,-1.13749 1.12697,-1.56898 0.2585,-0.62321 0.19225,-1.35451 -0.16204,-1.78889 -0.5244,-0.64292 -2.20223,-0.93906 -3.61878,-0.63871 -1.461642,0.3099 -2.842162,1.10655 -3.912292,2.25765 -0.4049,0.43553 -1.06893,1.45932 -1.29135,1.99098 -0.15022,0.35907 -0.15448,0.36451 -0.49999,0.63925 -0.44598,0.35462 -1.31315,0.88709 -1.58976,0.97615 -0.11768,0.0379 -0.32099,0.0586 -0.4518,0.0459 -0.20468,-0.0198 -0.24978,-0.0387 -0.32349,-0.1361 -0.10925,-0.14429 -0.10934,-0.35762 -3.1e-4,-0.73121 0.0726,-0.24882 0.18091,-0.44057 0.66875,-1.18426 0.87954,-1.3408 2.8326,-4.13681 2.89957,-4.15103 0.0324,-0.007 0.50547,0.0959 1.05116,0.22848 0.54569,0.13255 1.00117,0.23883 1.01216,0.23619 0.0195,-0.005 0.34922,-1.07414 0.34272,-1.11176 -0.002,-0.0105 -0.38889,-0.11068 -0.86017,-0.22266 -0.47127,-0.11198 -0.85759,-0.2093 -0.85847,-0.21626 -8.9e-4,-0.007 0.56894,-0.84542 1.26627,-1.86323 0.69734,-1.01782 1.26432,-1.86252 1.25997,-1.87712 -0.007,-0.023 -1.89036,-0.49227 -2.33795,-0.58253 l -0.16038,-0.0323 -1.07795,1.56731 c -0.59287,0.86202 -1.18207,1.70517 -1.30933,1.87366 l -0.23138,0.30635 -0.64256,-0.15843 c -0.3534,-0.0871 -0.66334,-0.15424 -0.68874,-0.14912 -0.0387,0.008 -0.36544,1.01282 -0.35378,1.08829 0.002,0.0137 0.20949,0.0762 0.46083,0.13901 0.25135,0.0628 0.46177,0.13015 0.46762,0.14974 0.006,0.0196 -0.64579,0.97532 -1.44808,2.12382 -0.97046,1.38924 -1.54367,2.24526 -1.71253,2.55744 -0.22905,0.42345 -0.27658,0.48608 -0.48697,0.64172 -0.51988,0.3846 -1.51778,0.48283 -1.64986,0.16241 -0.10322,-0.25038 0.32083,-0.92267 1.66749,-2.64364 1.13759,-1.4538 1.80689,-2.45011 2.01335,-2.99706 0.0707,-0.18738 0.14185,-0.5059 0.15805,-0.70783 0.0376,-0.4681 -0.0829,-0.69115 -0.48632,-0.90025 -0.79743,-0.41336 -1.70579,-0.27362 -2.90444,0.4468 l -0.44578,0.26793 0.46208,-0.66906 c 0.27913,-0.40415 0.44575,-0.67754 0.42081,-0.69046 -0.0565,-0.0293 -2.45877,-0.60458 -2.48884,-0.59601 -0.0132,0.004 -0.97938,1.40234 -2.14697,3.10793 -2.47501,3.61544 -2.35339,3.47116 -3.095,3.6716 -0.35601,0.0962 -0.5528,0.0924 -0.7597,-0.0149 -0.23588,-0.12228 -0.27122,-0.30895 -0.12591,-0.66507 0.12001,-0.29409 0.4309,-0.75166 3.53586,-5.20404 0.49131,-0.70453 0.8861,-1.29071 0.87729,-1.30263 -0.0182,-0.0247 -2.4306,-0.60709 -2.47265,-0.59698 -0.0151,0.004 -0.97137,1.34976 -2.12509,2.9914 -1.9786,2.81539 -2.1173,3.00282 -2.4435,3.30224 -0.77365,0.71011 -1.10391,0.79327 -1.04029,0.26196 0.0279,-0.23281 0.047,-0.26471 1.09182,-1.82609 0.58489,-0.87402 1.58878,-2.35134 2.23087,-3.28292 0.64208,-0.93158 1.16551,-1.70238 1.16317,-1.71288 -0.004,-0.0196 -2.4592,-0.61483 -2.49452,-0.60486 -0.0108,0.003 -0.96397,1.37102 -2.11818,3.03995 l -2.09856,3.03442 -0.39791,0.33427 c -0.73419,0.61678 -1.20714,0.84613 -1.59547,0.77369 -0.2263,-0.0422 -0.31264,-0.12681 -0.35674,-0.34959 -0.095,-0.47983 0.31847,-1.32484 1.42089,-2.9039 1.02303,-1.46536 3.88392,-5.66935 6.39446,-9.39647 0.72561,-1.07722 1.44212,-2.12679 1.59224,-2.33238 0.23903,-0.32733 0.2641,-0.37838 0.20164,-0.41075 -0.0616,-0.0319 -3.12459,-0.78027 -3.16373,-0.77296 -0.008,0.001 -1.32172,1.92803 -2.91949,4.28121 l -2.90505,4.27851 -0.35619,0.0796 c -0.1959,0.0438 -1.36989,0.30187 -2.60886,0.57352 l -2.25268,0.49391 0.24437,-0.31942 c 0.1344,-0.17568 0.87138,-1.25485 1.63773,-2.39816 0.76635,-1.1433 1.60883,-2.37134 1.87219,-2.72896 1.87414,-2.545 3.16294,-3.62875 4.32335,-3.63552 0.2347,-0.001 0.26152,-0.0119 0.22421,-0.0877 -0.0817,-0.16612 -0.7149,-0.76385 -1.12513,-1.06211 -0.6059,-0.44053 -1.84532,-1.03577 -2.74022,-1.31601 -2.54,-0.79542 -4.93452,-0.90902 -7.41665,-0.35187 -2.62576,0.5894 -4.69795,1.7734 -6.62235,3.78387 -0.48495,0.50663 -1.43627,1.8843 -1.70845,2.4741 -0.74954,1.6242 -0.89987,3.18137 -0.42053,4.35572 0.20127,0.49312 0.68679,1.16095 1.11173,1.52918 0.2797,0.24238 0.4059,0.31825 0.99761,0.59974 1.2604,0.59959 2.26288,0.73433 3.43087,0.4611 0.84232,-0.19705 1.41327,-0.5427 1.82383,-1.10413 0.56701,-0.77537 0.61538,-1.68742 0.11819,-2.22827 -0.53719,-0.58436 -1.45036,-0.82836 -2.27463,-0.60779 -0.57137,0.15291 -0.91318,0.40862 -1.0921,0.81702 -0.0696,0.15882 -0.0684,0.19578 0.007,0.20502 0.18804,0.0232 0.87566,0.36172 1.01062,0.49756 0.36596,0.36832 0.3609,0.87928 -0.0121,1.21955 -0.36739,0.33517 -0.88477,0.35345 -1.39995,0.0494 -0.36619,-0.21608 -0.55762,-0.46435 -0.71914,-0.93268 -0.36283,-1.05198 -0.12928,-2.58294 0.65929,-4.32184 0.23399,-0.51598 1.13312,-1.91351 1.54266,-2.39772 1.48692,-1.75819 3.07444,-2.81285 5.0374,-3.34659 1.6154,-0.43923 3.11825,-0.43027 4.93054,0.0294 1.16518,0.29553 2.43993,0.78316 2.82827,1.08192 l 0.17201,0.13234 -0.30425,0.014 c -1.56388,0.0722 -3.24818,1.08076 -5.04032,3.0182 -1.15541,1.24909 -2.02722,2.45515 -5.6466,7.81156 -0.66912,0.99024 -1.40966,2.04129 -1.64566,2.33567 -1.55568,1.94052 -2.65328,2.52742 -3.69429,1.97538 -0.45888,-0.24334 -0.57715,-0.7608 -0.26299,-1.15056 0.39554,-0.49073 1.06717,-0.5679 1.48193,-0.17028 0.0976,0.0935 0.19139,0.17757 0.20851,0.18676 0.0629,0.0337 0.43591,-0.33113 0.59757,-0.58449 0.27452,-0.43021 0.25204,-0.87763 -0.0638,-1.27076 -0.18334,-0.22817 -0.80413,-0.59556 -1.20931,-0.71567 -0.71,-0.21048 -1.70995,-0.10775 -2.27836,0.23408 -0.22842,0.13736 -0.31568,0.22521 -0.54891,0.55262 -0.83889,1.17762 -0.78082,2.38979 0.15271,3.18815 0.29661,0.25366 0.92749,0.58287 1.4395,0.75116 z m -1.35604,-0.80169 c -0.44595,-0.39704 -0.66698,-0.79809 -0.71633,-1.29975 -0.0557,-0.56661 0.15839,-1.23512 0.58026,-1.81145 0.17789,-0.24302 0.2862,-0.34312 0.52934,-0.4892 0.77924,-0.46817 2.01329,-0.43115 2.85587,0.0857 0.40449,0.24811 0.58065,0.46015 0.65373,0.78688 0.089,0.39801 -0.0228,0.69703 -0.40115,1.07296 l -0.1775,0.17634 -0.14177,-0.11464 c -0.55647,-0.44996 -1.25836,-0.38352 -1.68469,0.15949 -0.14568,0.18553 -0.18059,0.26796 -0.1965,0.46397 -0.0215,0.26524 0.13164,0.58676 0.36524,0.76669 0.16589,0.12777 0.62191,0.27098 0.90141,0.28309 0.21437,0.009 0.68534,-0.10229 0.9303,-0.22038 0.58752,-0.28324 1.63522,-1.3073 2.39095,-2.33702 0.16227,-0.22109 0.33009,-0.43732 0.37295,-0.48051 l 0.0779,-0.0785 1.08076,0.56023 c 0.59442,0.30813 1.07164,0.57442 1.06049,0.59175 -0.074,0.11516 -1.2266,1.13444 -1.57126,1.38958 -2.13453,1.58013 -4.18954,1.89151 -6.16215,0.9337 -0.36842,-0.17888 -0.62489,-0.3294 -0.74787,-0.43889 z m 13.61361,1.13466 c -0.13566,-0.13579 -0.37914,-0.52471 -0.35347,-0.56462 0.005,-0.008 0.51704,0.24878 1.13763,0.57047 0.68822,0.35676 1.10912,0.5942 1.07904,0.60873 -0.0271,0.0131 -0.24944,-0.004 -0.49404,-0.0381 -0.53003,-0.0738 -1.11149,-0.31861 -1.36916,-0.57651 z m -12.32293,-6.65506 c -0.13457,-0.11195 -0.24918,-0.21863 -0.25468,-0.23707 -0.006,-0.0184 0.50368,0.23519 1.13152,0.56362 1.08692,0.56855 1.12712,0.59328 0.84037,0.51626 -0.45552,-0.12236 -1.42051,-0.59597 -1.71721,-0.84281 z m 17.21489,7.84112 c -0.54173,-0.39442 -0.50022,-1.2797 0.11076,-2.36258 l 0.25955,-0.46001 1.01632,0.52683 1.01632,0.52683 -0.079,0.17242 c -0.1022,0.22305 -0.0582,0.54921 0.0841,0.62295 0.14027,0.0727 0.33557,0.0144 0.62178,-0.18574 l 0.23382,-0.16349 1.78579,0.9257 1.78581,0.92571 -0.0882,0.0732 c -0.17857,0.1481 -0.85521,0.42467 -1.27884,0.52273 -0.28792,0.0666 -0.57648,0.0914 -0.85005,0.0728 -1.17444,-0.0795 -1.65885,-0.70683 -1.35711,-1.75744 0.0433,-0.15072 0.0852,-0.30634 0.0932,-0.34582 0.008,-0.0395 -0.15499,0.0782 -0.36211,0.26152 -0.69374,0.61402 -1.10054,0.85285 -1.62134,0.95188 -0.46568,0.0886 -0.98756,-0.0285 -1.37072,-0.30749 z m 6.78869,1.08101 c 0.25977,-0.37136 0.6134,-0.86962 0.78583,-1.10724 l 0.31352,-0.43203 0.9922,0.51432 0.9922,0.51433 -0.59754,0.86615 c -0.32865,0.47638 -0.60178,0.86634 -0.60697,0.86658 -0.005,2.1e-4 -0.50302,-0.11763 -1.10628,-0.26192 -0.60327,-0.1443 -1.13024,-0.26745 -1.17107,-0.27368 -0.0623,-0.009 0.002,-0.12012 0.39811,-0.68651 z m 4.39433,1.48946 c -0.18288,-0.25364 -0.19666,-0.70251 -0.0367,-1.19439 l 0.0405,-0.12437 1.41604,0.73403 1.41604,0.73403 -0.15867,0.0814 c -0.0873,0.0448 -0.36349,0.12524 -0.61382,0.17885 -0.88288,0.18905 -1.75685,0.0156 -2.06337,-0.40953 z m 4.76664,1.2098 c -0.58104,-0.51846 -0.62855,-1.40803 -0.13534,-2.53444 0.10372,-0.2369 0.22575,-0.48876 0.27117,-0.55969 l 0.0824,-0.12904 1.03177,0.53483 1.03176,0.53484 -0.10314,0.22399 c -0.11975,0.26004 -0.17231,0.61126 -0.1209,0.80787 0.11885,0.45453 0.80082,0.45971 1.57885,0.012 l 0.31189,-0.17949 0.20859,0.10813 0.20859,0.10812 -0.32664,0.244 c -1.5547,1.16137 -2.67688,1.49977 -3.59065,1.08278 -0.18508,-0.0845 -0.38701,-0.1986 -0.44871,-0.25368 z m 5.6538,1.23112 c -0.4103,-0.33012 -0.75694,-0.99001 -0.82906,-1.5783 -0.0626,-0.51066 0.0168,-1.11643 0.22691,-1.73137 l 0.0959,-0.2806 1.15997,0.60129 1.15999,0.6013 -0.0431,0.22869 c -0.14356,0.76168 -0.0406,1.3151 0.29468,1.58461 0.54231,0.43587 1.63901,0.48018 2.728152,0.11022 l 0.4416,-0.15001 0.2378,0.12327 c 0.13079,0.0678 0.22892,0.13708 0.21806,0.15395 -0.0394,0.0612 -0.81025,0.44452 -1.19483,0.59409 -0.726652,0.28262 -1.750052,0.46291 -2.435672,0.42908 -0.68857,-0.034 -1.64605,-0.35286 -2.06039,-0.68622 z m 5.551712,0.93271 c 0.26223,-0.3775 0.79376,-1.14038 1.18118,-1.6953 0.38741,-0.55492 0.7589,-1.09365 0.82553,-1.19718 l 0.12107,-0.18828 0.99402,0.51527 0.99401,0.51527 -0.86278,1.28357 c -0.47452,0.70597 -0.98427,1.44653 -1.13277,1.64569 l -0.26999,0.36211 -0.68821,-0.16552 c -0.37851,-0.091 -0.90212,-0.21587 -1.16356,-0.27741 l -0.47535,-0.11191 0.47678,-0.68635 z m -2.963072,-4.80804 c 0.17892,-0.42703 1.00529,-1.55564 1.621672,-2.21481 0.94294,-1.00838 1.83278,-1.50405 2.28202,-1.27118 0.31253,0.16201 -0.0328,1.10265 -0.71972,1.96033 -1.06326,1.3276 -2.447762,2.10547 -3.123762,1.75505 -0.1141,-0.0591 -0.12081,-0.0847 -0.0602,-0.22939 z m -48.54003,-24.5678 c 1.48726,0.49468 3.08312,0.41944 4.49911,-0.21214 l 0.28855,-0.1287 0.11821,0.16362 c 0.2276,0.31501 0.62122,0.73344 1.03045,1.09539 0.39232,0.347 0.45868,0.38873 1.34116,0.84356 0.85883,0.44266 0.9654,0.48732 1.42197,0.59609 3.45463,0.82298 7.53317,-0.77228 10.91104,-4.26769 1.80267,-1.8654 3.17049,-4.14212 3.81325,-6.34709 0.57521,-1.97325 0.55933,-3.84957 -0.0472,-5.57298 -0.97312,-2.76517 -3.58649,-4.76449 -7.60157,-5.81549 -2.71947,-0.71185 -4.93878,-0.76802 -7.49337,-0.18964 -2.54808,0.5769 -4.77625,1.78021 -6.64392,3.58799 -0.81447,0.78836 -1.13695,1.18281 -1.74493,2.13432 -0.4845,0.75824 -0.59172,0.95698 -0.8133,1.50741 -0.72889,1.81064 -0.71446,3.51635 0.0403,4.77015 0.67976,1.12916 1.70056,1.81595 3.28404,2.20951 1.53547,0.38163 3.17052,0.0541 4.08492,-0.8182 0.46241,-0.44113 0.75786,-1.05175 0.79484,-1.6427 0.027,-0.43159 -0.044,-0.6843 -0.28185,-1.00346 -0.17753,-0.2382 -0.2644,-0.31087 -0.60358,-0.50491 -0.66039,-0.37779 -1.25763,-0.45478 -2.00353,-0.25827 -0.54759,0.14427 -0.78293,0.30312 -1.0338,0.6978 -0.10819,0.1702 -0.19172,0.32616 -0.18564,0.34657 0.006,0.0204 0.11645,0.064 0.24525,0.0969 0.31131,0.0794 0.75288,0.30794 0.94077,0.48682 0.18946,0.18037 0.3434,0.56131 0.3129,0.77432 -0.032,0.22337 -0.23373,0.51688 -0.45137,0.65661 -0.38515,0.24728 -0.84882,0.23403 -1.36611,-0.039 -0.48716,-0.25717 -0.76846,-0.65813 -0.95345,-1.35908 -0.39661,-1.50283 0.0389,-3.5319 1.22658,-5.71404 1.01603,-1.86685 2.62737,-3.42572 4.4334,-4.28902 1.94934,-0.93181 3.71707,-1.16974 5.82004,-0.78339 2.00144,0.36771 3.46487,1.10193 4.9375,2.4772 0.34419,0.32143 0.71604,0.75447 0.68684,0.79987 -0.01,0.0147 -0.13509,-0.003 -0.2792,-0.0391 -0.1441,-0.0362 -0.48184,-0.0774 -0.75052,-0.0915 -1.92597,-0.10136 -4.06962,1.10532 -6.32574,3.56084 -1.23563,1.34483 -2.38573,2.84097 -4.69159,6.10319 -1.10862,1.56842 -1.52879,2.12538 -2.21843,2.94065 -1.3979,1.65256 -2.46859,2.41104 -3.34292,2.36815 -0.37198,-0.0182 -0.79666,-0.16101 -0.98607,-0.33148 -0.19953,-0.17959 -0.30509,-0.54281 -0.23062,-0.79357 0.11486,-0.3868 0.60522,-0.74343 1.06618,-0.77541 0.27885,-0.0193 0.6866,0.15076 0.86505,0.36091 0.12336,0.14527 0.12777,0.14673 0.22592,0.0749 0.20572,-0.15055 0.51499,-0.5164 0.60151,-0.71156 0.18149,-0.40934 0.12356,-0.86227 -0.15857,-1.24001 -0.16642,-0.22281 -0.21891,-0.26092 -0.70956,-0.51509 -0.40114,-0.20793 -0.60038,-0.28704 -0.82032,-0.32623 -1.14736,-0.20444 -2.22035,0.0783 -2.74917,0.72446 -0.10774,0.13164 -0.29307,0.41983 -0.41184,0.64041 -0.87353,1.6223 -0.13616,3.07212 1.90832,3.75214 z m -1.33069,-0.79068 c -0.33727,-0.28121 -0.57891,-0.61673 -0.70827,-0.98342 -0.14501,-0.41107 -0.16186,-0.77126 -0.0575,-1.228 0.0739,-0.3231 0.12653,-0.43328 0.45033,-0.94213 0.34494,-0.54208 0.38184,-0.58562 0.62234,-0.73439 0.88645,-0.54832 2.2599,-0.53581 3.18256,0.029 0.7736,0.47356 0.97634,1.09116 0.56686,1.72679 -0.099,0.1537 -0.24307,0.33504 -0.32013,0.40297 -0.13001,0.11463 -0.14638,0.11661 -0.22724,0.0276 -0.1266,-0.13945 -0.54151,-0.34293 -0.74782,-0.36674 -0.54704,-0.0631 -1.20955,0.3578 -1.36114,0.8648 -0.0839,0.28054 0.0466,0.6738 0.29303,0.8829 0.37489,0.31817 1.07788,0.43192 1.64472,0.26615 0.78532,-0.22967 1.83981,-1.10816 2.92534,-2.43709 0.24187,-0.2961 0.47441,-0.5739 0.51677,-0.61734 l 0.077,-0.079 1.20929,0.62685 1.20928,0.62686 -0.20603,0.19708 c -0.38212,0.36553 -1.13626,0.97996 -1.55464,1.26664 -0.2286,0.15664 -0.4201,0.31003 -0.42554,0.34086 -0.0149,0.0842 0.46451,0.62696 0.85573,0.96894 0.94112,0.82269 1.88876,1.24166 2.92835,1.29471 1.09703,0.056 2.45004,-0.29149 3.6092,-0.92689 l 0.41458,-0.22726 0.9277,0.4809 0.92771,0.48089 -0.24289,0.12513 c -2.32201,1.19619 -4.83191,1.50601 -6.90084,0.85183 -0.70024,-0.22141 -1.73502,-0.8147 -2.30557,-1.32188 -0.23914,-0.21259 -0.57393,-0.55698 -0.74398,-0.76532 -0.17005,-0.20833 -0.33359,-0.40261 -0.36343,-0.43173 -0.0359,-0.0351 -0.20261,0.008 -0.49374,0.12706 -1.67109,0.68439 -3.39585,0.6589 -4.92707,-0.0728 -0.36458,-0.17422 -0.61667,-0.32183 -0.77503,-0.4539 z m 8.70342,1.30583 c -0.40114,-0.27632 -0.98451,-0.79647 -1.2722,-1.13434 l -0.24382,-0.28635 0.35599,-0.24201 c 1.91862,-1.30434 3.93151,-3.57416 6.92995,-7.8145 2.36864,-3.34968 4.01128,-5.20493 5.19331,-5.86549 0.3894,-0.2176 0.93406,-0.41814 1.01822,-0.37489 0.12201,0.0627 0.52209,0.91966 0.68458,1.46635 0.62705,2.10968 0.22061,4.87093 -1.10858,7.53135 -1.36867,2.73942 -3.30726,4.97596 -5.44388,6.28055 -0.78638,0.48014 -1.43162,0.76644 -2.16587,0.961 -1.49031,0.39489 -2.88461,0.21064 -3.9477,-0.52167 z m -6.81883,-7.01699 c -0.16416,-0.11214 -0.0459,-0.0632 0.43775,0.18124 0.36448,0.18418 0.64999,0.33746 0.63477,0.34016 -0.0615,0.0116 -0.86187,-0.3775 -1.07252,-0.5214 z m 37.43729,19.69111 4.16174,0.99993 0.55075,-0.79835 c 0.30291,-0.43909 0.69455,-0.99636 0.8703,-1.23837 0.31603,-0.43516 0.31817,-0.43989 0.19398,-0.42794 -0.0691,0.007 -0.34839,0.0339 -0.62071,0.0606 -0.9995,0.098 -2.2191,-0.0453 -3.14499,-0.36931 -0.29518,-0.10332 -0.48783,-0.13923 -0.72579,-0.13529 -0.39557,0.007 -0.1185,0.0634 -2.66788,-0.54783 -1.17504,-0.28174 -2.15317,-0.50823 -2.17362,-0.50332 -0.0205,0.005 -0.31307,0.41437 -0.65028,0.90988 l -0.61311,0.90092 0.32894,0.0746 c 0.18091,0.041 2.20172,0.52454 4.49067,1.0745 z m -16.27661,-10.56197 c 0.23565,0.0139 0.4909,-0.0117 0.67695,-0.0681 0.36162,-0.10955 1.02,-0.4927 1.37056,-0.7976 0.23098,-0.2009 0.37667,-0.27017 0.29249,-0.13906 -0.0665,0.10336 -0.086,0.67966 -0.031,0.91014 0.0889,0.37225 0.31939,0.61738 0.77786,0.82707 0.3301,0.15099 0.4357,0.17531 0.86834,0.20003 1.00246,0.0573 2.1217,-0.35544 3.1889,-1.17588 0.20243,-0.15563 0.37843,-0.28545 0.39111,-0.2885 0.0127,-0.003 0.0238,0.10066 0.0248,0.23047 0.004,0.60582 0.32814,1.39418 0.75454,1.83733 0.23097,0.24005 0.30384,0.28758 0.81758,0.53333 0.50053,0.23943 0.6248,0.28029 1.10417,0.36313 0.77715,0.13429 1.4352,0.10201 2.35979,-0.11578 1.02675,-0.24186 1.94891,-0.65899 2.91276,-1.31756 0.29413,-0.20097 0.3588,-0.31262 -0.74024,1.27787 -0.44277,0.64075 -0.802,1.17514 -0.79831,1.18752 0.004,0.0124 0.53104,0.14906 1.17188,0.30372 0.64083,0.15467 1.24834,0.30171 1.35,0.32677 l 0.18485,0.0455 0.37717,-0.53072 c 0.20745,-0.29189 0.75034,-1.08642 1.20644,-1.7656 0.4561,-0.67919 0.83633,-1.23677 0.84496,-1.23907 0.009,-0.002 -0.0261,0.30076 -0.0772,0.67347 -0.0511,0.3727 -0.0955,0.80707 -0.0988,0.96525 -0.0178,0.86117 0.15805,1.64524 0.46947,2.0937 0.17052,0.24557 0.20753,0.2747 0.55303,0.43553 0.49666,0.23119 0.95067,0.25807 1.69622,0.10045 1.06404,-0.22497 2.09936,-0.81087 2.89111,-1.63612 0.45149,-0.4706 0.45466,-0.48844 0.10141,-0.57032 -0.16995,-0.0394 -0.19523,-0.0284 -0.43016,0.18631 -0.72261,0.66053 -1.73158,0.93689 -2.18671,0.59896 -0.48353,-0.35901 -0.65893,-1.35534 -0.42503,-2.41438 0.0811,-0.36722 0.14342,-0.50704 0.21049,-0.47227 0.0789,0.0409 1.15688,-0.2161 1.5071,-0.35932 0.65786,-0.26904 1.52807,-0.9037 2.04491,-1.49138 0.37973,-0.43178 0.81745,-1.20093 0.92068,-1.6178 0.15583,-0.62924 0.0665,-1.2213 -0.22917,-1.51888 -0.34524,-0.34746 -1.13069,-0.52366 -1.79024,-0.40159 -0.41569,0.0769 -1.19442,0.42975 -1.69003,0.76567 -0.21641,0.14669 -0.39529,0.26055 -0.3975,0.25302 -0.002,-0.008 1.03645,-1.53149 2.30814,-3.38659 1.27168,-1.8551 2.37103,-3.47551 2.44298,-3.60091 l 0.13083,-0.228 -1.35108,-0.32467 -1.35108,-0.32468 -0.19769,0.24046 c -0.10873,0.13224 -1.64563,2.36752 -3.41535,4.96727 -1.76971,2.59976 -3.36869,4.94589 -3.55328,5.21364 -0.3078,0.44642 -0.37036,0.51262 -0.75438,0.79806 -1.40296,1.04282 -3.26418,1.78477 -4.31414,1.71978 -0.61012,-0.0378 -0.93728,-0.14278 -1.13893,-0.36558 -0.79069,-0.87361 0.0497,-3.6501 1.68436,-5.56455 1.17698,-1.37846 2.30567,-1.87566 3.20434,-1.41152 0.32273,0.16666 0.4268,0.3043 0.5292,0.69976 0.0971,0.37485 0.032,0.76166 -0.18472,1.09873 -0.19669,0.30588 -0.34979,0.38346 -0.55067,0.27905 -0.41163,-0.21396 -0.40725,-0.84882 0.008,-1.12698 0.0783,-0.0524 0.0687,-0.0622 -0.12623,-0.12912 -0.5087,-0.17454 -0.94806,-0.11765 -1.43598,0.18593 -0.26331,0.16383 -0.32887,0.23029 -0.51767,0.52475 -0.17854,0.27856 -0.22095,0.38564 -0.24364,0.616 -0.0577,0.58526 0.12919,0.96026 0.60075,1.20565 0.56632,0.29473 1.32894,0.37553 1.99272,0.21117 1.50167,-0.37182 2.54268,-1.85063 2.15604,-3.06278 -0.24301,-0.76186 -0.92063,-1.23396 -2.07324,-1.44442 -1.03867,-0.18965 -1.69912,-0.17455 -2.65377,0.0607 -1.38838,0.34208 -2.69257,1.09107 -3.7728,2.16669 -0.74884,0.74564 -1.56757,2.10485 -1.85585,3.08095 -0.12508,0.42354 -0.2563,0.58141 -0.70347,0.84636 -0.75162,0.44535 -1.55597,0.39803 -1.6199,-0.0953 -0.0367,-0.28326 0.14655,-0.61018 1.17932,-2.10393 1.19211,-1.72419 3.00242,-4.31812 3.42471,-4.90715 0.28943,-0.4037 0.30591,-0.43757 0.22141,-0.45517 -0.0502,-0.0104 -0.65291,-0.15401 -1.33934,-0.31902 -0.68643,-0.165 -1.26899,-0.29375 -1.29458,-0.28609 -0.0256,0.008 -1.04978,1.44399 -2.27598,3.19187 -2.33268,3.32508 -2.4025,3.4153 -3.0302,3.91532 -0.37848,0.3015 -0.63204,0.39844 -0.70929,0.27118 -0.18526,-0.30519 -0.0299,-0.59725 1.52887,-2.87493 0.58001,-0.84749 1.55087,-2.26577 2.15747,-3.15173 0.6066,-0.88596 1.09851,-1.62558 1.09312,-1.64362 -0.0107,-0.0358 -2.55979,-0.66346 -2.64123,-0.65035 -0.0767,0.0124 -4.22528,6.02369 -4.64776,6.73468 -0.58225,0.97988 -0.76985,1.73102 -0.57347,2.29604 0.13522,0.38903 0.23569,0.49148 0.70516,0.71901 0.35413,0.17164 0.45264,0.19914 0.78335,0.21871 z m -1.22177,-0.63777 c -0.35412,-0.44654 -0.30007,-1.17074 0.15809,-2.11812 0.10116,-0.20916 0.19809,-0.40268 0.21542,-0.43004 0.0242,-0.0386 0.28275,0.0809 1.1454,0.52935 l 1.1139,0.5791 0.006,0.23102 c 0.009,0.3688 0.24485,0.47798 0.59617,0.27572 0.16369,-0.0942 0.19824,-0.0954 0.35833,-0.0124 l 0.17717,0.0918 -0.12246,0.12817 c -0.26719,0.27964 -0.7918,0.70064 -1.13045,0.90719 -0.47145,0.28755 -1.01738,0.42415 -1.44108,0.36058 -0.39918,-0.0599 -0.88932,-0.30694 -1.07601,-0.54235 z m 3.83162,0.903 c -0.17204,-0.22034 -0.24623,-0.47393 -0.22814,-0.77976 0.0119,-0.20188 0.15222,-0.79189 0.20944,-0.88086 0.0298,-0.0463 0.31089,0.0874 1.73521,0.82576 0.93481,0.48458 1.69329,0.89095 1.68551,0.90305 -0.008,0.0121 -0.15662,0.0836 -0.33076,0.15885 -1.25815,0.54382 -2.54359,0.4488 -3.07126,-0.22704 z m 5.8149,1.24043 c -0.38284,-0.37816 -0.64866,-0.93504 -0.72111,-1.51063 -0.0338,-0.26842 -0.0363,-0.58838 -0.005,-0.63706 0.008,-0.0119 1.20468,0.59794 2.66004,1.35521 l 2.64613,1.37685 -0.15252,0.0625 c -0.43177,0.17705 -1.41209,0.29602 -2.0776,0.25214 -0.89327,-0.0589 -1.88259,-0.4374 -2.34996,-0.89906 z m 5.95239,1.50613 c 0.16398,-0.22556 0.49122,-0.68459 0.72719,-1.02007 l 0.42905,-0.60997 1.08124,0.56048 1.08125,0.56048 -0.51927,0.74818 c -0.2856,0.41149 -0.54027,0.75204 -0.56593,0.75676 -0.0257,0.005 -0.40181,-0.0776 -0.83587,-0.18295 -0.43406,-0.10535 -0.99319,-0.23908 -1.2425,-0.29717 l -0.45331,-0.10563 z m 5.15935,1.32495 c -0.1629,-0.20886 -0.40535,-0.80933 -0.39893,-0.98806 0.003,-0.0936 0.0505,-0.0725 1.40431,0.62931 l 1.40084,0.72615 -0.24327,0.0629 c -0.33257,0.0859 -0.98384,0.11711 -1.28941,0.0617 -0.36295,-0.0658 -0.68067,-0.24473 -0.87354,-0.492 z m 0.4589,-5.0123 c 0.12482,-0.16222 0.46454,-0.56219 0.75494,-0.88881 1.02463,-1.15242 1.78199,-1.75057 2.20136,-1.7386 0.30918,0.009 0.42106,0.13095 0.38649,0.4219 -0.10302,0.86709 -1.51096,2.14558 -2.65601,2.41182 -0.23326,0.0542 -0.53427,0.0964 -0.66891,0.0936 l -0.2448,-0.005 z m 20.822132,2.22083 c 1.91766,-0.0493 3.89674,-0.95631 5.48039,-2.51159 l 0.37622,-0.36948 -0.60973,1.25257 c -0.33536,0.68891 -0.60763,1.26098 -0.60505,1.27126 0.003,0.0103 0.0763,-0.011 0.16371,-0.0473 0.62513,-0.25929 1.54482,-1.00819 2.32008,-1.88923 0.73101,-0.83075 1.72435,-2.41258 2.31103,-3.68021 0.1085,-0.23443 0.20534,-0.42911 0.2152,-0.43263 0.01,-0.004 -0.0189,0.76638 -0.0639,1.71088 l -0.0819,1.71729 0.34709,-0.4807 c 1.05514,-1.46131 2.38572,-3.41476 3.45855,-5.0776 1.19507,-1.85231 1.21948,-1.89402 1.58811,-2.71767 0.95485,-2.13339 1.34807,-3.1727 1.86393,-4.92649 0.0932,-0.31693 0.35137,-2.04034 0.34303,-2.29008 -8e-4,-0.0238 0.009,-0.038 0.0205,-0.0318 0.0256,0.0133 0.19024,1.23722 0.18679,1.38877 -0.002,0.0874 0.0352,0.0697 0.26573,-0.1265 1.25186,-1.06538 3.26438,-3.08085 4.55338,-4.56006 1.29302,-1.48382 1.99079,-2.40237 2.91067,-3.83163 0.98824,-1.53545 1.55788,-2.65962 2.00322,-3.95319 0.95146,-2.76369 0.7023,-4.91954 -0.6992,-6.04987 -0.28309,-0.22831 -1.10426,-0.65852 -1.20893,-0.63333 -0.0827,0.0199 -0.33005,0.6624 -0.45491,1.18172 -0.14346,0.59662 -0.19235,1.31018 -0.1401,2.04495 0.03,0.42182 0.0674,0.5817 0.16915,0.72205 0.0719,0.0992 0.20206,0.31249 0.28936,0.4741 0.17899,0.33133 0.5175,1.20372 0.47138,1.21482 -0.0166,0.004 -0.14209,-0.1843 -0.27892,-0.41841 -0.35021,-0.5992 -1.09927,-1.59918 -1.50055,-2.00323 -0.60427,-0.60844 -1.22149,-0.96513 -1.70489,-0.98526 -0.18712,-0.008 -2.17052,0.19493 -2.24119,0.22907 -0.0266,0.0128 0.0792,0.12092 0.23504,0.2402 0.78139,0.59815 1.50657,1.58558 2.05351,2.79613 0.20319,0.44971 0.24615,0.61797 0.0837,0.32759 -0.46924,-0.83851 -1.15381,-1.772 -1.71707,-2.34145 -0.48764,-0.49298 -1.02258,-0.91266 -1.19466,-0.93725 -0.12399,-0.0177 -3.39708,0.4459 -3.58211,0.50738 -0.0765,0.0254 -0.0451,0.0534 0.21597,0.19164 1.01569,0.53801 1.98507,1.72695 2.63545,3.23236 0.36763,0.85096 0.38981,0.96427 0.0755,0.38598 -1.49175,-2.74494 -3.07563,-4.00777 -4.50621,-3.59281 -0.2466,0.0715 -0.70802,0.31395 -0.89788,0.47173 l -0.0841,0.0699 0.32712,0.0413 c 0.66828,0.0844 1.22779,0.34763 1.63727,0.77036 0.27234,0.28115 0.40216,0.5181 0.71298,1.30148 0.73085,1.84201 0.93409,2.87132 0.71964,3.64471 -0.0887,0.31982 -0.26921,0.56927 -0.8365,1.15582 -0.33992,0.35145 -0.50615,0.585 -1.79976,2.52869 -1.50245,2.25745 -1.94181,2.84874 -2.85182,3.83796 -0.74231,0.80691 -1.35984,1.27718 -3.18717,2.42712 -2.35849,1.48421 -3.46345,2.33819 -4.77176,3.68791 -1.49903,1.54646 -3.047,3.71645 -4.21097,5.90305 -0.16812,0.31582 -0.31785,0.57716 -0.33273,0.58073 -0.0491,0.0118 0.24246,-0.81526 0.44985,-1.27602 0.11201,-0.24885 0.23603,-0.54268 0.27561,-0.65297 0.37224,-1.03717 2.15566,-4.04789 3.1121,-5.25375 0.28484,-0.35913 0.54113,-0.66625 0.56952,-0.68249 0.22774,-0.13025 -0.4697,0.16087 -1.06936,0.44637 -3.06673,1.46009 -4.85646,3.09188 -5.45909,4.97732 -0.16677,0.52177 -0.22687,1.49077 -0.12827,2.06817 0.2803,1.64144 1.47704,3.41975 3.23821,4.81182 0.51424,0.40646 1.20116,0.8469 1.48038,0.94919 0.11741,0.043 0.20484,0.0916 0.19429,0.10802 -0.0106,0.0164 -0.38907,0.25491 -0.84116,0.53002 -0.45209,0.27511 -0.82607,0.50655 -0.83106,0.51433 -0.0257,0.04 0.10418,0.0492 0.53714,0.0381 z M 61.846858,108.29466 c -0.0233,-0.0267 -0.073,-0.0525 -0.11036,-0.0572 -0.0374,-0.005 -0.0184,0.0171 0.0423,0.0486 0.0607,0.0315 0.0913,0.0353 0.068,0.009 z m -0.3963,-0.25521 c -0.006,-0.0208 -0.0434,-0.0419 -0.0826,-0.047 -0.0434,-0.006 -0.0389,0.009 0.0113,0.0378 0.0454,0.0258 0.0775,0.03 0.0713,0.009 z m -1.7797,-1.96755 c 0.005,-0.008 -0.009,-0.0575 -0.0326,-0.10941 -0.0383,-0.0856 -0.0408,-0.085 -0.0263,0.006 0.0152,0.0959 0.038,0.13571 0.059,0.10308 z m 4.60297,1.46932 c -0.0733,-0.0497 -0.20239,-0.11663 -0.28696,-0.14875 -0.0846,-0.0321 -0.0246,0.009 0.1332,0.0904 0.15782,0.0818 0.22701,0.10809 0.15376,0.0584 z m -0.75105,-0.43586 c -0.006,-0.0208 -0.0434,-0.0419 -0.0826,-0.047 -0.0433,-0.006 -0.0389,0.009 0.0113,0.0378 0.0454,0.0258 0.0775,0.03 0.0713,0.009 z m -1.10184,-0.94111 c -0.006,-0.0208 -0.0434,-0.0419 -0.0826,-0.047 -0.0434,-0.006 -0.0389,0.009 0.0113,0.0378 0.0454,0.0258 0.0775,0.03 0.0713,0.009 z m -3.02405,-2.19625 c 0.007,-0.0399 0.005,-0.0767 -0.005,-0.0816 -0.01,-0.005 -0.0345,0.0178 -0.0556,0.0505 -0.021,0.0327 -0.019,0.0694 0.005,0.0816 0.0235,0.0122 0.0485,-0.0105 0.0556,-0.0505 z m 1.7557,0.89688 c 0.0102,-0.0165 0.19557,-0.36634 0.41197,-0.77737 0.2164,-0.41103 0.43016,-0.80469 0.47503,-0.8748 l 0.0816,-0.12748 0.27074,0.3246 c 0.43834,0.52554 0.77149,0.80069 1.39764,1.15433 0.72342,0.40858 1.10705,0.52459 1.88392,0.56971 1.42975,0.083 2.94507,-0.54988 4.28067,-1.78792 1.01388,-0.93981 1.95998,-2.33207 2.63404,-3.876191 0.10864,-0.24888 0.19863,-0.47967 0.19996,-0.51286 0.001,-0.0332 -0.1787,0.21832 -0.40007,0.55892 -0.40058,0.616331 -0.73926,1.013371 -1.22428,1.435261 -0.55063,0.47896 -1.50075,0.99445 -2.19183,1.18919 l -0.29721,0.0838 0.37865,-0.1683 c 0.7024,-0.3122 1.26489,-0.70792 1.86941,-1.31515 1.33108,-1.337061 2.13518,-2.869481 3.74722,-7.141321 1.27777,-3.38604 1.52666,-3.958 2.24753,-5.16494 l 0.47662,-0.79801 -0.31334,0.16919 c -0.9767,0.52735 -2.4838,1.08134 -3.94663,1.45071 -2.35531,0.59473 -4.41082,0.68824 -6.2031,0.28219 -0.32567,-0.0738 -0.35663,-0.0713 -0.4782,0.0389 -1.56431,1.41817 -2.86357,2.75415 -3.94684,4.05841 -0.66513,0.80081 -2.1856,3.16551 -2.65848,4.13458 -0.18463,0.37836 -0.36912,0.76901 -0.40998,0.86812 l -0.0743,0.1802 0.38335,-0.19488 c 0.71333,-0.36262 2.13242,-0.90241 2.15689,-0.82042 0.004,0.0136 -0.14196,0.19513 -0.32451,0.40332 -0.78777,0.89839 -1.48533,2.037581 -1.87713,3.065571 -0.18854,0.49469 -0.42822,1.28837 -0.4112,1.36169 0.006,0.0264 0.12478,-0.10106 0.26368,-0.28321 0.47584,-0.62406 1.2214,-1.30212 1.97241,-1.79384 l 0.24485,-0.16032 -0.3233,0.56887 c -0.78671,1.38426 -0.934,2.28026 -0.55886,3.39944 0.15173,0.45265 0.21644,0.57564 0.26309,0.5 z m 6.93913,3.22708 c 0.0953,-0.0344 0.0947,-0.0366 -0.007,-0.0236 -0.10684,0.0137 -0.15116,0.0341 -0.11482,0.0529 0.009,0.005 0.064,-0.008 0.12186,-0.0293 z m 0.62404,-0.11252 c 0.15091,-0.038 0.26445,-0.0743 0.25231,-0.0806 -0.0121,-0.006 -0.14555,0.0197 -0.29646,0.0577 -0.15091,0.038 -0.26445,0.0743 -0.25231,0.0806 0.0121,0.006 0.14555,-0.0197 0.29646,-0.0577 z m -10.20143,-7.09488 c 0.006,-0.0389 -0.0103,-0.035 -0.0421,0.0101 -0.0288,0.0408 -0.0334,0.0696 -0.0103,0.064 0.0231,-0.006 0.0467,-0.0389 0.0523,-0.0742 z m -0.47463,-2.465711 c 0.006,-0.0389 -0.0103,-0.035 -0.0421,0.0101 -0.0288,0.0408 -0.0334,0.0696 -0.0103,0.064 0.0231,-0.006 0.0467,-0.0389 0.0523,-0.0742 z m 0.276,-0.51984 c 0.0136,-0.0444 -0.0104,-0.0275 -0.0534,0.0374 -0.043,0.0649 -0.0541,0.10124 -0.0247,0.0807 0.0293,-0.0206 0.0645,-0.0737 0.0781,-0.11806 z m 13.84786,7.207011 c 0.006,-0.0389 -0.0103,-0.0349 -0.0421,0.0101 -0.0288,0.0408 -0.0334,0.0696 -0.0103,0.064 0.0231,-0.006 0.0467,-0.0389 0.0523,-0.0742 z m 0.24805,-0.29421 c 0.006,-0.0389 -0.0103,-0.0349 -0.0421,0.0101 -0.0288,0.0408 -0.0334,0.0696 -0.0103,0.064 0.0231,-0.006 0.0467,-0.0389 0.0523,-0.0742 z m -13.21985,-8.362261 c 0.0861,-0.15156 0.002,-0.0348 -0.18749,0.25954 -0.18925,0.29431 -0.25972,0.41831 -0.1566,0.27556 0.10312,-0.14275 0.25796,-0.38355 0.34409,-0.5351 z m 0.7297,-1.04767 c 0.0136,-0.0444 -0.0104,-0.0275 -0.0534,0.0374 -0.043,0.0649 -0.0541,0.10124 -0.0247,0.0807 0.0293,-0.0206 0.0645,-0.0737 0.0781,-0.11806 z m 0.38737,-0.51367 c 0.005,-0.0336 -0.0191,-0.0165 -0.0541,0.038 -0.0351,0.0545 -0.0394,0.082 -0.01,0.0611 0.0298,-0.0209 0.0584,-0.0655 0.0637,-0.0991 z m 0.29835,-0.37053 c 0.006,-0.0389 -0.0103,-0.035 -0.0421,0.0101 -0.0288,0.0408 -0.0334,0.0696 -0.0103,0.064 0.0231,-0.006 0.0467,-0.0389 0.0523,-0.0742 z m 0.27354,-0.33385 c 0.006,-0.0389 -0.0103,-0.035 -0.0421,0.0101 -0.0288,0.0408 -0.0334,0.0696 -0.0103,0.064 0.0231,-0.006 0.0467,-0.0389 0.0523,-0.0742 z m 0.49611,-0.58842 c 0.006,-0.0389 -0.0103,-0.035 -0.0421,0.0101 -0.0288,0.0408 -0.0334,0.0696 -0.0103,0.064 0.0231,-0.006 0.0467,-0.0389 0.0523,-0.0742 z m 0.22256,-0.25458 c 0.006,-0.0389 -0.0103,-0.035 -0.0421,0.0101 -0.0288,0.0408 -0.0334,0.0696 -0.0103,0.064 0.0231,-0.006 0.0467,-0.0389 0.0523,-0.0742 z m 11.49022,6.05182 c 0.005,-0.008 -0.009,-0.0575 -0.0327,-0.10941 -0.0383,-0.0856 -0.0408,-0.085 -0.0263,0.006 0.0152,0.0959 0.038,0.13571 0.059,0.10308 z m -6.15049,-10.54898 c -0.0229,-0.0264 -0.0821,-0.0579 -0.1315,-0.0701 -0.0494,-0.0122 -0.0307,0.009 0.0417,0.0479 0.0723,0.0386 0.11276,0.0486 0.0898,0.0222 z m -0.69005,-3.13725 c -0.0485,-0.41029 -0.17702,-1.23199 -0.28559,-1.82601 -0.23155,-1.26689 -0.38762,-2.363764 -0.37637,-2.64522 0.006,-0.158095 0.0313,-0.216943 0.11946,-0.281464 0.1948,-0.142555 0.72885,-0.312982 1.46329,-0.466968 l 0.71248,-0.14938 0.0227,-0.203292 c 0.0125,-0.111807 0.011,-0.20935 -0.003,-0.21676 -0.0705,-0.03652 -2.71297,0.63914 -2.75494,0.704415 -0.13536,0.210488 -0.045,1.155794 0.22797,2.384529 0.14682,0.66093 0.90596,3.41683 0.94708,3.43814 0.008,0.004 -0.0243,-0.32771 -0.0728,-0.73799 z m 5.37176,3.07522 c 0.0953,-0.0344 0.0947,-0.0366 -0.007,-0.0236 -0.0617,0.008 -0.11657,0.0211 -0.12186,0.0293 -0.021,0.0326 0.0288,0.0304 0.1289,-0.006 z m 0.39232,-0.0609 c 0.0953,-0.0344 0.0947,-0.0366 -0.007,-0.0236 -0.10683,0.0137 -0.15115,0.0341 -0.11481,0.0529 0.009,0.005 0.064,-0.008 0.12186,-0.0293 z m 0.41514,-0.0623 c 0.072,-0.0208 0.12095,-0.043 0.10881,-0.0493 -0.0121,-0.006 -0.081,0.006 -0.15296,0.0264 -0.072,0.0208 -0.12095,0.043 -0.10881,0.0493 0.0121,0.006 0.081,-0.006 0.15296,-0.0264 z m 0.53159,-0.0944 c 0.072,-0.0208 0.12095,-0.043 0.10881,-0.0493 -0.0121,-0.006 -0.081,0.006 -0.15295,0.0264 -0.072,0.0208 -0.12095,0.043 -0.10881,0.0493 0.0121,0.006 0.081,-0.006 0.15295,-0.0264 z m 0.63605,-0.11951 c 0.0921,-0.0249 0.15747,-0.0505 0.14533,-0.0568 -0.0121,-0.006 -0.0974,0.009 -0.18948,0.0339 -0.0921,0.0249 -0.15747,0.0505 -0.14533,0.0568 0.0121,0.006 0.0974,-0.009 0.18948,-0.0339 z m 0.81013,-0.1614 c 0.13144,-0.0336 0.22904,-0.0662 0.2169,-0.0725 -0.0121,-0.006 -0.12961,0.0161 -0.26104,0.0497 -0.13144,0.0336 -0.22904,0.0662 -0.2169,0.0725 0.0121,0.006 0.12961,-0.0161 0.26104,-0.0497 z m 1.44433,-0.3215 0.52753,-0.13613 -0.53266,0.11894 c -0.29296,0.0654 -0.53582,0.12383 -0.53967,0.12983 -0.0186,0.029 0.0548,0.0138 0.5448,-0.11264 z m 20.42096,10.77767 c 0.33972,0.0193 0.40812,-0.0538 0.61268,-0.65497 0.10152,-0.29834 0.19874,-0.49565 0.32611,-0.66184 0.25046,-0.3268 0.26193,-0.49862 0.0519,-0.77702 -0.24168,-0.32031 -0.52479,-0.52885 -1.04184,-0.76742 -0.55648,-0.25677 -0.96705,-0.32982 -1.29426,-0.23028 -0.25916,0.0788 -0.31206,0.1469 -0.51055,0.65694 -0.28667,0.73668 -0.27553,1.00676 0.059,1.42899 0.26339,0.33249 0.45308,0.47111 1.02172,0.74668 0.42053,0.2038 0.54663,0.24591 0.77531,0.25892 z m -26.40236,-15.05746 c 0.12668,-1.993268 0.40195,-3.915657 0.69697,-4.867396 0.36132,-1.165649 1.10259,-1.984751 1.9892,-2.198045 0.20062,-0.04827 0.2924,-0.09789 0.35175,-0.190173 l 0.0803,-0.124873 -0.49153,-0.219656 c -1.33482,-0.596517 -2.3744,-0.691329 -2.84141,-0.259147 -0.67049,0.620487 -1.30282,2.531772 -1.39886,4.228215 -0.0832,1.468937 0.18934,2.781545 0.80694,3.887075 0.19676,0.3522 0.66475,1.00925 0.71093,0.99814 0.009,-0.002 0.052,-0.56651 0.0957,-1.25414 z m 9.38893,3.65566 c 0.22109,0.0306 0.47656,0.006 0.94956,-0.0923 0.35591,-0.0738 0.68045,-0.16439 0.72121,-0.20143 0.0697,-0.0634 0.0567,-0.0681 -0.22016,-0.0809 -0.53538,-0.0247 -0.96665,-0.11597 -1.02854,-0.21775 -0.045,-0.074 -0.0744,-0.0825 -0.16384,-0.0477 -0.10049,0.0391 -0.11138,0.0345 -0.13925,-0.0589 -0.0229,-0.0769 -0.0571,-0.10207 -0.14179,-0.10451 -0.0614,-0.002 -0.12262,0.014 -0.13615,0.035 -0.0135,0.021 -0.0616,0.0191 -0.10676,-0.004 -0.0637,-0.033 -0.0632,-0.0623 0.002,-0.13032 0.12131,-0.12608 0.008,-0.23818 -0.17643,-0.1746 l -0.13916,0.048 -0.0642,-0.23706 c -0.0881,-0.32542 -0.11355,-1.50085 -0.0351,-1.62246 0.10075,-0.15613 0.35703,-0.36571 0.44692,-0.36551 0.045,10e-5 0.10775,-0.04 0.13935,-0.0892 0.0674,-0.10489 0.43398,-0.2846 0.96385,-0.47259 0.20806,-0.0738 0.36053,-0.14342 0.33882,-0.15467 -0.069,-0.0357 -1.66582,0.36155 -2.16816,0.53943 -0.26564,0.0941 -0.50267,0.20165 -0.52675,0.23908 -0.071,0.11045 -0.18471,0.73896 -0.20332,1.12408 -0.0188,0.38952 0.10321,0.96508 0.26015,1.22698 0.0546,0.0912 0.16659,0.23323 0.24876,0.31567 0.21089,0.21157 0.79735,0.47327 1.17873,0.52598 z m -6.20335,-3.7582 c 0.19575,-1.730498 1.32677,-5.784466 1.83378,-6.57292 0.12158,-0.189076 0.16681,-0.222073 0.39524,-0.288332 0.42885,-0.124392 0.92705,-0.09608 1.83706,0.104392 l 0.4854,0.106936 -0.34918,-0.272992 c -0.52134,-0.407576 -1.64761,-1.024309 -2.06412,-1.130291 -0.61177,-0.155659 -0.9989,-0.04976 -1.46448,0.400619 -0.58934,0.570102 -1.09472,1.443927 -1.41111,2.439921 -0.55124,1.735265 -0.36865,3.508813 0.51438,4.996347 0.15243,0.2568 0.21193,0.31449 0.22303,0.21632 z m 5.75004,2.43961 c 0.12439,-0.0413 0.13952,-0.16617 0.0272,-0.2244 -0.0501,-0.026 -0.11994,-0.0262 -0.15524,-5.3e-4 -0.0635,0.0462 -0.062,0.20502 0.002,0.23836 0.0183,0.01 0.0749,0.004 0.12573,-0.0134 z m 1.19959,0.51546 c 0.0743,-0.0247 0.0898,-0.0487 0.0765,-0.11891 -0.0336,-0.17654 -0.24955,-0.16673 -0.28123,0.0128 -0.007,0.04 0.0152,0.0871 0.0494,0.10487 0.0342,0.0177 0.10413,0.0183 0.15539,10e-4 z m -0.28654,-0.31472 c 0.0428,-0.0311 0.0514,-0.0882 0.0221,-0.14759 -0.0404,-0.0822 -0.0627,-0.0932 -0.14736,-0.0729 -0.0548,0.0132 -0.1058,0.0584 -0.11322,0.10038 -0.0177,0.10053 0.14949,0.18473 0.23843,0.12005 z m -0.91246,-0.58426 c 0.0163,-0.0424 4.7e-4,-0.0922 -0.0353,-0.11078 -0.0358,-0.0185 -0.0918,-0.006 -0.12449,0.028 -0.0417,0.0433 -0.0312,0.0763 0.0353,0.11078 0.0665,0.0345 0.10363,0.0261 0.12449,-0.0279 z m 0.77183,0.0822 c 0.0914,-0.10459 -0.003,-0.21651 -0.1524,-0.18059 -0.0925,0.0222 -0.10758,0.0418 -0.0927,0.11998 0.0242,0.12713 0.15805,0.16023 0.24511,0.0606 z m -0.40556,-0.48494 c 0.0917,-0.11699 0.10719,-0.16912 0.0642,-0.21672 -0.0762,-0.0844 -0.27379,-0.009 -0.25367,0.0967 0.008,0.0415 -0.0115,0.088 -0.043,0.10325 -0.0316,0.0152 -0.0499,0.0673 -0.0407,0.11559 0.0236,0.12421 0.12782,0.0865 0.27315,-0.0988 z m -0.36382,-0.0514 c 0.064,-0.0213 0.0776,-0.0461 0.0551,-0.10052 -0.0397,-0.0964 -0.18918,-0.0895 -0.20667,0.01 -0.0168,0.095 0.0388,0.12834 0.15152,0.0909 z m 20.98246,10.64081 c 0.321832,-0.0302 0.866212,-0.18774 1.543222,-0.44665 0.61984,-0.23703 1.61079,-0.66852 1.64014,-0.71416 0.0268,-0.0417 -0.96941,-1.75815 -1.36131,-2.34558 -0.63357,-0.94966 -1.34597,-1.69313 -2.104602,-2.19639 -0.56695,-0.37609 -0.49402,-0.37611 -0.73529,1.5e-4 -0.52554,0.81954 -1.20179,2.18247 -1.41311,2.84802 -0.13162,0.41453 -0.18588,1.04055 -0.10299,1.1881 0.0481,0.0857 0.22748,0.19318 0.85768,0.514 0.72307,0.3681 0.81412,0.42529 0.98406,0.61788 0.103,0.11674 0.21438,0.27307 0.24752,0.3474 0.0812,0.1822 0.1572,0.21419 0.44468,0.18723 z m -21.08062,-10.96651 c 0.0871,-0.0634 0.0564,-0.16041 -0.0499,-0.15755 -0.0905,0.002 -0.13946,0.14224 -0.0636,0.18159 0.0258,0.0134 0.0768,0.003 0.11341,-0.024 z m 0.87672,-0.0969 c 0.0398,-0.0619 0.0377,-0.11772 -0.006,-0.1515 -0.0777,-0.0604 -0.19553,0.005 -0.2158,0.11983 -0.0212,0.12034 0.14891,0.14466 0.22156,0.0317 z m -0.32518,-0.2427 c 0.0901,-0.0656 0.0529,-0.22723 -0.0559,-0.24271 -0.0922,-0.0131 -0.19241,0.0852 -0.16851,0.1653 0.0219,0.0735 0.16291,0.12212 0.22439,0.0774 z m 0.30808,-1.27976 c 0.45267,-0.10369 1.17592,-0.24301 1.60723,-0.30959 1.07031,-0.16524 1.04209,-0.15406 0.59113,-0.23417 -0.92231,-0.16386 -2.06824,-0.60604 -3.10638,-1.198679 -0.85609,-0.488708 -0.97857,-0.498333 -1.23843,-0.09731 -0.29922,0.461764 0.19674,1.229209 1.30008,2.011729 0.0128,0.009 0.3937,-0.0683 0.84637,-0.17198 z m 11.31364,4.45445 c 0.26847,0.0328 1.1944,0.0807 2.05762,0.10654 2.16466,0.0647 3.06368,0.1432 4.21105,0.36761 0.9713,0.18997 1.45636,0.35707 2.28313,0.7865 0.676972,0.35161 0.786432,0.42244 1.122402,0.72606 0.82691,0.74731 1.65524,1.79596 2.48225,3.14247 0.81264,1.3231 1.1198,1.68223 1.69682,1.98391 0.66434,0.34733 1.06739,0.35502 3.16912,0.0605 3.10193,-0.4347 4.59175,-0.52616 6.51347,-0.39988 1.73772,0.11418 3.41671,0.46915 4.85281,1.02598 0.48419,0.18773 0.49004,0.18864 0.37803,0.059 -0.22639,-0.26203 -1.04181,-0.97266 -1.44962,-1.26335 -1.10593,-0.7883 -2.67381,-1.38655 -4.26903,-1.62862 -1.52734,-0.23187 -2.96016,-0.22031 -5.80501,0.0468 -1.505,0.14133 -1.98827,0.16646 -2.49228,0.12964 -0.36698,-0.0268 -0.39447,-0.0363 -0.92609,-0.31984 -0.94625,-0.50466 -1.90554,-1.25794 -5.221582,-4.10016 -2.65086,-2.2721 -2.77158,-2.3667 -3.22892,-2.53053 -1.25723,-0.45035 -3.491,-0.30862 -5.94779,0.37737 -0.51619,0.14414 -0.59025,0.17852 -0.6778,0.31467 -0.1124,0.17479 -0.10956,0.46778 0.006,0.63398 0.1392,0.19996 0.69243,0.41379 1.24529,0.48131 z m -13.7237,-8.740839 1.5609,-0.385439 -0.10507,-0.122941 c -0.1038,-0.121461 -0.11048,-0.12168 -0.55543,-0.01812 -0.2477,0.05765 -0.89749,0.223096 -1.44399,0.367659 -0.93694,0.24784 -0.99642,0.2707 -1.04234,0.400562 -0.0268,0.07574 -0.0321,0.139071 -0.0118,0.140717 0.0203,0.0016 0.73927,-0.170448 1.59776,-0.382441 z m 3.55431,1.570632 c -0.0379,-0.767082 0.0763,-2.171762 0.23186,-2.852579 0.15441,-0.675657 0.41675,-1.437395 0.69416,-2.015532 0.17463,-0.363939 0.59223,-1.000698 1.17785,-1.79598 0.0951,-0.129126 0.0919,-0.140255 -0.10551,-0.365814 -0.54285,-0.620329 -1.37297,-0.723264 -2.24436,-0.278309 -0.20894,0.106689 -0.24212,0.142896 -0.39507,0.431045 -0.52278,0.984886 -1.25787,3.153304 -1.34787,3.976042 l -0.0336,0.307591 0.46609,0.813851 c 0.71303,1.245023 1.35972,2.210022 1.55392,2.318801 0.0165,0.0093 0.0177,-0.233347 0.003,-0.539116 z m 7.81843,1.771407 c 0.23129,-0.008 0.71687,-0.0232 1.07907,-0.0327 0.68362,-0.0178 1.29215,-0.11681 1.51833,-0.24696 0.44325,-0.255059 0.24747,-0.617548 -0.80235,-1.48553 -0.46081,-0.381004 -1.69924,-1.293882 -2.20582,-1.625981 -0.37259,-0.244252 -0.27839,-0.227119 0.76412,0.139006 1.18074,0.41467 1.62843,0.601351 2.73857,1.141959 2.02613,0.986669 3.31455,1.854366 7.72203,5.200486 3.755482,2.85113 4.040722,3.0582 4.775922,3.46709 1.45778,0.81075 2.94079,1.14773 3.91373,0.88932 0.47454,-0.12604 0.94025,-0.37917 3.76677,-2.04738 2.89952,-1.71129 4.06319,-2.33821 5.64933,-3.04353 1.80228,-0.80143 3.32237,-1.17998 4.34248,-1.0814 0.66244,0.064 1.09029,0.2026 1.87414,0.6071 0.61253,0.31609 0.78234,0.42276 1.06105,0.66648 1.34049,1.17222 1.86033,2.75031 1.4809,4.49551 -0.17045,0.78398 -0.70136,1.92916 -1.18885,2.56436 l -0.2619,0.34125 0.22874,-0.51562 c 0.89414,-2.01555 0.8357,-3.67055 -0.17844,-5.05317 -0.239,-0.32583 -0.74621,-0.89604 -0.84054,-0.94494 -0.0136,-0.007 0.0416,0.10905 0.12263,0.25803 0.20983,0.38553 0.30483,0.74319 0.41004,1.54361 0.11495,0.87456 0.11887,1.3175 0.0175,1.97158 -0.17851,1.15135 -0.56203,2.04722 -1.40717,3.28712 -0.31891,0.46787 -0.68487,0.95672 -0.82657,1.10415 -0.13986,0.14551 -0.25291,0.27147 -0.25123,0.27991 0.002,0.008 0.19415,-0.0464 0.42772,-0.1218 1.67699,-0.5416 3.00376,-1.56802 3.77396,-2.9196 0.55137,-0.96755 0.8812,-2.09697 0.82714,-2.83232 -0.0849,-1.15453 -0.83413,-2.95522 -1.71666,-4.12564 -0.78803,-1.04509 -1.63705,-1.6308 -2.65541,-1.83189 -0.76402,-0.15086 -1.00672,-0.12027 -3.19467,0.40257 -1.10933,0.26508 -2.29999,0.5308 -2.64592,0.59047 -2.15953,0.37253 -3.60477,0.21748 -5.07452,-0.54442 -1.21104,-0.62779 -1.97982,-1.286665 -4.43076,-3.797356 -1.50031,-1.536896 -2.07475,-2.003766 -2.8033,-2.278386 -0.96964,-0.365496 -1.567,-0.289907 -3.97525,0.503023 -1.633132,0.537721 -2.395772,0.748273 -3.134032,0.865236 -1.48525,0.235314 -2.71814,0.166949 -4.02065,-0.222955 -0.53221,-0.159317 -0.54233,-0.173479 0.30985,0.433534 0.79501,0.56629 1.92996,1.495066 1.84445,1.509395 -0.0118,0.002 -0.23155,-0.147703 -0.48843,-0.332603 -0.69585,-0.500874 -1.79087,-1.184411 -2.98617,-1.864044 -2.86012,-1.626214 -5.21511,-2.329716 -6.14835,-1.836679 -0.11022,0.05823 -0.2404,0.168376 -0.28928,0.244769 -0.11149,0.174204 -0.17668,0.596926 -0.14735,0.955458 0.057,0.696711 0.66031,2.205024 1.36829,3.420758 0.30668,0.526634 1.16937,1.88136 1.21353,1.90568 0.0125,0.007 0.21207,0.006 0.44337,-0.003 z m 18.024742,5.00826 c 0.59042,-0.73374 1.91541,-1.44719 3.18689,-1.71602 0.51156,-0.10815 1.55238,-0.21359 1.5687,-0.15892 0.004,0.014 -0.35568,0.1351 -0.79967,0.26913 -1.41894,0.42835 -2.73053,0.98097 -3.66316,1.54342 l -0.47125,0.28421 z m 1.13793,0.15111 c 0.68732,-0.73578 1.93799,-1.22945 3.10905,-1.22721 0.11755,2.3e-4 -0.0668,0.0958 -0.25364,0.13156 -0.542,0.10359 -2.06769,0.72256 -2.61866,1.06238 -0.1716,0.10584 -0.32315,0.18667 -0.33675,0.17962 -0.0136,-0.007 0.0314,-0.0729 0.1,-0.14635 z m -5.67855,-5.26895 c 0.0523,-0.0528 0.27408,-0.288646 0.49291,-0.524015 0.92724,-0.997302 1.83141,-1.53964 2.51125,-1.506293 0.3944,0.01935 1.10657,0.333031 1.286,0.566444 0.42089,0.547494 -0.36659,1.363014 -1.27527,1.320664 -0.11655,-0.005 -0.34602,-0.0623 -0.50992,-0.126459 -0.61373,-0.24011 -1.5567,-0.14271 -2.26748,0.234219 -0.32118,0.17032 -0.37951,0.17902 -0.23749,0.0354 z m 8.55479,9.26269 c 0.96479,-0.0155 2.55821,0.0551 3.46292,0.1534 2.02842,0.22034 3.94676,0.74875 5.3398,1.47086 l 0.47388,0.24565 0.39611,-0.1334 c 1.05104,-0.35396 1.82431,-0.93985 2.21953,-1.68169 0.34717,-0.65162 0.35245,-0.59977 -0.18462,-1.81139 -0.26237,-0.59191 -0.49682,-1.09812 -0.52099,-1.12491 -0.0336,-0.0373 -0.0777,0.0121 -0.18787,0.21041 -0.26044,0.46887 -1.92734,3.22927 -1.95388,3.23566 -0.0143,0.003 -0.0945,-0.91456 -0.17838,-2.03999 l -0.1524,-2.04623 -1.12662,1.72815 c -0.61963,0.95049 -1.14063,1.7195 -1.15777,1.70893 -0.0171,-0.0106 -0.1382,-0.77609 -0.26902,-1.70113 -0.18736,-1.32481 -0.25573,-1.67657 -0.32205,-1.65685 -0.0463,0.0138 -0.87391,0.30535 -1.83912,0.64796 l -1.75493,0.62293 -1.20506,0.72299 c -1.03975,0.62382 -2.08447,1.1935 -2.65541,1.44798 -0.14763,0.0658 -0.12224,0.0695 0.29812,0.0432 0.25272,-0.0158 0.84571,-0.0349 1.31776,-0.0425 z m 14.60177,7.74229 7.40493,3.137541 0.29776,-0.35332 c 0.56879,-0.6749 1.40991,-1.36699 2.16133,-1.7784 l 0.36367,-0.199111 0.23212,-0.46976 c 0.54457,-1.10208 1.32988,-1.81856 2.19647,-2.00397 l 0.3715,-0.0795 0.13875,-0.45119 0.13874,-0.45119 -0.16082,-0.21574 c -0.22748,-0.30516 -0.44951,-0.79643 -0.56971,-1.26054 -0.36195,-1.39762 -0.0541,-3.2601 0.94129,-5.69492 0.27798,-0.67997 0.36478,-0.84701 0.64902,-1.24905 0.36927,-0.5223 0.6408,-0.76565 1.17684,-1.05471 0.31497,-0.16985 1.01472,-0.37186 1.45618,-0.42039 l 0.21629,-0.0238 0.27366,-0.66073 c 0.28281,-0.6828 0.36084,-0.796 0.63394,-0.91968 0.13332,-0.0604 0.64213,-0.0574 0.76141,0.004 0.0372,0.0193 0.0787,0.0179 0.0922,-0.003 0.0217,-0.0337 1.19346,-3.935885 1.37073,-4.564628 l 0.0686,-0.243383 -0.58417,0.156574 c -1.10471,0.296085 -2.71793,0.614615 -4.83801,0.955257 -0.82581,0.132685 -2.66194,0.314116 -3.90098,0.385461 l -0.79306,0.04566 0.30757,0.326199 c 0.53922,0.57187 0.91529,1.16754 1.30267,2.06332 0.31694,0.73288 0.69734,1.9013 0.64534,1.98217 -0.0975,0.15163 -0.21689,0.11915 -0.79086,-0.21519 -0.29943,-0.17443 -0.62338,-0.37319 -0.71989,-0.4417 l -0.17546,-0.12456 0.21228,0.7122 c 0.33895,1.13723 0.42338,2.19311 0.266,3.3269 -0.19497,1.40469 -0.65667,2.66275 -1.40339,3.82396 -0.3182,0.49484 -0.37438,0.56252 -0.48463,0.58382 -0.0686,0.0132 -0.14627,1.8e-4 -0.17263,-0.029 -0.0264,-0.0292 -0.17995,-0.69088 -0.34134,-1.47035 -0.16138,-0.77946 -0.30342,-1.4148 -0.31565,-1.41186 -0.0122,0.003 -0.10466,0.18569 -0.20543,0.40611 -0.2924,0.63958 -1.54809,2.56316 -2.00385,3.06967 -0.93724,1.04162 -1.95155,1.59783 -3.41934,1.87506 -2.03828,0.38497 -3.83041,0.46516 -6.85805,0.30689 -1.83862,-0.0961 -2.29628,-0.16375 -3.08055,-0.45522 -0.2859,-0.10626 -0.53875,-0.18789 -0.5619,-0.18141 -0.0232,0.006 0.0339,0.0378 0.12666,0.0697 0.0928,0.0319 3.50099,1.46983 7.5737,3.19548 z M 82.688478,77.30265 c 1.04914,-0.141539 2.05683,-0.704262 2.50265,-1.397556 0.43675,-0.679191 0.52533,-1.941205 0.24875,-3.544078 -0.11241,-0.651494 -0.32119,-1.520126 -0.31012,-1.290229 0.003,0.06345 0.0487,0.693541 0.10137,1.4002 0.10392,1.393656 0.11807,2.489265 0.036,2.784427 -0.0285,0.102586 -0.13923,0.31961 -0.24599,0.482275 -0.36525,0.556546 -1.08444,0.961068 -2.15567,1.212505 -0.5198,0.122004 -0.60881,0.157539 -0.64798,0.25866 -0.025,0.06447 -0.0295,0.12548 -0.01,0.135571 0.0195,0.01009 0.23593,-0.0087 0.48104,-0.04178 z m 51.584582,25.41855 c 0.24483,-0.0137 0.44811,-0.049 0.45174,-0.0784 0.047,-0.38143 0.17128,-0.96126 0.32645,-1.5227 l 0.19084,-0.69052 -0.28309,0.16706 c -0.76885,0.45373 -1.80838,1.42536 -2.24497,2.09836 l -0.1228,0.18931 0.61835,-0.0691 c 0.34009,-0.038 0.81866,-0.0803 1.06349,-0.094 z m 8.17931,4.09386 c 0.23107,-0.15818 0.4942,-0.51148 0.6738,-0.90469 0.34613,-0.75782 0.53096,-1.45864 1.08515,-4.11465 0.18906,-0.90611 0.52565,-2.071931 0.72,-2.493841 0.0823,-0.17867 0.0867,-0.23253 0.0216,-0.26625 -0.0449,-0.0233 -0.1053,-0.0308 -0.13433,-0.0168 -0.0584,0.0282 -0.49754,1.163731 -0.72354,1.871031 -0.0797,0.24937 -0.19408,0.74894 -0.25424,1.11016 -0.20618,1.23804 -0.72851,3.24392 -1.0834,4.16055 -0.12092,0.31231 -0.14039,0.33979 -0.3244,0.45803 -0.10767,0.0692 -0.23603,0.18749 -0.28524,0.26292 -0.088,0.13478 -0.0875,0.13614 0.0348,0.0851 0.0683,-0.0286 0.18974,-0.0968 0.2698,-0.15163 z M 80.266478,72.625634 c 0.34985,-0.545191 0.57682,-0.736789 1.02973,-0.869244 0.72164,-0.211044 1.61955,-0.02749 3.03247,0.619912 l 0.60461,0.277028 -0.058,-0.703853 c -0.0656,-0.79519 -0.22516,-1.345939 -0.56351,-1.944674 -0.9021,-1.596322 -2.59018,-2.541137 -4.92221,-2.754951 l -0.32263,-0.02958 -0.0125,0.211888 c -0.0279,0.474132 0.10427,1.613952 0.32885,2.836891 0.111,0.604382 0.57143,2.789538 0.58979,2.799056 0.004,0.002 0.13593,-0.19709 0.29339,-0.442473 z m 13.11308,5.124728 c 1.63233,0.415437 3.0578,0.377231 4.88338,-0.130885 0.32014,-0.0891 1.2046,-0.379771 1.965452,-0.645926 1.48946,-0.521022 2.61673,-0.823135 3.07281,-0.823516 0.15685,-1.26e-4 0.4191,0.01641 0.58277,0.03675 l 0.29758,0.03699 -0.18122,-0.157747 c -0.21004,-0.182826 -0.34129,-0.380145 -0.49145,-0.73884 l -0.10719,-0.256058 -0.16835,0.202763 c -0.0926,0.111517 -0.26174,0.261086 -0.37588,0.332377 -0.20931,0.130723 -0.6932,0.244906 -0.80103,0.189011 -0.032,-0.01661 -0.068,-0.01512 -0.0798,0.0033 -0.0119,0.01844 -0.27749,0.148295 -0.59029,0.288569 -1.619812,0.726401 -2.986072,0.761153 -3.784352,0.09625 -0.29197,-0.243194 -0.74816,-0.864538 -0.95345,-1.29862 -0.40592,-0.858378 -0.69252,-2.042473 -0.73227,-3.025504 -0.008,-0.200404 -0.0278,-0.37031 -0.0438,-0.377568 -0.016,-0.0072 -0.1649,-0.04914 -0.33089,-0.09308 -0.166,-0.04394 -0.36915,-0.114419 -0.45146,-0.156631 l -0.14966,-0.07673 -0.0576,0.168322 c -0.0317,0.09258 -0.18498,0.363901 -0.34066,0.60294 -0.23494,0.360744 -0.362,0.505983 -0.74752,0.854471 -0.3809,0.344321 -0.53068,0.514805 -0.83257,0.947638 -0.54062,0.775117 -1.00026,1.795972 -1.25617,2.789917 l -0.10454,0.406037 0.33261,0.190402 c 0.80633,0.461597 0.86612,0.487877 1.44561,0.635362 z m 26.397572,10.643077 c 0.0741,1.01748 0.14581,1.93 0.15926,2.02782 l 0.0245,0.17786 0.63535,-1.04474 c 0.34944,-0.5746 0.76471,-1.27192 0.92282,-1.54959 l 0.28748,-0.50485 0.46359,1.0542 c 0.25497,0.57981 0.50814,1.14797 0.56259,1.26259 l 0.099,0.2084 0.008,-0.36604 c 0.0245,-1.18978 -0.34321,-2.69346 -1.02726,-4.20039 -0.10273,-0.2263 -0.10878,-0.23138 -0.34423,-0.28853 -0.45547,-0.11056 -1.23343,-0.14227 -1.49916,-0.0611 -0.59265,0.18102 -1.91521,0.8488 -3.26883,1.65049 -1.09002,0.64556 -2.50642,1.54411 -2.36775,1.50206 0.0354,-0.0107 0.58975,-0.20592 1.23193,-0.43378 0.64218,-0.22785 1.17986,-0.40099 1.19484,-0.38476 0.015,0.0162 0.11341,0.6303 0.21873,1.3646 l 0.19148,1.33511 1.18669,-1.79966 1.18669,-1.79965 z m 7.31276,5.32185 c 2.1884,-0.5425 3.68947,-2.1863 4.21033,-4.61067 0.24384,-1.13499 0.25351,-2.96294 0.0226,-4.28226 -0.0489,-0.27971 -0.068,-0.49768 -0.0423,-0.48438 0.0257,0.0133 0.8092,1.2626 1.7412,2.77623 l 1.69454,2.75206 -0.18278,-1.69095 c -0.22377,-2.07007 -0.2937,-2.53295 -0.47038,-3.11365 -0.3693,-1.2138 -0.86887,-1.9244 -2.48409,-3.533446 -1.84102,-1.833993 -2.46124,-2.470372 -3.35131,-3.438648 -2.38065,-2.589812 -5.14591,-4.982769 -8.02559,-6.945041 -0.61051,-0.416017 -0.69905,-0.465464 -0.82288,-0.459544 -0.0763,0.0037 -0.62808,-0.03565 -1.22615,-0.08734 -3.54688,-0.30652 -6.16746,0.05333 -10.03576,1.378093 -0.53283,0.182475 -0.97239,0.31966 -0.97681,0.304859 -0.0257,-0.08622 1.35305,-0.763932 2.25702,-1.109383 2.96435,-1.132818 6.40865,-1.403656 9.29836,-0.731158 0.2816,0.06553 0.53587,0.114953 0.56504,0.109819 0.0292,-0.0051 -0.0849,-0.09557 -0.25337,-0.200969 -2.78226,-1.740023 -3.25441,-2.02251 -5.07707,-3.037588 -3.39878,-1.892844 -6.41551,-3.130764 -9.54109,-3.915199 -0.89252,-0.223998 -2.73927,-0.62548 -2.8047,-0.609739 -0.0402,0.0097 -0.49158,0.505868 -2.451042,2.694417 -1.37448,1.535172 -1.62355,1.784453 -2.73487,2.737204 -0.63905,0.547864 -0.78627,0.696651 -1.03839,1.049461 -0.25054,0.350609 -0.30685,0.461382 -0.3827,0.752904 -0.0829,0.318575 -0.13149,0.980371 -0.0742,1.010082 0.014,0.0073 0.14205,0.0125 0.28458,0.01167 0.14254,-8.32e-4 0.38892,0.02116 0.54752,0.04888 0.26265,0.0459 1.53442,0.400925 1.8192,0.507847 0.0652,0.02448 -0.1531,-0.150939 -0.48511,-0.389816 -0.79331,-0.570775 -0.84136,-0.631118 -0.33162,-0.416485 1.27774,0.53802 2.34269,1.472778 3.944872,3.462612 0.55573,0.690207 0.86259,0.978545 1.1801,1.108915 0.69571,0.285645 1.27788,-0.259327 2.09647,-1.962507 0.20526,-0.427067 0.0796,0.273194 -0.16006,0.892329 -0.11017,0.284531 -0.12512,0.389705 -0.0793,0.557839 0.0806,0.295944 0.34525,0.797447 0.50371,0.954691 0.11936,0.118434 0.16506,0.13617 0.3885,0.150794 0.27515,0.018 0.67612,-0.08775 0.96516,-0.254559 0.1802,-0.104002 0.18258,-0.107641 0.1674,-0.256748 -0.0455,-0.446911 0.11225,-1.385174 0.27281,-1.623071 l 0.0878,-0.130139 -0.0322,0.168271 c -0.0177,0.09255 -0.0433,0.340912 -0.0568,0.55192 -0.0852,1.332005 0.33874,2.342411 1.16175,2.769033 1.03373,0.535852 3.14325,0.259931 5.2103,-0.681496 0.28356,-0.129148 1.00009,-0.48308 1.59227,-0.786518 0.59219,-0.303438 1.29715,-0.646932 1.56658,-0.763316 0.90061,-0.389039 1.7839,-0.573491 2.55361,-0.533252 0.29574,0.01546 1.06361,0.182567 1.07921,0.234862 0.004,0.01429 -0.2069,0.0095 -0.46925,-0.01068 -0.26235,-0.02016 -0.60348,-0.02766 -0.75808,-0.01666 -0.65969,0.04691 -1.49782,0.289048 -2.31179,0.667872 l -0.30867,0.143658 0.52042,-0.02528 c 1.03001,-0.05005 2.21836,0.09767 3.33051,0.414008 0.83955,0.238796 1.41895,0.282749 2.2051,0.167272 0.39581,-0.05814 0.98934,-0.291748 1.27315,-0.501094 0.50611,-0.373323 0.69591,-0.973105 0.52645,-1.663637 -0.045,-0.183178 -0.0684,-0.326128 -0.052,-0.317666 0.0906,0.04697 0.297,0.462754 0.35795,0.721151 0.10202,0.43249 0.0277,0.768712 -0.25728,1.164294 -0.19168,0.266054 -0.28089,0.347275 -0.57333,0.52197 -0.19047,0.113788 -0.51196,0.255813 -0.71441,0.315611 -0.32874,0.0971 -0.3705,0.122093 -0.39061,0.233791 -0.0342,0.190111 -0.41433,1.085948 -0.6999,1.649557 -0.31089,0.613591 -1.09572,1.757262 -1.45717,2.123423 -0.61133,0.619304 -1.22503,1.005863 -1.88127,1.184989 -1.202,0.328098 -2.9956,0.142484 -4.6819,-0.484524 -0.81774,-0.304058 -2.3565,-1.143217 -2.99372,-1.632625 -0.53308,-0.409427 -1.22195,-1.017203 -1.46854,-1.29567 l -0.17466,-0.197229 -0.29472,-0.04422 c -0.95737,-0.14364 -1.62749,-0.645546 -1.98365,-1.485732 -0.0873,-0.205976 -0.15226,-0.302456 -0.18569,-0.275841 -0.11395,0.09073 -0.69827,0.258653 -0.95496,0.274446 l -0.27341,0.01682 0.57282,0.299201 c 0.81389,0.425123 0.77883,0.394257 2.98755,2.631273 1.7535,1.775957 2.64648,2.547386 3.61383,3.121952 0.78002,0.46328 1.64019,0.72341 2.63208,0.79597 1.02937,0.0753 1.88842,-0.0213 3.72567,-0.41907 0.8325,-0.18023 1.14998,-0.27503 1.59703,-0.47686 0.69723,-0.314787 1.71583,-0.566264 2.362,-0.583144 0.25703,-0.0067 0.67573,0.02182 0.93045,0.06342 0.44049,0.07193 0.49545,0.09241 1.12511,0.419214 0.92107,0.47805 1.24502,0.79412 1.98018,1.93193 1.58358,2.45095 2.15541,4.04746 1.9431,5.42497 -0.18223,1.1823 -0.73094,2.4425 -1.62461,3.73116 l -0.46551,0.67125 0.39504,-0.0471 c 0.21727,-0.0259 0.5801,-0.093 0.80629,-0.14908 z M 103.18035,70.768582 c -0.52795,-0.559544 -1.13754,-1.114835 -1.61469,-1.470858 -0.38336,-0.286033 -1.687062,-0.965655 -2.377492,-1.239389 -0.29487,-0.116906 -0.53959,-0.224171 -0.54382,-0.238369 -0.004,-0.0142 0.077,-0.02228 0.18058,-0.01797 0.39107,0.01628 0.93197,0.143871 1.403322,0.331009 1.02288,0.406105 2.38852,1.41069 3.09449,2.276349 0.16538,0.202786 0.61961,0.959236 0.59706,0.994304 -0.0351,0.05455 -0.31814,-0.188553 -0.73945,-0.635074 z m 2.24248,-0.177942 c 0.0669,-0.755522 0.28943,-1.539013 0.85058,-2.994287 0.19262,-0.499556 0.31438,-0.737478 0.64128,-1.253062 0.35552,-0.560744 0.43793,-0.664804 0.69301,-0.875098 0.15923,-0.131272 0.29476,-0.221067 0.30118,-0.199546 0.006,0.02152 -0.20022,0.398508 -0.45921,0.837748 -0.54734,0.928294 -0.82487,1.571003 -1.31017,3.03417 -0.39905,1.203133 -0.55933,1.623948 -0.6678,1.753341 -0.0724,0.08639 -0.0795,0.04258 -0.0489,-0.303266 z M 64.175498,61.62783 c 1.98339,0.717964 6.24586,1.786332 10.26518,2.572919 0.60387,0.118177 1.21423,0.239989 1.35636,0.270692 0.14213,0.03071 0.28309,0.05051 0.31323,0.04401 0.0301,-0.0065 0.12023,-0.593825 0.20017,-1.305161 0.22688,-2.018912 0.59894,-4.450528 0.70657,-4.617913 0.0132,-0.02057 -0.22976,-0.0855 -0.53998,-0.144298 -0.31022,-0.0588 -0.59369,-0.112933 -0.62993,-0.120306 -0.0457,-0.0093 -0.0717,0.112285 -0.0847,0.39597 l -0.0188,0.409376 0.26436,0.05701 c 0.1454,0.03135 0.33764,0.06015 0.42721,0.06399 0.0896,0.0038 0.16377,0.01516 0.1649,0.02516 0.005,0.04873 -1.12031,4.729514 -1.14694,4.768629 -0.0359,0.05278 -0.61333,-0.01114 -1.3204,-0.146185 -2.6778,-0.511438 -10.10068,-2.479353 -10.88444,-2.885633 -0.20176,-0.104585 -0.25913,-0.165009 -0.39996,-0.421222 -0.20763,-0.377757 -0.45037,-1.285134 -0.56811,-2.123569 -0.05,-0.356397 -0.10367,-0.64494 -0.11918,-0.641209 -0.0155,0.0037 -0.0449,0.159781 -0.0654,0.34678 -0.0928,0.847904 0.16723,2.301575 0.46797,2.616619 0.18754,0.196469 0.9732,0.603119 1.61197,0.834329 z m -3.44215,-3.449657 c 0.0829,-0.18485 0.342,-0.608494 0.61286,-1.001875 0.46903,-0.681209 0.97916,-1.261275 1.64411,-1.869483 l 0.25815,-0.236127 0.21644,0.09601 c 0.21625,0.09593 0.21649,0.09589 0.27261,-0.04366 0.0309,-0.07682 0.0931,-0.227567 0.13816,-0.334992 l 0.082,-0.195319 -0.76176,-0.398095 -0.76175,-0.398096 -0.0925,0.193149 c -0.0508,0.106231 -0.21978,0.436309 -0.37541,0.733511 -0.29087,0.555483 -0.58902,1.238458 -0.87071,1.994508 -0.16972,0.455539 -0.5658,1.795209 -0.52808,1.786131 0.0122,-0.0029 0.0869,-0.149476 0.16581,-0.32563 z m 37.59552,17.215171 c -0.17832,-0.472572 0.0734,-1.051646 0.57216,-1.316051 l 0.26308,-0.139474 -0.31686,-0.349009 c -0.17427,-0.191954 -0.43402,-0.464575 -0.57723,-0.605817 -0.26001,-0.256452 -0.26112,-0.257076 -0.79659,-0.44603 -0.29493,-0.104067 -0.55481,-0.184748 -0.57752,-0.179283 -0.0646,0.01553 0.47387,1.692865 0.68414,2.131174 0.18968,0.39542 0.3622,0.66018 0.5909,0.906835 0.19703,0.212513 0.23877,0.211894 0.15792,-0.0023 z m 40.336872,20.581375 c 0.0462,-0.14626 0.0288,-0.29973 -0.0719,-0.63369 -0.45337,-1.50399 -0.0879,-3.61725 1.07341,-6.2064 0.30197,-0.67327 0.44139,-0.88039 0.8439,-1.25372 0.22784,-0.21132 0.88914,-0.6354 1.29603,-0.83113 l 0.23472,-0.1129 -0.18926,0.0162 c -0.3705,0.0318 -0.97198,0.23498 -1.31529,0.44441 -0.62519,0.38138 -0.97524,0.79395 -1.305,1.53811 -1.21285,2.73698 -1.58208,4.86815 -1.09345,6.31121 0.11732,0.34649 0.3662,0.85942 0.4387,0.90416 0.0149,0.009 0.0546,-0.0701 0.0881,-0.17627 z M 100.15286,75.561633 c 0.13887,-0.03701 0.25935,-0.07759 0.26771,-0.09018 0.008,-0.01269 -0.0373,-0.07512 -0.10143,-0.138962 -0.0642,-0.06385 -0.2014,-0.222187 -0.30499,-0.351863 l -0.188332,-0.235779 -0.11297,0.08267 c -0.16185,0.118449 -0.21185,0.306759 -0.1332,0.50161 0.099,0.245308 0.26801,0.313849 0.573212,0.232501 z m 43.88138,22.862996 c 0.58422,0.20719 1.29881,0.37404 1.62617,0.37969 0.27423,0.005 0.2714,0.007 0.98508,-0.87318 0.70317,-0.86747 1.83831,-2.6316 2.17744,-3.38396 0.76757,-1.70287 0.9606,-3.04739 0.61087,-4.25485 -0.22454,-0.77525 -0.77934,-1.54728 -1.3071,-1.81888 -0.45833,-0.23587 -1.41055,-0.39289 -1.86978,-0.30833 l -0.25794,0.0475 0.31612,0.0576 c 0.40976,0.0747 1.06457,0.29054 1.3784,0.45438 0.33983,0.17742 0.75657,0.52222 0.94637,0.78301 0.18998,0.26103 0.39974,0.77511 0.47109,1.15455 0.12505,0.66502 -0.0139,1.30054 -0.58766,2.68672 -0.85646,2.06932 -2.43358,5.07522 -2.75767,5.25595 -0.18423,0.10274 -0.44231,0.0381 -1.29101,-0.32333 -0.84335,-0.35916 -1.26812,-0.46288 -1.35329,-0.33044 -0.0526,0.0818 0.24773,0.23764 0.91282,0.47371 z M 94.328178,71.432473 c 0.0222,-0.06841 0.056,-0.401687 0.0751,-0.740608 0.0191,-0.338921 0.0753,-0.731916 0.12492,-0.873322 l 0.0902,-0.257103 -0.37433,-0.194041 -0.37433,-0.19404 0.0265,0.211948 c 0.059,0.471332 0.35234,2.151275 0.37789,2.164521 0.007,0.0039 0.0318,-0.04894 0.054,-0.117355 z M 64.946608,55.840651 c 0.0342,-0.0063 0.15525,-0.395012 0.18264,-0.586346 l 0.0221,-0.154388 -0.43638,-0.179585 c -0.24001,-0.09877 -0.44825,-0.176729 -0.46274,-0.173244 -0.0298,0.0072 -0.26191,0.578948 -0.26215,0.645812 -1.5e-4,0.03922 0.89636,0.458874 0.95653,0.447751 z m 1.39075,0.540515 c 0.38988,0.144359 0.72162,0.259412 0.73719,0.255663 0.0156,-0.0037 0.0961,-0.162933 0.17895,-0.353742 0.1475,-0.339734 0.148,-0.347753 0.0239,-0.38659 -0.0697,-0.02181 -0.49638,-0.176386 -0.9482,-0.343495 -0.45182,-0.16711 -0.83614,-0.30031 -0.85406,-0.296 -0.0179,0.0043 -0.065,0.143801 -0.1046,0.309981 -0.0396,0.166179 -0.0788,0.328744 -0.0871,0.361261 -0.0102,0.04 0.0432,0.08035 0.16498,0.12478 0.099,0.03611 0.49899,0.183779 0.88887,0.328142 z m 2.15009,0.719879 c 0.0447,-0.01075 0.22422,-0.704211 0.18756,-0.724453 -0.0137,-0.0076 -0.23987,-0.08464 -0.50258,-0.171261 l -0.47765,-0.157493 -0.0876,0.195654 c -0.0482,0.10761 -0.11031,0.269476 -0.1381,0.359698 l -0.0505,0.164043 0.51542,0.171478 c 0.28349,0.09431 0.53254,0.167365 0.55345,0.162334 z m 44.101172,22.882236 c 1.3403,0.555193 2.62282,0.796841 3.84821,0.725063 0.58246,-0.03412 0.90205,-0.128098 1.32798,-0.390506 0.67597,-0.416458 1.2699,-1.107372 1.75835,-2.045457 0.2863,-0.549849 0.59174,-1.238889 0.57463,-1.296253 -0.004,-0.01417 -0.16228,-0.04915 -0.35123,-0.07772 -0.18894,-0.02857 -0.57342,-0.11914 -0.85442,-0.201266 -0.74829,-0.218701 -1.61572,-0.355612 -2.77098,-0.437359 l -1.02264,-0.07236 -0.85848,0.445087 c -1.60409,0.831655 -2.66821,1.251899 -3.82108,1.509019 -0.34604,0.07717 -0.6263,0.14991 -0.6228,0.161635 0.0118,0.03935 0.75738,0.580431 1.11553,0.809501 0.52397,0.335132 1.07571,0.621577 1.67692,0.870638 z m 1.44799,-0.03455 c -0.36305,-0.392878 -0.51241,-0.845418 -0.45977,-1.392996 0.0243,-0.252628 0.0596,-0.338303 0.2824,-0.685219 0.23374,-0.364402 0.28018,-0.41234 0.56901,-0.5916 0.52422,-0.325342 1.27481,-0.424612 1.81337,-0.239822 l 0.20035,0.06874 -0.11401,0.08343 c -0.0627,0.04589 -0.16524,0.163111 -0.22787,0.260493 -0.48115,0.748246 0.39221,1.66815 1.28523,1.353716 0.1204,-0.0424 0.23239,-0.0701 0.24886,-0.06156 0.0165,0.0085 0.007,0.138801 -0.021,0.289482 -0.17939,0.963847 -1.067,1.608559 -2.14865,1.560663 -0.30575,-0.01354 -0.39638,-0.0399 -0.79489,-0.231184 -0.36134,-0.173447 -0.48581,-0.254891 -0.63298,-0.414148 z M 69.630638,57.482162 c 0.34753,0.108349 0.64447,0.193965 0.65988,0.190259 0.0302,-0.0073 0.22626,-0.656776 0.21235,-0.7034 -0.0107,-0.03584 -1.39529,-0.47158 -1.45968,-0.459367 -0.0386,0.0073 -0.15117,0.358931 -0.21445,0.670043 -0.006,0.03083 0.0294,0.06717 0.0793,0.08076 0.0499,0.01359 0.37506,0.113354 0.72258,0.221705 z m 1.6101,0.481482 c 0.28539,0.08481 0.54238,0.15024 0.5711,0.145394 0.0475,-0.008 0.1537,-0.573705 0.12954,-0.689843 -0.0151,-0.07254 -1.0944,-0.390974 -1.11233,-0.328182 -0.008,0.0285 -0.0581,0.189894 -0.11104,0.358661 -0.0529,0.168768 -0.0737,0.318756 -0.0462,0.333307 0.0275,0.01453 0.28354,0.09585 0.56893,0.180663 z m 1.70412,0.469825 0.67911,0.187298 0.0972,-0.356732 c 0.0782,-0.286979 0.0803,-0.363392 0.0109,-0.390794 -0.11851,-0.04681 -1.43151,-0.405181 -1.45968,-0.398403 -0.0125,0.003 -0.0284,0.094 -0.0354,0.202211 -0.007,0.108211 -0.0313,0.274973 -0.0541,0.370582 -0.0228,0.09561 -0.0135,0.179392 0.0207,0.186186 0.0342,0.0068 0.36772,0.09664 0.74124,0.199652 z m 1.76656,0.458304 0.70126,0.171557 0.0259,-0.402387 c 0.0142,-0.221314 0.0209,-0.404471 0.0148,-0.407016 -0.006,-0.0025 -0.30453,-0.06772 -0.6632,-0.144823 l -0.65213,-0.140197 -0.0704,0.226955 c -0.0918,0.295778 -0.1251,0.489289 -0.0876,0.508751 0.0165,0.0086 0.34567,0.0928 0.73136,0.18716 z m 2.79385,-0.09244 c 0.12165,-0.394573 0.42722,-0.852381 0.65906,-0.987409 0.37169,-0.216479 0.74393,-0.224967 2.82014,-0.0643 0.32917,0.02547 0.78915,0.03764 1.02219,0.02705 0.42097,-0.01914 0.95953,-0.101355 0.98779,-0.150794 0.008,-0.01421 -0.014,-0.08405 -0.0492,-0.1552 l -0.064,-0.129366 -0.98821,-0.03937 c -1.75675,-0.06999 -3.41446,-0.02768 -3.90008,0.09956 l -0.2089,0.05473 -0.12641,0.307315 c -0.17551,0.426695 -0.42656,1.535746 -0.31881,1.408372 0.0451,-0.05335 0.12002,-0.220112 0.16641,-0.370586 z m 7.91243,1.672312 c 0.1942,-0.482258 0.89892,-1.498012 1.27421,-1.836616 0.84978,-0.766692 1.84319,-1.309906 3.26555,-1.785661 0.7164,-0.239626 2.51725,-0.661284 3.44412,-0.806424 5.92363,-0.927584 13.994892,-0.471819 21.583972,1.218795 5.33793,1.189126 10.17821,2.815523 15.56187,5.228987 1.29112,0.578798 5.96396,3.001152 7.15174,3.707392 3.61144,2.147305 7.09267,4.514512 9.73624,6.620548 l 0.1258,0.100223 0.067,-0.249172 c 0.0368,-0.137045 0.0641,-0.259725 0.0607,-0.272624 -0.0177,-0.06606 -1.36376,-1.338862 -2.1206,-2.005194 -1.87213,-1.648224 -3.95536,-3.166609 -6.31235,-4.600813 -1.01632,-0.618424 -4.89096,-2.628554 -6.02483,-3.125631 -3.51729,-1.541951 -6.81181,-2.765652 -11.40335,-4.235601 -1.69351,-0.542165 -4.71913,-1.456893 -5.78071,-1.74767 -5.60885,-1.536316 -11.62864,-2.19171 -17.058362,-1.857202 -6.05454,0.373002 -10.84917,1.87461 -12.93752,4.051846 -0.37182,0.387646 -0.52664,0.63594 -0.65704,1.053769 -0.0902,0.288941 -0.1711,0.849693 -0.12599,0.873076 0.007,0.0038 0.0746,-0.145655 0.14962,-0.332021 z m -1.38115,-3.226287 c 0.9044,-0.406492 2.30521,-0.561656 3.70857,-0.41079 0.55338,0.05949 0.5869,0.05637 0.8859,-0.08254 0.17091,-0.07941 0.30818,-0.152977 0.30505,-0.16349 -0.0131,-0.04379 -1.19406,-0.310136 -1.57299,-0.354753 -1.38498,-0.163079 -2.6531,0.04079 -3.57659,0.574987 l -0.16583,0.09593 0.0751,0.213749 c 0.0413,0.117562 0.0826,0.217681 0.0919,0.222486 0.009,0.0048 0.12129,-0.0382 0.24893,-0.09557 z m 63.967142,30.811051 0.2962,0.12072 0.12655,-0.25705 c 0.25907,-0.52618 0.44798,-1.08385 0.40013,-1.18116 -0.0788,-0.1602 -0.82778,-0.48018 -0.96679,-0.41303 -0.0218,0.0105 -0.0615,0.11193 -0.0881,0.22529 -0.0266,0.11337 -0.11202,0.45496 -0.18978,0.7591 -0.13967,0.54629 -0.13976,0.55341 -0.008,0.5892 0.0734,0.0199 0.26677,0.0905 0.42969,0.15693 z m -3.56278,-3.35402 c 0.006,-0.0389 -0.0103,-0.035 -0.0421,0.0101 -0.0288,0.0408 -0.0334,0.0696 -0.0103,0.064 0.0231,-0.006 0.0467,-0.0389 0.0523,-0.0742 z m 0.0578,-0.18143 c 0.006,-0.0389 -0.0103,-0.035 -0.0421,0.0101 -0.0288,0.0408 -0.0334,0.0696 -0.0103,0.064 0.0231,-0.006 0.0467,-0.0389 0.0523,-0.0742 z m 0.84045,-2.46854 c 1.15519,-3.399354 2.30933,-6.900297 2.63164,-7.982755 0.28829,-0.968189 0.61967,-1.773871 1.0416,-2.532402 l 0.24265,-0.436215 0.42528,-0.02413 c 0.45006,-0.02554 0.91874,0.0053 1.16809,0.07673 l 0.15038,0.04311 -0.1854,0.685014 c -0.54466,2.0123 -0.85659,3.116815 -1.46183,5.176162 -0.67393,2.293087 -0.83096,2.87147 -0.77603,2.858253 0.0495,-0.01191 0.24454,-0.568904 1.20911,-3.452923 1.62878,-4.869942 1.68936,-5.040918 1.77763,-5.016834 0.1513,0.04128 0.48211,0.351979 0.4614,0.43334 -0.0206,0.08092 -3.95577,13.6108 -4.0589,13.95529 l -0.0573,0.19127 0.21832,0.0477 c 0.18207,0.0398 0.22801,0.0313 0.2766,-0.0511 0.0321,-0.0543 0.95357,-3.14262 2.04782,-6.862796 1.09425,-3.720171 2.05231,-6.973127 2.12904,-7.228787 l 0.1395,-0.464836 -0.24743,-0.220209 c -0.14707,-0.130889 -0.4756,-0.348067 -0.80995,-0.535423 -0.85767,-0.480606 -1.41302,-0.586194 -2.19298,-0.416943 -0.36875,0.08002 -0.90758,0.306177 -0.90544,0.380034 7.3e-4,0.02501 -2.48291,8.411717 -2.86367,9.670032 -0.52698,1.741508 -1.20629,4.072418 -1.18538,4.067388 0.0141,-0.003 0.38547,-1.06491 0.82521,-2.35892 z m -54.631092,-27.358964 0.31629,0.103141 -0.0839,-0.317662 c -0.0461,-0.174714 -0.17709,-0.704863 -0.29099,-1.17811 -0.19722,-0.819457 -0.21496,-0.864278 -0.37236,-0.940856 -0.0909,-0.04423 -0.21969,-0.09288 -0.28619,-0.108119 -0.11816,-0.02708 -0.11952,-0.0186 -0.0599,0.373286 0.0336,0.220548 0.11255,0.743821 0.1755,1.162829 0.0823,0.547737 0.13845,0.767526 0.19984,0.782092 0.047,0.01114 0.22771,0.06667 0.40167,0.123399 z m -5.14089,-5.27832 c 0.14182,-0.220551 0.69814,-0.512728 1.17592,-0.617594 0.68941,-0.151313 1.73549,-0.116979 2.66229,0.08738 0.27265,0.06012 0.39897,0.06767 0.40663,0.02431 0.006,-0.0346 -0.0219,-0.30676 -0.0623,-0.604807 -0.0588,-0.434484 -0.0959,-0.554588 -0.18692,-0.605888 -0.25841,-0.145604 -0.48705,-0.233246 -0.66107,-0.253402 l -0.18467,-0.02139 0.0451,0.261248 c 0.0248,0.143687 0.0656,0.379464 0.0905,0.52395 0.025,0.144485 0.0336,0.264991 0.0191,0.26779 -0.0145,0.0028 -0.16703,-0.0026 -0.33904,-0.01203 -1.41311,-0.07738 -2.52159,0.236372 -3.00347,0.850113 -0.13533,0.172368 -0.16616,0.234609 -0.11553,0.233246 0.038,-10e-4 0.10697,-0.06084 0.15333,-0.132923 z m 4.63097,2.587793 0.1253,0.02889 -0.0535,-0.237423 c -0.0294,-0.130581 -0.0887,-0.439055 -0.13173,-0.685496 -0.0837,-0.479458 -0.14501,-0.565319 -0.51549,-0.722348 l -0.18042,-0.07647 0.10678,0.195014 c 0.0587,0.107257 0.14039,0.451697 0.18146,0.76542 0.0794,0.606182 0.10684,0.649228 0.46756,0.732411 z m -0.31121,-1.822283 c 0.0532,0.03046 0.10193,0.04745 0.10817,0.03775 0.006,-0.0097 -0.0198,-0.222414 -0.0579,-0.472695 -0.0769,-0.504967 -0.0301,-0.460563 -0.61575,-0.585063 l -0.28481,-0.06055 0.11885,0.41901 0.11884,0.419009 0.2579,0.09357 c 0.14184,0.05146 0.30146,0.118496 0.35472,0.148962 z m -4.3492,-3.975937 c 0.70193,-0.409544 1.97957,-0.493555 3.37471,-0.221903 0.29246,0.05694 0.54008,0.103578 0.55027,0.103631 0.0102,5.3e-5 -0.027,-0.376704 -0.0827,-0.837237 l -0.10125,-0.837332 -0.2436,-0.119903 c -0.13399,-0.06594 -0.32519,-0.129386 -0.4249,-0.140977 l -0.18128,-0.02108 0.0476,0.745981 0.0477,0.745981 -0.41939,-0.02435 c -1.41069,-0.08191 -2.53238,0.227605 -2.9975,0.827123 l -0.17545,0.226147 0.17381,-0.147721 c 0.0956,-0.08125 0.29,-0.215511 0.432,-0.298363 z m 3.86436,1.073101 c 0.11441,0.03862 0.20998,0.05477 0.21236,0.0359 0.0147,-0.11636 -0.0967,-0.899511 -0.13064,-0.91813 -0.0227,-0.01246 -0.23609,-0.06316 -0.47422,-0.112664 l -0.43296,-0.09001 0.017,0.178297 c 0.009,0.09806 0.0327,0.309248 0.0518,0.469298 l 0.0347,0.291001 0.25695,0.03805 c 0.14131,0.02093 0.35055,0.06965 0.46497,0.10826 z m -4.1646,-4.40353 c 0.66764,-0.383812 1.91219,-0.461046 3.29653,-0.204574 0.28313,0.05245 0.52564,0.09455 0.53891,0.09355 0.0338,-0.0025 -0.021,-0.593317 -0.0745,-0.803324 -0.0385,-0.150897 -0.0757,-0.18959 -0.28221,-0.293435 -0.42281,-0.21257 -0.44263,-0.199923 -0.37661,0.240345 0.0319,0.212456 0.0461,0.388652 0.0316,0.391547 -0.0145,0.0029 -0.26918,-0.0078 -0.56597,-0.02378 -0.74928,-0.04032 -1.31929,0.0055 -1.87977,0.150944 -0.59328,0.154008 -0.94049,0.362209 -1.19094,0.71413 l -0.17859,0.250946 0.23309,-0.196268 c 0.1282,-0.107947 0.33002,-0.251986 0.44848,-0.320087 z m 67.829472,31.617407 c 0.79367,-1.272461 0.8821,-1.466602 0.85428,-1.875541 -0.0197,-0.290032 -0.27409,-0.627582 -0.64681,-0.858343 -0.22957,-0.142133 -0.28307,-0.161529 -0.29321,-0.106292 -0.007,0.03716 -0.059,0.217151 -0.11591,0.399974 -0.0792,0.254427 -0.0849,0.33599 -0.0242,0.347687 0.0436,0.0084 0.18521,0.03182 0.31465,0.05203 0.28084,0.04386 0.45466,0.170511 0.46526,0.339015 0.014,0.222682 -0.24743,0.71621 -1.14503,2.161435 -0.77313,1.244811 -0.89266,1.457694 -0.88494,1.575973 0.009,0.131866 0.022,0.118983 0.37501,-0.360527 0.20134,-0.273504 0.69675,-1.027441 1.10091,-1.675416 z M 88.813818,43.900253 c 0.1264,0.02541 0.27583,0.07006 0.33208,0.09922 0.0935,0.04847 0.0974,0.01193 0.0458,-0.427017 -0.0535,-0.45523 -0.0641,-0.482215 -0.20501,-0.522379 -0.30118,-0.08584 -0.52542,-0.103396 -0.54566,-0.04271 -0.0112,0.03368 -0.0205,0.233491 -0.0206,0.444018 -1.6e-4,0.276634 0.0225,0.385535 0.0817,0.392723 0.045,0.0055 0.18531,0.03074 0.31171,0.05615 z m -4.03059,-4.061589 c 0.81416,-0.277609 2.31845,-0.252826 3.6512,0.06015 0.1758,0.04128 0.3275,0.06282 0.33711,0.04787 0.0271,-0.04213 -0.0281,-0.496175 -0.0876,-0.720638 -0.079,-0.298066 -0.3491,-0.53527 -0.76958,-0.675863 -0.17942,-0.06 -0.35883,-0.108203 -0.39868,-0.10713 -0.0451,0.0012 0.0128,0.113394 0.15354,0.29749 0.2155,0.281817 0.37004,0.606972 0.32249,0.67851 -0.0122,0.01834 -0.27188,0.02283 -0.57707,0.01 -1.18859,-0.05012 -2.27122,0.08739 -2.78059,0.353155 -0.14098,0.07355 -0.2674,0.15058 -0.28094,0.171172 -0.0279,0.04239 -0.0401,0.04565 0.43011,-0.114681 z m 3.89569,1.501869 0.28509,0.119933 -0.0654,-0.582011 c -0.036,-0.320106 -0.0804,-0.589757 -0.0986,-0.599225 -0.0301,-0.01561 -0.49539,-0.125044 -0.65932,-0.155071 -0.043,-0.0079 -0.0389,0.18439 0.0114,0.531521 0.0552,0.381062 0.10319,0.547018 0.16031,0.554394 0.0448,0.0058 0.20981,0.0645 0.36661,0.130459 z m -0.85105,-3.135274 c 0.0156,-0.002 -0.0205,-0.176892 -0.0803,-0.388751 -0.24082,-0.853543 -0.45077,-2.332698 -0.50578,-3.563322 -0.0459,-1.026563 -0.23526,-1.488198 -0.82187,-2.003407 -0.2209,-0.194016 -0.25984,-0.213805 -0.56258,-0.285895 -0.17889,-0.0426 -0.32072,-0.06224 -0.31517,-0.04365 0.006,0.01859 0.0891,0.116616 0.18576,0.217828 0.48381,0.506816 0.71601,1.119075 0.86813,2.289082 0.1484,1.141366 0.25407,1.7875 0.45998,2.812413 l 0.16697,0.831127 0.2882,0.06906 c 0.15851,0.03798 0.30098,0.06746 0.31661,0.06551 z m 38.439852,16.072898 c 0.0328,-0.3113 -0.13761,-0.948174 -0.32605,-1.218658 -0.14704,-0.211056 -0.11801,-0.24734 0.10527,-0.1316 0.29684,0.153877 0.93962,0.239845 1.74603,0.23352 1.26065,-0.0099 1.89321,0.09188 2.92536,0.470617 l 0.49402,0.181274 -0.65167,-0.313892 c -0.87028,-0.419197 -1.19923,-0.508604 -1.92229,-0.522464 -0.32412,-0.0062 -0.81853,-0.02557 -1.09868,-0.04301 -0.54357,-0.03384 -1.78861,-0.285774 -2.2056,-0.446304 l -0.25222,-0.0971 0.24527,0.336765 c 0.38616,0.530219 0.8962,1.473549 0.80816,1.494727 -0.0152,0.0037 -0.14554,-0.176136 -0.28968,-0.399534 -0.72792,-1.128238 -1.86046,-2.265035 -3.09956,-3.111231 -0.79089,-0.540104 -2.10626,-1.174628 -2.94547,-1.420865 -1.45624,-0.427282 -2.84431,-0.569095 -3.77019,-0.385182 l -0.36848,0.07319 0.26628,-0.0022 c 1.25395,-0.0102 2.71283,0.270265 3.97784,0.76473 0.62978,0.246165 2.22665,1.119988 2.7601,1.510352 1.17541,0.860125 2.20909,1.842848 3.14806,2.992872 0.23398,0.286577 0.34297,0.390583 0.37657,0.359357 0.026,-0.02417 0.0606,-0.170599 0.0769,-0.325401 z M 80.547108,29.553614 c 1.81672,-0.6411 3.41764,-0.652056 4.25277,-0.02911 0.32104,0.239478 0.3248,0.251649 0.40345,1.308239 l 0.0533,0.716438 0.36435,0.07193 c 0.23614,0.04662 0.371,0.05095 0.38322,0.01229 0.0203,-0.06405 -0.18089,-2.11546 -0.25114,-2.561233 l -0.0424,-0.268888 -0.41816,-0.04281 c -0.9957,-0.101929 -2.26171,0.0026 -3.95591,0.326773 -0.42665,0.08163 -0.89854,0.179779 -1.04864,0.21812 l -0.27292,0.06971 0.0187,0.175483 c 0.0103,0.09652 0.0276,0.172806 0.0385,0.169534 0.0109,-0.0033 0.2246,-0.0782 0.47482,-0.166493 z m 2.89585,-1.070779 c 0.13073,-0.0097 0.24526,-0.04142 0.25452,-0.07049 0.0338,-0.10602 -1.30469,-9.793069 -1.35683,-9.820096 -0.0296,-0.01532 -0.14523,-0.03841 -0.25707,-0.05132 -0.18572,-0.02143 -0.20253,-0.0141 -0.19409,0.08469 0.0266,0.310861 1.28163,9.852474 1.29731,9.862741 0.0102,0.0067 0.12544,0.0042 0.25616,-0.0055 z m -1.62229,-4.4605 c 0.0417,-0.659179 -0.17026,-2.621283 -0.48428,-4.482984 -0.19325,-1.14572 -0.17637,-1.109187 -0.49656,-1.075141 -0.11632,0.01237 -0.1153,0.04178 0.021,0.609323 0.28496,1.186364 0.55927,2.724533 0.76514,4.290379 0.0648,0.492784 0.13193,0.892571 0.1492,0.888415 0.0173,-0.0042 0.0377,-0.107652 0.0455,-0.229992 z m -0.7752,-5.883937 c 0.0362,-0.0563 -0.0999,-0.744418 -0.1523,-0.770074 -0.0557,-0.02725 -0.40386,0.03305 -0.43056,0.07458 -0.0108,0.01676 0.0275,0.191754 0.0851,0.388868 l 0.10472,0.358389 0.18422,-0.0068 c 0.10132,-0.0037 0.19528,-0.02397 0.20881,-0.045 z m 1.13076,0.12518 c 0.19247,0.02402 0.37767,0.03084 0.41154,0.01515 0.1385,-0.06414 0.29758,-0.392155 0.28155,-0.580517 -0.0136,-0.159334 -0.0399,-0.198264 -0.17364,-0.25632 -0.0867,-0.03765 -0.25829,-0.08373 -0.3813,-0.1024 l -0.22367,-0.03395 -0.027,0.225047 c -0.0148,0.123777 -0.078,0.327577 -0.1405,0.452889 -0.0625,0.125313 -0.10983,0.229774 -0.10527,0.232136 0.005,0.0024 0.16576,0.02395 0.35824,0.04797 z m -1.51703,-1.175265 0.20095,-0.05251 -0.0866,-0.389865 c -0.14606,-0.657367 -0.4323,-1.849005 -0.6131,-2.552344 l -0.17185,-0.668539 0.15133,-0.03185 c 0.19375,-0.04077 0.62142,-0.0035 0.75869,0.0662 0.2732,0.138625 1.05654,2.364604 1.16002,3.296375 l 0.0288,0.259571 0.34033,0.06686 c 0.18717,0.03677 0.34682,0.05763 0.35477,0.04634 0.008,-0.01128 -0.0713,-0.432874 -0.17623,-0.936868 -0.24306,-1.168097 -0.74951,-2.945426 -0.88422,-3.103046 -0.19488,-0.228022 -0.65983,-0.277829 -1.35433,-0.14508 -0.38205,0.07303 -1.47398,0.437795 -1.7002,0.567965 -0.13727,0.07899 -0.13776,0.08303 -0.0337,0.28081 0.058,0.110368 0.11727,0.197266 0.13159,0.193108 0.0143,-0.0042 0.12809,-0.06772 0.2528,-0.141253 l 0.22675,-0.133692 0.28992,0.828869 c 0.15945,0.455877 0.41185,1.215938 0.56088,1.689023 0.14902,0.473085 0.29155,0.871918 0.31671,0.886295 0.0252,0.01438 0.13619,0.0025 0.24671,-0.02637 z"
       id="path1640" />
    <rect
       style="fill:none;stroke:#ff0000;stroke-width:0.110149;stroke-miterlimit:4;stroke-dasharray:none;stroke-opacity:1"
       id="rect1686"
       width="147.54121"
       height="176.6821"
       x="29.191595"
       y="9.5308342" />
  </g>
</svg>
