<?xml version="1.0" encoding="UTF-8" standalone="no"?>
<svg
   xmlns:dc="http://purl.org/dc/elements/1.1/"
   xmlns:cc="http://creativecommons.org/ns#"
   xmlns:rdf="http://www.w3.org/1999/02/22-rdf-syntax-ns#"
   xmlns:svg="http://www.w3.org/2000/svg"
   xmlns="http://www.w3.org/2000/svg"
   xmlns:sodipodi="http://sodipodi.sourceforge.net/DTD/sodipodi-0.dtd"
   xmlns:inkscape="http://www.inkscape.org/namespaces/inkscape"
   version="1.1"
   id="svg887"
   width="800"
   height="800"
   viewBox="0 0 800 800"
   sodipodi:docname="vector-graphic-initials-letter-sw-logo-design-template-emblem-hexagon-204622470.jpg.svg"
   inkscape:version="1.0.1 (0767f8302a, 2020-10-17)">
  <metadata
     id="metadata893">
    <rdf:RDF>
      <cc:Work
         rdf:about="">
        <dc:format>image/svg+xml</dc:format>
        <dc:type
           rdf:resource="http://purl.org/dc/dcmitype/StillImage" />
        <dc:title></dc:title>
      </cc:Work>
    </rdf:RDF>
  </metadata>
  <defs
     id="defs891" />
  <sodipodi:namedview
     pagecolor="#ffffff"
     bordercolor="#666666"
     borderopacity="1"
     objecttolerance="10"
     gridtolerance="10"
     guidetolerance="10"
     inkscape:pageopacity="0"
     inkscape:pageshadow="2"
     inkscape:window-width="1853"
     inkscape:window-height="1025"
     id="namedview889"
     showgrid="false"
     inkscape:zoom="1.0975"
     inkscape:cx="511.03503"
     inkscape:cy="436.44647"
     inkscape:window-x="67"
     inkscape:window-y="27"
     inkscape:window-maximized="1"
     inkscape:current-layer="g895" />
  <g
     inkscape:groupmode="layer"
     inkscape:label="Image"
     id="g895">
    <path
       style="fill:#000000;stroke-width:1.00298"
       d="m 395.36871,591.27545 c -1.84001,-1.24562 -6.14167,-3.76443 -9.55926,-5.59736 -3.41758,-1.83293 -6.0134,-3.65792 -5.76846,-4.05554 0.24493,-0.39761 -0.33837,-0.66095 -1.29623,-0.5852 -0.96321,0.0762 -1.6186,-0.45688 -1.46642,-1.19272 0.15133,-0.73175 -0.19604,-1.03829 -0.77194,-0.68119 -0.92062,0.57084 -28.28366,-14.89363 -117.66091,-66.49712 l -24.03208,-13.87534 -0.13674,-96.94377 c -0.0752,-53.31907 0.0112,-96.26565 0.19208,-95.43684 0.18086,0.82882 0.67303,5.57567 1.09374,10.54856 0.4207,4.97289 0.93407,7.72941 1.14084,6.12562 0.42341,-3.28434 2.80553,-6.36076 3.44197,-4.44518 0.21201,0.6381 1.35552,-0.48934 2.54114,-2.50542 1.4685,-2.49709 2.6481,-3.47604 3.70035,-3.07093 1.44167,0.55504 1.67808,1.23186 1.94326,5.56322 0.0562,0.91703 0.46384,2.03345 0.906,2.48094 0.44216,0.44749 0.56281,0.14928 0.26809,-0.66269 -0.2947,-0.81198 0.32471,-2.59728 1.37646,-3.96736 l 1.91228,-2.49104 -2.68104,-1.29145 c -1.47458,-0.71029 -1.80511,-1.03913 -0.73453,-0.73075 1.89793,0.54669 1.9003,0.50943 0.0951,-1.49179 -1.70085,-1.8856 -1.71183,-2.05248 -0.13508,-2.05248 0.94396,0 1.45706,-0.42085 1.1402,-0.9352 -0.31686,-0.51437 -0.11814,-1.21917 0.44157,-1.56623 0.55972,-0.34706 1.02457,-0.26528 1.033,0.18173 0.0553,2.92901 1.74816,3.17254 6.22983,0.89618 2.56411,-1.30239 4.44359,-2.58713 4.1766,-2.85498 -0.26697,-0.26786 1.63526,-1.48713 4.2272,-2.70948 3.8118,-1.79765 5.17194,-2.01251 7.11555,-1.12403 1.87196,0.85572 2.87974,0.76339 4.56073,-0.41789 1.18678,-0.83399 1.63352,-1.51634 0.99274,-1.51634 -0.64077,0 -1.44352,0.45208 -1.7839,1.00462 -0.80075,1.2999 -2.50334,1.2999 -2.50334,0 0,-0.55254 0.69004,-1.00462 1.53343,-1.00462 0.84339,0 1.79789,-0.69141 2.1211,-1.53646 0.50781,-1.32765 0.76894,-1.29353 1.92144,0.25115 1.25105,1.67674 1.30315,1.663 0.83993,-0.22163 -0.32212,-1.31055 0.2175,-2.44889 1.55182,-3.27353 2.22871,-1.37744 2.77237,-0.36898 0.84404,1.56567 -0.93458,0.93765 -0.93458,1.20555 0,1.20555 0.66088,0 1.20161,-0.45208 1.20161,-1.00462 0,-0.55255 0.62072,-1.00463 1.3794,-1.00463 0.75866,0 1.91811,-0.65124 2.57655,-1.44722 0.65844,-0.79597 1.74039,-1.23808 2.40435,-0.98245 0.66395,0.25562 1.99008,-0.11032 2.94695,-0.81318 1.57308,-1.15552 1.48366,-1.29275 -0.93324,-1.43243 -1.91016,-0.11037 -2.27197,0.10026 -1.26782,0.73809 0.92055,0.58473 0.99065,0.89786 0.20325,0.90794 -0.66105,0.008 -1.56225,-0.59065 -2.00267,-1.33135 -1.21008,-2.03512 -4.73198,-2.56418 -6.8289,-1.02584 -1.0449,0.76656 -1.31432,1.36795 -0.61283,1.36795 0.6885,0 0.9761,0.44758 0.63911,0.99461 -0.38614,0.62685 -1.10029,0.53766 -1.93134,-0.24121 -1.07644,-1.00885 -0.83683,-1.52934 1.30461,-2.83386 3.62706,-2.20954 7.88691,-3.17382 8.31595,-1.88245 0.46688,1.40522 7.19926,1.98547 8.9482,0.77124 0.94749,-0.65783 0.59776,-0.73481 -1.11501,-0.24541 -2.32031,0.66298 -2.3906,0.58387 -1.00134,-1.12692 1.36978,-1.68678 1.32744,-1.77751 -0.50852,-1.09002 -1.44965,0.54285 -1.70206,0.44577 -0.91406,-0.35154 0.75936,-0.76833 1.89508,-0.79385 3.75501,-0.0844 3.4414,1.31271 3.43952,0.53277 -0.003,-1.27691 l -2.66947,-1.40327 3.0717,0.1154 c 1.68944,0.0635 2.88336,0.42324 2.65314,0.79946 -0.77957,1.27404 1.59011,1.94233 3.36118,0.9479 1.56664,-0.87963 1.45736,-1.1039 -0.9934,-2.03875 -3.62864,-1.38414 -3.85441,-5.11863 -0.3095,-5.11863 1.34433,0 2.72124,0.44965 3.05978,0.99922 1.19886,1.94618 4.34508,3.09406 5.10395,1.86215 0.48397,-0.78566 0.26019,-0.8934 -0.69023,-0.33234 -0.77351,0.45662 -0.548,-0.15165 0.50115,-1.35172 1.97258,-2.25635 5.28612,-3.102 4.00487,-1.02209 -0.44268,0.71861 -0.27469,0.88715 0.44156,0.44302 1.15717,-0.71751 1.64252,-3.61211 0.60566,-3.61211 -0.30271,0 -1.85425,0.67646 -3.44785,1.50324 -1.96708,1.02056 -3.10866,1.1604 -3.55521,0.43548 -0.36178,-0.58727 -0.38735,-1.33908 -0.0569,-1.67069 0.33052,-0.3316 0.60094,-0.0832 0.60094,0.55199 0,0.71203 1.35563,0.39099 3.53514,-0.83718 4.40867,-2.48434 4.46898,-2.48075 4.506,0.26831 0.0269,2.00092 0.14626,2.06103 1.03923,0.52359 0.55483,-0.95526 0.87908,-1.89171 0.72055,-2.08101 -0.15852,-0.18931 0.46815,-1.10303 1.39259,-2.03052 1.9155,-1.92179 6.36842,-2.3698 5.23293,-0.52649 -0.44623,0.72438 -0.2743,0.88691 0.4579,0.4329 0.64481,-0.39982 0.91315,-1.1478 0.59628,-1.66216 -0.84027,-1.36406 0.91121,-1.1437 2.54788,0.32057 1.19413,1.06833 1.20572,0.99334 0.0777,-0.50231 -1.0685,-1.41668 -1.07532,-1.75809 -0.0352,-1.75809 0.70996,0 1.02902,-0.26267 0.70904,-0.58371 -0.31999,-0.32104 -1.63424,-0.021 -2.92056,0.66679 -2.12867,1.13816 -2.21532,1.10034 -0.9645,-0.42092 1.19437,-1.45258 1.1335,-1.67141 -0.4649,-1.67141 -3.24153,0 0.72445,-2.99863 4.85554,-3.67121 3.26404,-0.53143 3.57138,-0.38982 3.09777,1.42725 -0.28919,1.10946 -0.0162,2.33318 0.60665,2.71938 1.28647,0.7977 4.27905,-1.29799 3.54804,-2.48467 -0.63799,-1.03569 1.42076,-2.61028 4.50602,-3.44633 l 2.50334,-0.67837 -2.36394,2.06235 c -2.84084,2.4784 -2.04415,2.70255 1.44747,0.40724 l 2.51776,-1.65511 -2.80333,-1.85445 c -1.54181,-1.01996 -2.21346,-1.85744 -1.49254,-1.86108 0.72092,-0.004 1.09678,-0.354 0.83523,-0.77857 -0.26154,-0.42459 1.25781,-0.60612 3.37633,-0.40342 3.08805,0.29546 3.72914,0.69755 3.23297,2.02773 -0.53673,1.43891 -0.39605,1.47735 1.05956,0.28959 1.92196,-1.5683 1.37409,-3.13623 -1.11226,-3.18314 -1.48121,-0.0279 -1.44985,-0.21666 0.25048,-1.50694 1.2581,-0.95471 1.46415,-1.47499 0.58411,-1.47499 -0.74778,0 -1.12463,-0.23576 -0.83743,-0.52389 0.28721,-0.28815 1.60146,-0.0907 2.92057,0.43863 1.37915,0.55348 1.76008,1.01665 0.89638,1.08988 -0.93644,0.0794 -0.67294,0.46232 0.6998,1.01693 1.50718,0.60893 3.16567,0.40716 5.25702,-0.63957 3.47033,-1.73691 4.04402,-2.88038 1.05115,-2.09515 -1.24895,0.32768 -1.75882,0.12768 -1.35318,-0.53081 0.42051,-0.68263 -0.31574,-0.8712 -2.08021,-0.53279 -1.81432,0.34796 -2.91419,0.0451 -3.27654,-0.90229 -0.72106,-1.88521 -0.12786,-2.36759 4.08332,-3.32048 2.901,-0.65643 3.77239,-0.46046 4.83567,1.0875 0.90602,1.31901 1.98321,1.70113 3.57334,1.26759 2.13763,-0.58281 2.16813,-0.70415 0.50067,-1.99125 -1.64074,-1.26648 -1.59383,-1.35254 0.61729,-1.13249 1.31613,0.13097 2.60859,-0.37441 2.87215,-1.12307 0.35337,-1.0038 -0.14349,-1.18769 -1.8923,-0.70037 l -2.37148,0.66083 2.36394,-2.06234 c 1.30017,-1.13429 2.92847,-2.06235 3.61846,-2.06235 0.68999,0 2.51376,-1.24322 4.05283,-2.76272 2.65552,-2.62175 2.76946,-2.64738 2.23296,-0.50231 -0.63688,2.54645 0.70915,3.11387 1.63631,0.6898 0.3304,-0.86384 1.06186,-1.28469 1.62547,-0.93521 0.56362,0.34947 0.78474,1.02501 0.49141,1.50119 -0.29333,0.47618 -0.0989,1.13515 0.43199,1.46435 0.53761,0.33336 0.79215,-0.30358 0.57449,-1.43752 -0.46982,-2.44766 0.44667,-2.58168 3.05781,-0.44712 1.7363,1.41938 1.75118,1.52781 0.13938,1.01612 -0.99952,-0.31731 -1.54531,-0.15232 -1.22362,0.3699 0.31939,0.51849 -0.29676,1.41386 -1.36922,1.98971 -1.42928,0.76744 -2.08409,0.71384 -2.45233,-0.20075 -0.32739,-0.81309 -0.52994,-0.70042 -0.58145,0.32343 -0.0938,1.86386 -12.85539,9.24542 -14.36531,8.30917 -0.59424,-0.36847 -0.74521,-0.16309 -0.35077,0.47721 0.42165,0.68449 -1.1821,2.08128 -4.10098,3.57175 -2.63636,1.34622 -9.74634,5.43745 -15.79994,9.09163 -6.05359,3.65419 -11.56805,6.42779 -12.25436,6.16356 -0.68631,-0.26423 -1.14058,-0.0656 -1.0095,0.44147 0.18202,0.70409 -45.47482,28.13992 -46.82855,28.13992 -0.16057,0 -3.24886,1.80228 -6.86287,4.00508 -3.61402,2.2028 -7.15223,4.12415 -7.8627,4.26966 -0.71046,0.1455 -1.51706,0.55191 -1.79243,0.90309 -1.39161,1.77479 -11.3006,6.83745 -12.2412,6.25423 -0.59708,-0.37023 -0.8076,-0.22184 -0.46781,0.32975 0.33979,0.5516 -0.97542,1.86466 -2.92269,2.91794 l -3.54049,1.91504 0.10032,85.36983 c 0.0552,46.95341 0.42615,85.67524 0.8244,86.04852 0.39825,0.37328 8.83491,5.39307 18.74814,11.15509 9.91323,5.76201 32.6686,18.98845 50.56749,29.39208 36.03973,20.94788 51.72719,30.1331 66.38512,38.86935 5.39528,3.21564 10.23132,5.84661 10.74673,5.84661 0.51542,0 3.8914,-1.81415 7.50218,-4.03145 3.61078,-2.21729 7.11088,-4.13864 7.778,-4.26965 0.66711,-0.13101 1.43824,-0.52763 1.71361,-0.88136 1.44567,-1.85709 13.20068,-7.90106 14.18267,-7.29217 0.68863,0.42699 0.87376,0.26784 0.46337,-0.39835 -0.86142,-1.39838 2.99546,-3.55689 4.65038,-2.60258 0.67703,0.3904 0.90649,0.34947 0.50989,-0.0909 -0.95738,-1.06322 25.38106,-16.74632 27.05818,-16.11167 0.71701,0.27133 1.05497,0.0896 0.75098,-0.40388 -0.75317,-1.22265 10.26555,-7.35719 11.66083,-6.49202 0.70827,0.43917 0.82925,0.22918 0.33254,-0.57716 -0.5811,-0.94332 -0.17251,-1.09465 1.59762,-0.59172 1.58654,0.45076 1.93576,0.36718 1.04893,-0.25106 -1.19743,-0.83475 8.83314,-7.14588 31.87024,-20.05242 1.92757,-1.07992 10.2637,-5.88858 18.52472,-10.6859 8.26103,-4.79733 15.60652,-9.04551 16.32332,-9.4404 1.0552,-0.58132 1.28932,-16.96698 1.22995,-86.08261 -0.0403,-46.95053 -0.40149,-85.67745 -0.8026,-86.05981 -0.4011,-0.3824 -7.7136,-4.7483 -16.25,-9.70204 -47.07764,-27.31955 -110.92391,-64.55847 -119.45595,-69.67378 -5.39528,-3.2347 -10.24821,-5.88127 -10.78426,-5.88127 -0.53607,0 -2.69471,1.08938 -4.79699,2.42084 -2.28485,1.4471 -4.33627,2.10216 -5.10008,1.62855 -1.02087,-0.633 -1.00334,-0.91588 0.0872,-1.40695 0.75073,-0.33805 0.29781,-0.34534 -1.0065,-0.0162 -4.10151,1.03504 -1.9258,-1.9119 3.24742,-4.39857 2.60265,-1.25105 4.45753,-2.72031 4.12198,-3.26503 -0.33555,-0.54472 -0.18112,-0.9904 0.34319,-0.9904 1.70138,0 2.1297,2.93604 0.55712,3.81899 -1.06355,0.59715 -0.46895,0.83446 1.95439,0.78003 2.39519,-0.0537 3.20105,-0.42085 2.58022,-1.17528 -0.49652,-0.60337 -0.60628,-1.39451 -0.24391,-1.75809 0.36239,-0.36356 0.0662,-0.66103 -0.65822,-0.66103 -0.72441,0 0.43964,-1.3021 2.58679,-2.89356 2.31538,-1.71617 4.29096,-2.53374 4.85515,-2.00925 1.59685,1.48446 2.88063,0.98346 1.56265,-0.60983 -0.67978,-0.82178 -0.95514,-2.22835 -0.61192,-3.12573 0.45461,-1.18859 0.19903,-1.46796 -0.94132,-1.02892 -0.86095,0.33146 -1.30404,0.17843 -0.98464,-0.34005 0.31939,-0.5185 -0.30348,-1.41748 -1.38417,-1.99775 -2.86443,-1.53803 -3.91462,-1.23096 -1.65483,0.48386 1.06905,0.81124 1.49312,1.47499 0.94239,1.47499 -1.56828,0 -5.10174,-2.94479 -3.57802,-2.98193 0.76023,-0.0185 0.99944,-0.53734 0.56953,-1.23521 -0.40767,-0.66181 1.93139,0.31784 5.19793,2.177 3.26653,1.85914 7.61005,4.28272 9.65226,5.38571 2.04222,1.10299 3.43705,2.45359 3.09963,3.00134 -0.34611,0.56186 -0.10487,0.68053 0.5535,0.2723 0.64185,-0.39799 3.75303,0.83452 6.91374,2.73889 3.16072,1.90439 26.02381,15.12561 50.80689,29.38052 24.78308,14.25489 54.52277,31.37483 66.08821,38.04431 l 21.02807,12.12631 0.25532,96.58567 c 0.23497,88.88921 0.12395,96.63625 -1.3933,97.22039 -1.23301,0.4747 -1.39507,0.31232 -0.64287,-0.64407 0.62159,-0.79033 0.73179,-4.15677 0.28848,-8.81346 -0.4818,-5.06103 -0.76549,-6.13295 -0.86413,-3.26503 -0.0808,2.3483 -0.59745,4.26965 -1.14819,4.26965 -0.55074,0 -1.00134,0.67812 -1.00134,1.50693 0,0.82882 -0.49944,1.50694 -1.10989,1.50694 -0.68387,0 -0.86872,-0.96404 -0.48159,-2.51156 0.36231,-1.44832 0.19632,-2.51156 -0.39211,-2.51156 -0.56123,0 -1.02042,0.90416 -1.02042,2.00925 0,1.15005 -0.66756,2.00925 -1.5611,2.00925 -0.85861,0 -1.28261,0.45208 -0.94224,1.00462 0.34038,0.55254 -0.0354,1.00462 -0.8351,1.00462 -1.63448,0 -2.98758,2.68951 -2.08789,4.15003 0.3235,0.52515 1.56412,0.68078 2.75693,0.34584 1.50086,-0.42145 1.75743,-0.3224 0.8331,0.32164 -2.13165,1.48528 1.53211,2.43926 4.16185,1.08367 3.17564,-1.63699 0.77733,0.45081 -3.36773,2.93171 -3.53716,2.11706 -3.54588,2.11726 -3.69848,0.0848 -0.12056,-1.60582 0.13426,-1.79808 1.20337,-0.90788 0.80413,0.66956 1.59128,0.74795 1.93341,0.19253 0.76187,-1.23675 -4.9405,-3.57322 -6.88949,-2.82287 -0.836,0.3219 -1.51999,0.14733 -1.51999,-0.38786 0,-0.5352 -1.1531,-0.9731 -2.56244,-0.9731 -1.40934,0 -2.30992,-0.40992 -2.00129,-0.91093 0.30863,-0.50102 -0.41114,-0.65584 -1.59949,-0.34407 -1.46961,0.38558 -1.9338,0.19865 -1.45137,-0.58449 0.4684,-0.7604 0.15005,-0.93607 -0.93754,-0.51736 -1.24808,0.4805 -0.55257,1.23771 2.8727,3.12755 4.55653,2.51398 5.40498,5.25705 1.62605,5.25705 -1.01005,0 -2.10277,0.43234 -2.42828,0.96075 -0.32551,0.52841 -1.32722,0.67762 -2.22603,0.33158 -1.08258,-0.41678 -1.39295,-0.23753 -0.91949,0.53106 0.50539,0.82045 -0.14379,0.98796 -2.21675,0.57201 -1.6123,-0.32352 -3.89834,-0.069 -5.0801,0.56547 -1.71498,0.92085 -2.46147,0.83986 -3.69854,-0.40127 -1.99054,-1.99708 -2.84872,-1.95868 -4.53857,0.20311 -1.24554,1.5934 -1.21012,1.62893 0.37806,0.37931 1.23974,-0.97547 1.75234,-1.0316 1.75234,-0.19187 0,0.65281 0.41947,0.92683 0.93214,0.60894 1.71898,-1.06588 1.94448,1.01452 0.44637,4.11793 -1.22118,2.52976 -1.96318,2.99841 -4.18511,2.64342 -2.11813,-0.33842 -2.37673,-0.20114 -1.19875,0.63639 1.28005,0.91008 1.22353,1.07016 -0.38248,1.08328 -2.89838,0.0237 -8.62955,3.98424 -8.62955,5.96354 0,2.7493 6.86532,1.97385 10.41342,-1.1762 1.08914,-0.96695 2.79649,-1.75809 3.79411,-1.75809 0.99762,0 1.81386,-0.47877 1.81386,-1.06392 0,-0.58515 0.54679,-0.72487 1.21508,-0.31048 0.82768,0.5132 0.42203,1.09265 -1.27225,1.81738 -1.36803,0.58517 -3.59218,1.8551 -4.94256,2.82205 -1.35038,0.96695 -3.28277,1.75809 -4.2942,1.75809 -1.01143,0 -1.62259,0.35125 -1.35813,0.78056 0.26445,0.42931 -0.9076,1.58002 -2.60457,2.55714 -1.69696,0.97713 -2.60172,1.19097 -2.01057,0.47523 0.78882,-0.95508 0.58893,-1.90287 -0.75118,-3.56177 -2.11906,-2.62315 -3.00702,-2.85608 -3.00702,-0.78882 0,0.80938 -0.87158,1.93958 -1.93684,2.51157 -3.08144,1.65454 -3.63203,1.21248 -1.25598,-1.00843 2.72377,-2.5459 2.78132,-3.36382 0.18882,-2.68364 -1.3016,0.34149 -2.00268,0.0308 -2.00268,-0.88745 0,-0.77709 -0.78855,-1.42663 -1.75234,-1.44344 -1.66889,-0.0291 -1.66889,-0.0793 0,-1.05454 0.96379,-0.56319 1.75234,-1.4859 1.75234,-2.05046 0,-0.56455 -0.70808,-0.31604 -1.57353,0.55223 -0.86543,0.86829 -2.26716,1.5787 -3.11494,1.5787 -1.10291,0 -0.86891,0.55036 0.82253,1.93461 2.12882,1.7422 2.19023,2.00246 0.61735,2.61683 -0.96063,0.37522 -1.46615,1.13747 -1.12338,1.6939 0.8023,1.30241 -1.50039,2.76116 -4.38972,2.7809 -1.23916,0.008 -2.25301,0.46746 -2.25301,1.02 0,0.55254 -1.1265,1.00462 -2.50334,1.00462 -1.37684,0 -2.50334,0.45209 -2.50334,1.00463 0,0.55254 0.70894,1.00462 1.57542,1.00462 0.95988,0 1.44515,0.68692 1.24198,1.7581 -0.22845,1.20445 -1.56707,1.91627 -4.25083,2.2604 -3.97214,0.50933 -6.2759,2.95485 -2.90569,3.08449 1.66585,0.0641 1.6504,0.15052 -0.1669,0.93401 -2.50289,1.07905 -4.40596,1.22951 -2.82984,0.22371 0.78664,-0.50199 0.37218,-1.13049 -1.25291,-1.89993 -1.83344,-0.86808 -2.28724,-0.86513 -1.85224,0.0121 0.31689,0.63901 -0.0899,0.34364 -0.90397,-0.65638 -1.63998,-2.01456 -2.58009,-1.2318 -2.10484,1.75255 0.44148,2.77226 -2.38916,4.51752 -7.38701,4.55453 -2.61462,0.0194 -4.07093,0.42779 -3.69592,1.03657 0.34038,0.55254 1.46688,1.00462 2.50334,1.00462 1.03647,0 2.20359,0.51802 2.59361,1.15114 0.50215,0.81518 -0.13815,0.95776 -2.19392,0.48852 -2.31241,-0.52782 -2.54651,-0.44528 -1.15069,0.40571 2.08285,1.26984 2.36101,3.14903 0.35162,2.37542 -0.7704,-0.2966 -1.69818,-0.0564 -2.06177,0.53385 -0.36358,0.5902 -3.33807,1.07311 -6.60997,1.07311 -5.47865,0 -7.71872,1.12134 -4.69725,2.35136 2.03318,0.82769 -1.39542,2.77556 -3.86481,2.1957 -1.31852,-0.30963 -2.78813,0.25298 -3.91021,1.49693 -0.98875,1.09615 -2.8278,1.993 -4.08678,1.993 -1.25898,0 -2.56754,0.45208 -2.90792,1.00462 -1.00249,1.6274 -4.12785,1.16073 -8.14267,-1.21586 -2.16725,-1.28291 -3.39048,-1.63502 -2.89699,-0.8339 0.63424,1.02957 0.42513,1.22141 -0.81211,0.74508 -2.37389,-0.91394 -2.06338,0.0162 0.45725,1.36956 1.49246,0.80137 1.92125,0.81188 1.4429,0.0354 -1.15298,-1.87169 1.32463,-1.22087 3.44294,0.90439 2.30459,2.31216 3.31425,2.45929 5.87334,0.85587 1.5005,-0.94017 2.23844,-0.75445 3.99175,1.00462 1.18302,1.1869 1.72694,2.158 1.20871,2.158 -0.51823,0 -1.22073,-0.45208 -1.56111,-1.00462 -1.1652,-1.89154 -4.50601,-1.12331 -4.50601,1.03615 0,2.74411 -2.95131,3.77847 -4.54436,1.59269 -1.49476,-2.05092 -5.93915,-1.30965 -7.49822,1.25063 -0.76185,1.25109 -0.85285,0.98316 -0.37933,-1.11675 0.34264,-1.5195 0.40017,-2.76272 0.12785,-2.76272 -0.69303,0 -4.19379,7.36892 -3.93745,8.28815 0.11557,0.41441 -0.49237,0.75347 -1.35098,0.75347 -0.8586,0 -1.28261,0.45208 -0.94224,1.00462 0.35099,0.56978 -0.49027,1.00463 -1.94357,1.00463 -2.67574,0 -3.46947,1.44602 -1.31077,2.38797 0.68842,0.30039 -0.10013,0.3015 -1.75234,0.002 -2.23872,-0.40519 -2.62875,-0.28099 -1.531,0.48755 1.95156,1.3663 0.77452,2.40376 -2.68295,2.36478 -1.53748,-0.0173 -3.72249,0.55766 -4.85559,1.27776 -2.70124,1.71667 -11.49116,1.59372 -12.16581,-0.17017 -0.2792,-0.72952 -0.97988,-1.32678 -1.55705,-1.32678 -0.57717,0 -0.3098,0.81991 0.59413,1.82203 1.11947,1.24107 1.3286,2.20208 0.65587,3.01388 -0.68708,0.8291 -0.65105,0.91526 0.11838,0.28308 1.09368,-0.89859 8.49477,2.66214 7.53494,3.62513 -0.25109,0.25193 -1.6362,-0.31745 -3.07801,-1.26526 -1.44181,-0.9478 -2.87458,-1.46934 -3.18394,-1.15896 -0.81265,0.81531 5.15131,3.72634 7.63432,3.72634 2.88031,0 8.21036,-2.88161 7.49076,-4.04977 -0.33337,-0.54118 0.15437,-0.66552 1.13287,-0.28881 1.19432,0.45982 1.48923,0.28972 0.96714,-0.55783 -0.82298,-1.33596 1.03346,-4.14521 2.73926,-4.14521 0.58857,0 0.19615,0.64116 -0.87203,1.4248 -1.06818,0.78364 -1.63938,1.72856 -1.26934,2.09982 0.37006,0.37126 3.20611,-1.2439 6.30235,-3.58926 4.40668,-3.33799 5.89151,-3.99941 6.83563,-3.04492 0.94327,0.95362 0.8153,1.07005 -0.58717,0.53427 -1.20788,-0.46144 -1.6982,-0.25437 -1.50201,0.63429 0.16021,0.72565 -0.60992,1.50436 -1.71139,1.73047 -1.10147,0.22611 -2.90388,1.19502 -4.00535,2.15314 -2.86939,2.49593 -11.21212,7.15201 -14.52079,8.10404 -2.18034,0.62736 -3.57953,0.29759 -6.16582,-1.45322 z m 8.67057,-13.61655 c 0.34038,-0.55254 0.14167,-1.00462 -0.44157,-1.00462 -0.58324,0 -1.06043,0.45208 -1.06043,1.00462 0,0.55254 0.1987,1.00462 0.44157,1.00462 0.24286,0 0.72006,-0.45208 1.06043,-1.00462 z m 8.51136,-8.03699 c 0.82611,-0.53563 1.05141,-0.97386 0.50067,-0.97386 -0.55073,0 -1.67724,0.43823 -2.50334,0.97386 -0.8261,0.53562 -1.0514,0.97385 -0.50067,0.97385 0.55074,0 1.67724,-0.43823 2.50334,-0.97385 z m 3.62542,-1.62808 c 0.12631,-0.86344 -0.05,-1.28935 -0.39175,-0.94646 -0.34177,0.3429 -0.72475,1.32991 -0.85107,2.19336 -0.12631,0.86345 0.05,1.28936 0.39176,0.94647 0.34176,-0.3429 0.72474,-1.32991 0.85106,-2.19337 z m 4.68489,-2.39042 c 0.59698,-0.82881 0.0433,-0.53535 -1.23062,0.65213 -1.5383,1.43405 -2.03094,2.6148 -1.46702,3.51619 0.65115,1.04082 0.93797,0.88882 1.23062,-0.65213 0.20987,-1.10509 0.87002,-2.68737 1.46702,-3.51619 z m 22.90309,-13.17302 c -2.03127,-2.38015 -3.32096,-2.45273 -2.45639,-0.13825 0.597,1.59825 0.48034,1.62108 -1.28311,0.25116 -1.72428,-1.3395 -1.81001,-1.3395 -0.77156,0 0.64255,0.82881 2.28453,1.56915 3.64886,1.64518 2.33793,0.1303 2.38752,0.0292 0.8622,-1.75809 z m 16.26485,-7.65081 c -0.78935,-0.79193 -1.17914,-1.85552 -0.8662,-2.36352 0.31293,-0.508 -0.16013,-0.92363 -1.05124,-0.92363 -0.8911,0 -1.32951,0.47188 -0.97423,1.04863 0.35529,0.57675 0.19647,1.59393 -0.35293,2.2604 -0.73698,0.89404 -0.25441,1.23881 1.84043,1.31489 2.4651,0.0895 2.65018,-0.0867 1.40417,-1.33677 z m 3.71765,-2.94931 c 1.24614,-1.51558 1.16421,-1.55912 -0.87874,-0.46697 -2.33007,1.24564 -2.9038,2.13838 -1.37427,2.13838 0.48329,0 1.49715,-0.75213 2.25301,-1.67141 z m 8.88429,-4.92713 c -0.27536,-0.464 -1.26832,-0.90037 -2.20656,-0.96972 -0.93824,-0.0693 -1.49598,0.21468 -1.23942,0.63118 0.25658,0.4165 -0.32757,0.9691 -1.29811,1.228 -0.97052,0.25891 -0.18749,0.35451 1.74008,0.21245 1.92758,-0.14206 3.27938,-0.63792 3.00401,-1.10191 z m 10.46118,-1.52426 c -0.3224,-0.52338 -1.01301,-0.68694 -1.53467,-0.36347 -0.52167,0.32346 -0.6847,1.01633 -0.36229,1.5397 0.32241,0.52338 1.01301,0.68695 1.53467,0.36348 0.52167,-0.32346 0.6847,-1.01633 0.36229,-1.53971 z m 5.10071,-8.01803 c 1.02744,-1.66788 0.10526,-1.89917 -1.33232,-0.33414 -0.71013,0.77308 -0.84938,1.40561 -0.30943,1.40561 0.53994,0 1.27873,-0.48216 1.64175,-1.07147 z m 27.99625,-1.94241 c -0.34037,-0.55254 -1.06946,-1.00462 -1.62019,-1.00462 -0.55074,0 -0.72286,0.45208 -0.38248,1.00462 0.34037,0.55255 1.06946,1.00463 1.62019,1.00463 0.55074,0 0.72286,-0.45208 0.38248,-1.00463 z m -18.93957,-5.40788 c 0.15322,-1.04735 -0.30589,-1.09471 -2.15286,-0.22208 -2.02215,0.9554 -2.11101,1.19613 -0.64095,1.73651 1.93249,0.71038 2.5145,0.3949 2.79381,-1.51443 z m 4.91377,-3.62223 c 0.35081,-0.56948 -0.0512,-0.7379 -0.94224,-0.39483 -1.73473,0.66787 -2.05213,1.38795 -0.61177,1.38795 0.51823,0 1.21754,-0.44691 1.55401,-0.99312 z m 14.75888,-4.20355 c 1.50467,-0.73337 2.92009,-1.80726 3.14538,-2.38643 0.22529,-0.57917 -1.54847,-0.12709 -3.94169,1.00462 -2.39322,1.13172 -4.37189,2.44509 -4.39704,2.91862 -0.0475,0.89352 0.60026,0.70184 5.19335,-1.53681 z m -2.70926,-2.6463 c -0.3083,-0.30931 -1.11628,-6.4e-4 -1.79552,0.68594 -0.98157,0.99218 -0.86656,1.10758 0.56055,0.56239 0.98753,-0.37727 1.54328,-0.93902 1.23497,-1.24833 z m 14.15911,-5.62368 c 0,-0.84051 -0.60632,-1.17773 -1.49938,-0.83389 -0.96786,0.37262 -1.24523,0.16468 -0.78244,-0.58659 0.4812,-0.78115 0.15975,-0.94932 -0.97756,-0.51147 -1.56373,0.60203 -1.55297,0.7562 0.13938,1.99775 2.3385,1.71556 3.12,1.69909 3.12,-0.0658 z M 257.80298,311.36666 c -0.7601,-1.23391 2.32143,-3.87978 4.54719,-3.90432 1.33511,-0.0148 1.33511,0.0916 0,0.95728 -0.82611,0.53563 -1.05141,0.9664 -0.50067,0.95729 0.55073,-0.009 1.85726,-0.66655 2.90338,-1.46098 1.75258,-1.3309 1.61214,-1.4215 -1.78726,-1.1529 -3.96043,0.31292 -7.28971,2.77618 -6.18219,4.57406 0.37303,0.60557 0.90354,1.10103 1.17891,1.10103 0.27537,0 0.20365,-0.48216 -0.15936,-1.07146 z m 16.56322,-9.4178 c 0,-0.24366 -0.4506,-0.72243 -1.00133,-1.06392 -0.55074,-0.34149 -1.00134,-0.14213 -1.00134,0.44302 0,0.58515 0.4506,1.06392 1.00134,1.06392 0.55073,0 1.00133,-0.19936 1.00133,-0.44302 z m 147.11303,-77.31028 c -0.22948,-0.21848 -2.1813,-0.88075 -4.33739,-1.47171 -2.1561,-0.59096 -3.5079,-0.68212 -3.00401,-0.20259 0.92282,0.87822 3.71558,1.73939 6.34006,1.955 0.78021,0.0641 1.23081,-0.0622 1.00134,-0.2807 z m -4.42257,-3.62126 c -0.34038,-0.55254 -1.15552,-0.9977 -1.81144,-0.98924 -0.71657,0.009 -0.59306,0.40409 0.30943,0.98924 1.92369,1.24727 2.27033,1.24727 1.50201,0 z m -3.50468,-2.40408 c 0,-0.21716 -0.6993,-0.66405 -1.55401,-0.99312 -0.89111,-0.34307 -1.29305,-0.17465 -0.94224,0.39483 0.58804,0.9546 2.49625,1.41195 2.49625,0.59829 z M 402.979,589.2675 c 1.06904,-0.8593 2.3833,-1.56236 2.92057,-1.56236 1.27223,0 0.70417,0.46404 -2.36096,1.92859 -2.36042,1.12784 -2.39237,1.10692 -0.55961,-0.36623 z m 23.53161,-11.03527 c 0.86687,-1.04795 0.83062,-1.52553 -0.14979,-1.97329 -0.71141,-0.32491 -0.31754,-0.35049 0.87526,-0.0569 1.19282,0.29364 2.45856,0.0634 2.81278,-0.51159 0.35422,-0.575 -0.0319,-1.04546 -0.85798,-1.04546 -0.8261,0 -1.76932,-0.43396 -2.09605,-0.96436 -0.35217,-0.5717 0.64256,-0.53185 2.44306,0.0978 3.48331,1.21828 3.25524,2.11943 -1.08631,4.29239 -2.37533,1.18886 -2.82166,1.22596 -1.94097,0.16131 z m 7.0681,-4.03375 c 0,-0.28449 1.81832,-1.44792 4.04071,-2.58543 2.42276,-1.24005 3.76413,-2.51718 3.34996,-3.18951 -0.39354,-0.63887 -0.24072,-0.84229 0.3552,-0.47277 0.57528,0.3567 3.12321,-0.51626 5.66207,-1.93991 7.15595,-4.01267 5.44078,-2.1285 -2.1429,2.35405 -8.71154,5.1492 -11.26504,6.47153 -11.26504,5.83357 z m 9.57007,-10.18414 c -1.06818,-0.78364 -1.51807,-1.41788 -0.99976,-1.40942 1.38411,0.0226 3.96625,1.80651 3.41516,2.35942 -0.26029,0.26113 -1.34722,-0.16637 -2.4154,-0.95 z m 13.05968,-2.8301 c 0.4199,-1.09783 9.41302,-6.12498 9.41302,-5.26187 0,0.1865 -2.22506,1.7268 -4.94457,3.42289 -2.71951,1.69609 -4.73032,2.52363 -4.46845,1.83898 z m 1.84405,-4.15208 c 1.06904,-0.81125 2.39432,-1.47499 2.94506,-1.47499 0.55073,0 0.12666,0.66374 -0.94239,1.47499 -1.06905,0.81123 -2.39433,1.47498 -2.94506,1.47498 -0.55074,0 -0.12666,-0.66375 0.94239,-1.47498 z m 9.97717,-3.36702 c 1.04914,-1.16956 2.76549,-2.12647 3.8141,-2.12647 1.18618,0 1.63662,-0.43825 1.1921,-1.15985 -0.45199,-0.73373 -0.27365,-0.8865 0.48544,-0.41582 0.65995,0.40921 1.86696,0.1886 2.68225,-0.49025 0.81529,-0.67885 1.70086,-1.01504 1.96794,-0.74709 0.26708,0.26796 -2.33478,1.96741 -5.78189,3.77657 -5.07193,2.66191 -5.90361,2.88374 -4.35994,1.16291 z m 14.51777,-7.90158 c 3.05838,-2.48067 9.10878,-5.69715 9.10878,-4.84236 0,0.18502 -2.81626,1.97218 -6.25836,3.97147 -5.1709,3.00345 -5.66619,3.15477 -2.85042,0.87089 z m -97.8431,-4.98197 c -2.37319,-1.38551 -4.07383,-2.76095 -3.77921,-3.05654 0.29462,-0.29559 1.23336,0.0435 2.08608,0.75351 0.85271,0.71002 1.74235,1.09836 1.97695,0.86298 0.78566,-0.78824 -1.95855,-5.2203 -3.47896,-5.61872 -1.11722,-0.29277 -1.05309,-0.0273 0.25034,1.03604 0.96378,0.78631 1.75233,1.62685 1.75233,1.86788 0,0.7885 -4.81933,0.36625 -5.67459,-0.49718 -0.45875,-0.46314 -2.33098,-1.47084 -4.1605,-2.23935 -2.10638,-0.8848 -3.05961,-1.83041 -2.59896,-2.57819 0.45599,-0.74023 0.29495,-0.91273 -0.43153,-0.46227 -0.63744,0.39526 -3.37476,-0.4913 -6.08296,-1.97011 -3.67659,-2.00764 -4.83061,-3.17516 -4.55543,-4.60876 0.2027,-1.05598 -0.0659,-1.65063 -0.59678,-1.32141 -0.53093,0.3292 -0.70609,1.0194 -0.38922,1.53377 1.3603,2.20825 4.43208,3.9098 -57.36929,-31.77835 L 272.36353,475.79146 V 453.88993 431.9884 h 10.98928 10.98927 l 0.27576,15.66318 0.27576,15.66319 15.02005,8.78932 c 42.74985,25.01607 58.85307,34.28425 59.10566,34.01816 0.15348,-0.16169 0.0294,-21.20272 -0.27555,-46.75785 l -0.55458,-46.46386 h -47.91283 -47.91282 v -42.50539 -42.5054 l 28.6329,-16.51627 c 65.17631,-37.59557 67.86135,-39.06646 70.22652,-38.47089 1.3932,0.35082 2.27557,0.11823 2.27557,-0.59982 0,-0.68648 0.51904,-0.84784 1.25167,-0.38913 2.94085,1.84132 10.61342,0.52349 9.30628,-1.59844 -0.31748,-0.51539 -0.049,-1.26465 0.5967,-1.66501 0.85082,-0.52756 1.01394,0.26132 0.59263,2.86609 -0.41943,2.59312 -0.18409,3.74695 0.84506,4.14316 0.95644,0.36823 1.45925,-0.18517 1.52618,-1.67972 0.0942,-2.10494 0.1444,-2.08922 0.90153,0.28268 0.59581,1.86653 0.82734,0.89899 0.90152,-3.76734 0.0549,-3.4534 -0.0886,-6.2789 -0.31896,-6.2789 -0.23032,0 -1.20544,-0.30287 -2.16694,-0.67304 -1.28575,-0.49501 -1.53135,-0.32109 -0.92852,0.65754 0.54537,0.88531 0.43279,1.09069 -0.3364,0.61374 -1.68254,-1.04328 -1.48079,-1.38278 1.84796,-3.1098 l 3.00401,-1.55854 v 55.78244 55.78244 h -11.17716 -11.17716 l 0.65129,-37.17109 c 0.35821,-20.4441 0.44789,-37.17109 0.1993,-37.17109 -0.41156,0 -33.57303,19.18817 -62.85887,36.37191 l -11.76571,6.90365 v 25.07725 25.07723 h 47.95898 47.95898 l 0.37933,3.99068 c 0.63352,6.66497 -0.35877,148.71957 -1.0381,148.61171 -0.34808,-0.0553 -2.57459,-1.23408 -4.94777,-2.6196 z m 4.53875,-5.06575 c 0.0362,-3.17712 -0.14328,-4.75941 -0.39896,-3.51618 -0.25567,1.24322 -0.83591,2.2604 -1.28942,2.2604 -1.45714,0 -2.06527,3.09891 -1,5.0959 1.78093,3.33864 2.62015,2.1399 2.68838,-3.84012 z m -11.17962,-1.79004 c -1.2581,-0.9547 -1.46414,-1.47499 -0.58411,-1.47499 0.74778,0 1.08919,-0.27131 0.75868,-0.60291 -0.33053,-0.3316 -1.10341,-0.29135 -1.71753,0.0894 -1.32055,0.81883 0.51985,3.5474 2.35762,3.4954 0.62099,-0.0176 0.25439,-0.6957 -0.81466,-1.50694 z m 5.79389,-2.22846 c 0.25503,-0.4144 -0.68866,-0.82297 -2.09707,-0.90793 -1.84628,-0.11137 -2.1687,0.0945 -1.15559,0.73808 1.73406,1.10146 2.64992,1.14929 3.25266,0.16985 z m -23.87689,-251.4072 c -0.34038,-0.55254 -0.0666,-1.00462 0.60846,-1.00462 0.67503,0 0.9569,-0.27131 0.62638,-0.60291 -0.89941,-0.90237 -2.85928,0.59603 -2.19341,1.67695 0.31685,0.51436 0.80139,0.93521 1.07675,0.93521 0.27537,0 0.22219,-0.45208 -0.11818,-1.00463 z m 7.8555,0.25116 c 0.25503,-0.41441 -0.68866,-0.82298 -2.09707,-0.90794 -1.84627,-0.11136 -2.16869,0.0945 -1.15558,0.73809 1.73405,1.10146 2.64992,1.14929 3.25265,0.16985 z m 42.52565,204.44102 c -0.24665,-77.45979 -0.24795,-93.98642 -0.013,-164.76234 l 0.19936,-60.03027 5.00194,2.71034 c 3.5507,1.92398 4.64016,2.9728 3.75501,3.61493 -0.85571,0.62079 -0.68678,0.72316 0.53847,0.32631 1.00997,-0.32711 3.87938,0.59469 6.60677,2.12244 l 4.82138,2.70072 0.65029,20.13568 c 0.35766,11.07462 0.67722,53.36362 0.71014,93.97555 l 0.0599,73.83988 5.85307,-20.09248 c 3.21919,-11.05087 9.54647,-32.97679 14.06064,-48.72428 4.51416,-15.74748 8.56453,-29.01207 9.0008,-29.47685 0.43626,-0.46479 3.6979,4.28206 7.24807,10.54855 21.17914,37.38379 35.301,61.81171 36.47595,63.09589 1.12834,1.23324 1.34593,-8.32177 1.34593,-59.10539 0,-33.31705 0.34156,-60.42576 0.75903,-60.24157 0.41747,0.18418 5.37408,2.98203 11.0147,6.21745 l 10.25564,5.88257 v 74.14974 74.14974 l -6.75902,3.75541 c -3.71746,2.06547 -7.98978,4.6156 -9.49403,5.66696 l -2.73502,1.91157 -1.9686,-3.24774 c -1.08273,-1.78625 -9.99051,-17.17383 -19.79506,-34.19461 -9.80455,-17.02078 -18.06876,-30.95483 -18.36492,-30.96456 -0.29614,-0.01 -2.45522,6.65051 -4.79795,14.80053 -16.73598,58.22217 -27.55439,94.35318 -28.5471,95.34075 -1.09975,1.09406 -24.48873,14.41444 -25.31001,14.41444 -0.2123,0 -0.46985,-26.33371 -0.57234,-58.51936 z m 82.7966,54.50086 c 0.34038,-0.55254 1.06946,-1.00462 1.62019,-1.00462 0.55074,0 0.72286,0.45208 0.38249,1.00462 -0.34038,0.55255 -1.06946,1.00463 -1.6202,1.00463 -0.55073,0 -0.72285,-0.45208 -0.38248,-1.00463 z m 3.83846,-2.41414 c 0,-0.72891 0.71345,-1.27506 1.58545,-1.21367 0.872,0.0614 1.4728,-0.45347 1.33511,-1.14415 -0.13768,-0.69068 0.31292,-1.2627 1.00134,-1.27116 0.83444,-0.0103 0.751,-0.34001 -0.25033,-0.98925 -0.82611,-0.53562 -1.05141,-0.97385 -0.50067,-0.97385 0.55073,0 1.65572,0.41532 2.45553,0.92295 0.7998,0.50762 1.8964,0.64875 2.43688,0.31362 0.54047,-0.33512 0.11139,-0.99036 -0.95353,-1.45608 -1.47782,-0.64629 -1.29841,-0.72321 0.75781,-0.3249 1.88265,0.3647 3.08896,-0.0274 4.00534,-1.30183 2.15844,-3.0018 4.29154,-3.86715 2.40249,-0.97462 -1.74713,2.67522 -6.26211,5.29614 -8.45133,4.90595 -0.74369,-0.13254 -1.10615,0.15838 -0.80546,0.64649 0.30069,0.48811 -0.7055,1.6296 -2.23597,2.53664 -2.14084,1.26878 -2.78266,1.34348 -2.78266,0.32386 z m 35.28103,-20.00375 c 0.35981,-0.94074 1.71598,-1.9778 3.0137,-2.30457 1.29773,-0.32678 2.26188,-1.11402 2.14256,-1.74943 -0.11932,-0.6354 0.45896,-1.21614 1.28506,-1.29055 3.23798,-0.29161 3.44396,-0.46361 1.74441,-1.45658 -0.96815,-0.56564 -2.27692,-0.70809 -2.90839,-0.31654 -0.72245,0.44796 -0.8739,0.26674 -0.40847,-0.48881 0.40681,-0.66039 1.60293,-0.92582 2.65806,-0.58983 1.15659,0.36829 1.9184,0.1362 1.9184,-0.58446 0,-0.92189 0.32715,-0.92294 1.43008,-0.005 1.11573,0.92903 2.10617,0.83999 4.50602,-0.40509 1.69175,-0.87728 3.07593,-1.42877 3.07593,-1.22509 0,0.51472 -13.79517,8.72289 -14.66025,8.72289 -0.38652,0 -1.5462,0.7658 -2.57705,1.70176 -1.76194,1.59978 -1.83506,1.59926 -1.22006,-0.009 z m -286.3255,-212.9512 c -1.65102,-1.21122 -1.63634,-1.29166 0.23576,-1.29166 1.09805,0 1.80142,0.3166 1.56305,0.70355 -0.23837,0.38694 0.13267,0.9325 0.82452,1.21234 0.69185,0.27985 0.78078,0.54449 0.19762,0.58811 -0.58315,0.0436 -1.85258,-0.50193 -2.82095,-1.21234 z m -5.63146,-1.14921 c 0,-0.27627 0.90121,-0.98621 2.00268,-1.57763 1.10147,-0.59142 2.00267,-0.84928 2.00267,-0.573 0,0.27627 -0.9012,0.9862 -2.00267,1.57763 -1.10147,0.59142 -2.00268,0.84928 -2.00268,0.573 z m 10.01337,-6.04684 c 0,-0.27627 1.35587,-1.20576 3.01305,-2.06554 2.21306,-1.14817 3.52312,-1.28934 4.93415,-0.53171 1.95943,1.0521 5.07017,0.45665 5.07017,-0.97053 0,-0.43431 -0.6759,-1.04987 -1.502,-1.36793 -0.8261,-0.31804 -1.50201,-0.11369 -1.50201,0.45412 0,0.56782 -0.4987,0.72316 -1.10824,0.34521 -1.85915,-1.15279 1.27361,-2.42717 3.29651,-1.34099 1.11836,0.60048 1.65924,1.80543 1.43417,3.19493 -0.36837,2.27417 -1.6238,2.56498 -5.03837,1.1671 -1.45084,-0.59397 -1.71742,-0.4613 -1.09696,0.54593 0.54944,0.89193 0.43316,1.09092 -0.35273,0.60362 -0.64481,-0.39982 -0.91315,-1.14779 -0.59629,-1.66216 0.82069,-1.33226 -0.20642,-1.16165 -3.59717,0.59753 -1.62486,0.843 -2.95428,1.30669 -2.95428,1.03042 z m 36.54878,-4.57241 c -0.34037,-0.55254 0.11023,-1.00462 1.00134,-1.00462 0.89111,0 1.34171,0.45208 1.00133,1.00462 -0.34037,0.55255 -0.79097,1.00463 -1.00133,1.00463 -0.21036,0 -0.66096,-0.45208 -1.00134,-1.00463 z m -23.79843,-3.13853 c 0.67924,-0.68658 1.48722,-0.99525 1.79552,-0.68594 0.3083,0.30932 -0.24744,0.87106 -1.23498,1.24833 -1.4271,0.54519 -1.54211,0.4298 -0.56054,-0.56239 z m 13.2844,-7.41002 c 1.8662,-1.38136 3.64349,-2.50931 3.94955,-2.50657 0.94495,0.008 -5.39195,4.9436 -6.3971,4.98201 -0.52004,0.0199 0.58135,-1.09408 2.44755,-2.47544 z m 6.26459,-2.25971 c 0.41648,-0.2329 0.50573,-0.83175 0.19832,-1.33078 -0.3074,-0.49901 0.21432,-0.60961 1.15937,-0.24578 1.22793,0.47276 1.49405,0.29752 0.93251,-0.61404 -0.62016,-1.00674 -0.33822,-1.03527 1.33773,-0.13538 2.5786,1.38456 2.63032,1.62332 0.37118,1.71363 -0.96379,0.0386 -2.42824,0.28735 -3.25435,0.55294 -0.8261,0.26558 -1.16125,0.29232 -0.74476,0.0594 z m 9.75679,-6.66636 c 0,-0.21272 1.103,-1.11186 2.45112,-1.99808 1.76592,-1.16087 2.64894,-1.29021 3.15873,-0.46264 0.40847,0.66309 0.26686,0.8754 -0.33499,0.50221 -0.57343,-0.35556 -1.59942,0.0266 -2.28,0.8494 -1.12612,1.36135 -2.99486,2.05341 -2.99486,1.10911 z m 7.0928,-0.98409 c 0.22947,-0.20143 1.54373,-0.90449 2.92057,-1.56236 2.36042,-1.12784 2.39237,-1.10692 0.55961,0.36623 -1.59513,1.28216 -4.85434,2.40234 -3.48018,1.19613 z m 71.01145,-0.18735 c 0,-0.30446 1.46445,-1.22762 3.25434,-2.05146 1.78989,-0.82384 4.7188,-2.42467 6.50869,-3.5574 4.69046,-2.96836 4.01582,-1.6425 -0.78671,1.54609 -2.55388,1.69563 -3.77293,3.13121 -3.31246,3.90085 0.50352,0.84162 0.23277,0.81483 -0.87648,-0.0867 -1.07909,-0.87706 -1.81773,-0.95936 -2.25399,-0.25116 -0.67604,1.09745 -2.53339,1.46391 -2.53339,0.49983 z m 8.33512,-0.30972 c 1.00455,-0.39715 1.68045,-1.10137 1.50201,-1.56495 -0.17844,-0.46357 0.80207,-1.56074 2.17891,-2.43815 l 2.50334,-1.59528 -1.90754,2.22622 c -1.45224,1.69486 -1.57173,2.24307 -0.50067,2.29683 1.81315,0.091 -2.07972,1.79741 -4.10048,1.79741 -1.0342,0 -0.93314,-0.22489 0.32443,-0.72208 z m -65.66164,-0.93238 c -1.82706,-0.37629 -2.3296,-1.7463 -0.95352,-2.59955 1.10158,-0.68305 3.53581,0.94179 3.07824,2.05471 -0.2048,0.49814 -1.16093,0.74332 -2.12472,0.54484 z m -14.12627,-0.98642 c -0.26707,-0.43355 0.75561,-1.50294 2.27261,-2.37644 2.14236,-1.23359 2.75819,-1.29349 2.75819,-0.26826 0,0.72595 -0.33917,1.10961 -0.75372,0.85257 -0.41455,-0.25705 -1.43722,0.21839 -2.27261,1.05652 -0.83539,0.83813 -1.73739,1.16916 -2.00447,0.73561 z m 18.94,-6.67969 c 1.06818,-0.78364 2.15511,-1.21113 2.41539,-0.95 0.5511,0.5529 -2.03105,2.33682 -3.41516,2.35942 -0.51831,0.008 -0.0684,-0.62578 0.99977,-1.40942 z m -2.12757,-3.48872 c 0.71441,-1.15973 4.57353,-3.49877 4.57353,-2.77205 0,0.23216 -1.18198,1.19912 -2.62662,2.1488 -1.44465,0.94967 -2.32076,1.23015 -1.94691,0.62325 z m 21.13463,-1.07095 c -1.73739,-1.92609 -1.71134,-1.94248 1.2847,-0.80789 1.68195,0.63695 2.83413,1.52164 2.56041,1.96597 -0.79708,1.29395 -1.94526,0.94814 -3.84511,-1.15808 z m -13.55709,-4.09275 c 2.84529,-1.90349 13.51486,-7.04952 11.51537,-5.55398 -1.10147,0.82386 -2.54691,1.96544 -3.21207,2.53682 -0.66518,0.57139 -1.93093,1.03889 -2.81278,1.03889 -0.88185,0 -1.32806,0.4469 -0.99159,0.99312 0.34163,0.55458 -0.0297,0.74614 -0.84095,0.43382 -0.799,-0.30761 -1.7502,-0.0764 -2.11379,0.51382 -0.36357,0.59021 -1.1977,1.06619 -1.85362,1.05773 -0.72279,-0.009 -0.60091,-0.4112 0.30943,-1.02022 z M 342.0138,243.7035 c 1.06817,-0.78364 2.1551,-1.21113 2.41539,-0.95 0.5511,0.5529 -2.03105,2.33682 -3.41516,2.35942 -0.51831,0.008 -0.0684,-0.62578 0.99977,-1.40942 z m 14.96267,-3.59832 c -0.34038,-0.55255 -0.16826,-1.00463 0.38248,-1.00463 0.55073,0 1.27982,0.45208 1.62019,1.00463 0.34037,0.55254 0.16825,1.00462 -0.38248,1.00462 -0.55074,0 -1.27982,-0.45208 -1.62019,-1.00462 z m -3.2144,-1.808 c -0.8742,-0.55739 -0.665,-1.11517 0.751,-2.00238 1.17674,-0.73729 1.96273,-0.82405 1.96273,-0.21663 0,0.55723 -0.4772,1.01314 -1.06044,1.01314 -0.58324,0 -0.78194,0.45208 -0.44157,1.00462 0.73576,1.19439 0.42644,1.24575 -1.21172,0.20125 z m 12.72709,-2.2105 c 0,-0.55254 0.45061,-1.00462 1.00134,-1.00462 0.55074,0 1.00134,0.45208 1.00134,1.00462 0,0.55254 -0.4506,1.00463 -1.00134,1.00463 -0.55073,0 -1.00134,-0.45209 -1.00134,-1.00463 z m -8.01069,-2.06139 c 2.60954,-1.78255 7.00936,-4.03543 7.00936,-3.58908 0,0.55728 -6.9107,4.65057 -7.8176,4.63047 -0.38157,-0.008 -0.0178,-0.47709 0.80824,-1.04139 z m 24.03208,-2.90244 c 0,-2.89648 1.54539,-3.32141 1.77903,-0.48918 0.11066,1.34153 -0.24434,2.43914 -0.78891,2.43914 -0.54457,0 -0.99012,-0.87748 -0.99012,-1.94996 z m -10.01337,-1.06391 c -0.90249,-0.58516 -1.026,-0.98 -0.30943,-0.98925 0.65592,-0.008 1.47106,0.4367 1.81144,0.98925 0.76832,1.24727 0.42168,1.24727 -1.50201,0 z m 19.61028,-4.66291 c -0.52738,-1.37882 -0.38085,-1.44097 0.8942,-0.3793 1.73756,1.44679 1.9184,2.02833 0.63072,2.02833 -0.49181,0 -1.17803,-0.74206 -1.52492,-1.64903 z m -18.60894,0.21279 c 0,-0.27627 0.9012,-0.98621 2.00267,-1.57763 1.10147,-0.59142 2.00268,-0.84928 2.00268,-0.57301 0,0.27628 -0.90121,0.98621 -2.00268,1.57764 -1.10147,0.59142 -2.00267,0.84927 -2.00267,0.573 z m 5.38661,-1.9588 c 0.12632,-0.86346 0.5093,-1.85047 0.85106,-2.19337 0.34178,-0.34289 0.51807,0.083 0.39176,0.94647 -0.12632,0.86345 -0.5093,1.85046 -0.85107,2.19336 -0.34177,0.34289 -0.51806,-0.083 -0.39175,-0.94646 z m 5.71692,-3.89201 c 1.42569,-1.397 3.94155,-3.24009 5.5908,-4.09575 2.49242,-1.29311 2.99862,-1.31907 2.99862,-0.15378 0,0.77108 -0.41277,1.14602 -0.91726,0.8332 -0.50449,-0.31281 -3.02035,0.89939 -5.59079,2.6938 -3.66263,2.55684 -4.11284,2.71312 -2.08137,0.72253 z m 10.00798,-4.13005 c 0.22947,-0.20143 1.54373,-0.90448 2.92057,-1.56235 2.36042,-1.12784 2.39237,-1.10692 0.55961,0.36623 -1.59513,1.28216 -4.85434,2.40233 -3.48018,1.19612 z m 1.35961,-3.07544 c 1.06905,-0.8698 2.87145,-1.54258 4.00535,-1.4951 1.65433,0.0693 1.5331,0.24645 -0.61361,0.8967 -1.47137,0.44568 -3.27378,1.11848 -4.00535,1.49508 -0.73156,0.37662 -0.45543,-0.0269 0.61361,-0.89668 z"
       id="path899" />
    <rect
       style="fill:none;stroke:#ff0000;stroke-width:0.0930859;stroke-miterlimit:4;stroke-dasharray:none;stroke-opacity:1"
       id="rect901"
       width="360.39804"
       height="398.15399"
       x="216.98077"
       y="205.17189" />
  </g>
</svg>
